solid OpenSCAD_Model
  facet normal 1 -0 0
    outer loop
      vertex 49.6 0 19.6
      vertex 49.6 3 0
      vertex 49.6 3 19.6
    endloop
  endfacet
  facet normal 1 0 0
    outer loop
      vertex 49.6 3 0
      vertex 49.6 0 19.6
      vertex 49.6 0 0
    endloop
  endfacet
  facet normal -0 0 1
    outer loop
      vertex 0 3 19.6
      vertex 49.6 0 19.6
      vertex 49.6 3 19.6
    endloop
  endfacet
  facet normal 0 0 1
    outer loop
      vertex 49.6 0 19.6
      vertex 0 3 19.6
      vertex 0 0 19.6
    endloop
  endfacet
  facet normal 0 0 -1
    outer loop
      vertex 0 0 0
      vertex 49.6 3 0
      vertex 49.6 0 0
    endloop
  endfacet
  facet normal -0 0 -1
    outer loop
      vertex 49.6 3 0
      vertex 0 0 0
      vertex 0 3 0
    endloop
  endfacet
  facet normal -1 0 0
    outer loop
      vertex 0 0 0
      vertex 0 3 19.6
      vertex 0 3 0
    endloop
  endfacet
  facet normal -1 -0 0
    outer loop
      vertex 0 3 19.6
      vertex 0 0 0
      vertex 0 0 19.6
    endloop
  endfacet
  facet normal 0 -1 0
    outer loop
      vertex -3.5 3 23.1
      vertex 0 3 19.6
      vertex 53.1 3 23.1
    endloop
  endfacet
  facet normal 0 -1 0
    outer loop
      vertex -3.5 3 23.1
      vertex 0 3 0
      vertex 0 3 19.6
    endloop
  endfacet
  facet normal 0 -1 -0
    outer loop
      vertex 0 3 0
      vertex -3.5 3 -3.5
      vertex 49.6 3 0
    endloop
  endfacet
  facet normal 0 -1 0
    outer loop
      vertex -3.5 3 -3.5
      vertex 0 3 0
      vertex -3.5 3 23.1
    endloop
  endfacet
  facet normal 0 -1 0
    outer loop
      vertex 49.6 3 19.6
      vertex 53.1 3 23.1
      vertex 0 3 19.6
    endloop
  endfacet
  facet normal 0 -1 0
    outer loop
      vertex 49.6 3 0
      vertex 53.1 3 23.1
      vertex 49.6 3 19.6
    endloop
  endfacet
  facet normal 0 -1 0
    outer loop
      vertex 49.6 3 0
      vertex 53.1 3 -3.5
      vertex 53.1 3 23.1
    endloop
  endfacet
  facet normal 0 -1 0
    outer loop
      vertex 53.1 3 -3.5
      vertex 49.6 3 0
      vertex -3.5 3 -3.5
    endloop
  endfacet
  facet normal 0 -1 0
    outer loop
      vertex 0 0 19.6
      vertex 2 0 17.05
      vertex 49.6 0 19.6
    endloop
  endfacet
  facet normal 0 -1 0
    outer loop
      vertex 0 0 19.6
      vertex 2 0 14.55
      vertex 2 0 17.05
    endloop
  endfacet
  facet normal 0 -1 0
    outer loop
      vertex 2 0 14.55
      vertex 2 0 13.05
      vertex 47.6 0 14.55
    endloop
  endfacet
  facet normal 0 -1 0
    outer loop
      vertex 0 0 19.6
      vertex 2 0 13.05
      vertex 2 0 14.55
    endloop
  endfacet
  facet normal 0 -1 0
    outer loop
      vertex 0 0 19.6
      vertex 2 0 10.55
      vertex 2 0 13.05
    endloop
  endfacet
  facet normal 0 -1 0
    outer loop
      vertex 2 0 10.55
      vertex 2 0 9.05
      vertex 47.6 0 10.55
    endloop
  endfacet
  facet normal 0 -1 0
    outer loop
      vertex 0 0 19.6
      vertex 2 0 9.05
      vertex 2 0 10.55
    endloop
  endfacet
  facet normal 0 -1 0
    outer loop
      vertex 0 0 0
      vertex 2 0 9.05
      vertex 0 0 19.6
    endloop
  endfacet
  facet normal 0 -1 0
    outer loop
      vertex 2 0 6.55
      vertex 2 0 5.05
      vertex 47.6 0 6.55
    endloop
  endfacet
  facet normal 0 -1 -0
    outer loop
      vertex 2 0 9.05
      vertex 0 0 0
      vertex 2 0 6.55
    endloop
  endfacet
  facet normal 0 -1 -0
    outer loop
      vertex 2 0 6.55
      vertex 0 0 0
      vertex 2 0 5.05
    endloop
  endfacet
  facet normal 0 -1 -0
    outer loop
      vertex 2 0 2.55
      vertex 0 0 0
      vertex 47.6 0 2.55
    endloop
  endfacet
  facet normal 0 -1 -0
    outer loop
      vertex 2 0 5.05
      vertex 0 0 0
      vertex 2 0 2.55
    endloop
  endfacet
  facet normal 0 -1 0
    outer loop
      vertex 47.6 0 17.05
      vertex 49.6 0 19.6
      vertex 2 0 17.05
    endloop
  endfacet
  facet normal 0 -1 0
    outer loop
      vertex 47.6 0 14.55
      vertex 49.6 0 19.6
      vertex 47.6 0 17.05
    endloop
  endfacet
  facet normal 0 -1 0
    outer loop
      vertex 47.6 0 13.05
      vertex 47.6 0 14.55
      vertex 2 0 13.05
    endloop
  endfacet
  facet normal 0 -1 0
    outer loop
      vertex 47.6 0 13.05
      vertex 49.6 0 19.6
      vertex 47.6 0 14.55
    endloop
  endfacet
  facet normal 0 -1 0
    outer loop
      vertex 47.6 0 10.55
      vertex 49.6 0 19.6
      vertex 47.6 0 13.05
    endloop
  endfacet
  facet normal 0 -1 0
    outer loop
      vertex 47.6 0 9.05
      vertex 47.6 0 10.55
      vertex 2 0 9.05
    endloop
  endfacet
  facet normal 0 -1 0
    outer loop
      vertex 47.6 0 9.05
      vertex 49.6 0 19.6
      vertex 47.6 0 10.55
    endloop
  endfacet
  facet normal 0 -1 0
    outer loop
      vertex 49.6 0 0
      vertex 47.6 0 9.05
      vertex 47.6 0 6.55
    endloop
  endfacet
  facet normal 0 -1 0
    outer loop
      vertex 47.6 0 5.05
      vertex 47.6 0 6.55
      vertex 2 0 5.05
    endloop
  endfacet
  facet normal 0 -1 0
    outer loop
      vertex 49.6 0 0
      vertex 47.6 0 6.55
      vertex 47.6 0 5.05
    endloop
  endfacet
  facet normal 0 -1 0
    outer loop
      vertex 49.6 0 0
      vertex 47.6 0 5.05
      vertex 47.6 0 2.55
    endloop
  endfacet
  facet normal 0 -1 0
    outer loop
      vertex 47.6 0 9.05
      vertex 49.6 0 0
      vertex 49.6 0 19.6
    endloop
  endfacet
  facet normal 0 -1 0
    outer loop
      vertex 49.6 0 0
      vertex 47.6 0 2.55
      vertex 0 0 0
    endloop
  endfacet
  facet normal 1 -0 0
    outer loop
      vertex 53.1 3 23.1
      vertex 53.1 5 -3.5
      vertex 53.1 5 23.1
    endloop
  endfacet
  facet normal 1 0 0
    outer loop
      vertex 53.1 5 -3.5
      vertex 53.1 3 23.1
      vertex 53.1 3 -3.5
    endloop
  endfacet
  facet normal -0 0 1
    outer loop
      vertex -3.5 5 23.1
      vertex 53.1 3 23.1
      vertex 53.1 5 23.1
    endloop
  endfacet
  facet normal 0 0 1
    outer loop
      vertex 53.1 3 23.1
      vertex -3.5 5 23.1
      vertex -3.5 3 23.1
    endloop
  endfacet
  facet normal 0 0 -1
    outer loop
      vertex -3.5 3 -3.5
      vertex 53.1 5 -3.5
      vertex 53.1 3 -3.5
    endloop
  endfacet
  facet normal -0 0 -1
    outer loop
      vertex 53.1 5 -3.5
      vertex -3.5 3 -3.5
      vertex -3.5 5 -3.5
    endloop
  endfacet
  facet normal -1 0 0
    outer loop
      vertex -3.5 3 -3.5
      vertex -3.5 5 23.1
      vertex -3.5 5 -3.5
    endloop
  endfacet
  facet normal -1 -0 0
    outer loop
      vertex -3.5 5 23.1
      vertex -3.5 3 -3.5
      vertex -3.5 3 23.1
    endloop
  endfacet
  facet normal 0 1 0
    outer loop
      vertex 53.1 5 23.1
      vertex 47.6 5 17.05
      vertex -3.5 5 23.1
    endloop
  endfacet
  facet normal 0 1 0
    outer loop
      vertex 53.1 5 23.1
      vertex 47.6 5 14.55
      vertex 47.6 5 17.05
    endloop
  endfacet
  facet normal 0 1 0
    outer loop
      vertex 47.6 5 14.55
      vertex 47.6 5 13.05
      vertex 2 5 14.55
    endloop
  endfacet
  facet normal 0 1 0
    outer loop
      vertex 53.1 5 23.1
      vertex 47.6 5 13.05
      vertex 47.6 5 14.55
    endloop
  endfacet
  facet normal 0 1 0
    outer loop
      vertex 53.1 5 23.1
      vertex 47.6 5 10.55
      vertex 47.6 5 13.05
    endloop
  endfacet
  facet normal 0 1 0
    outer loop
      vertex 47.6 5 10.55
      vertex 47.6 5 9.05
      vertex 2 5 10.55
    endloop
  endfacet
  facet normal 0 1 0
    outer loop
      vertex 53.1 5 23.1
      vertex 47.6 5 9.05
      vertex 47.6 5 10.55
    endloop
  endfacet
  facet normal 0 1 -0
    outer loop
      vertex 53.1 5 -3.5
      vertex 47.6 5 9.05
      vertex 53.1 5 23.1
    endloop
  endfacet
  facet normal 0 1 0
    outer loop
      vertex 47.6 5 6.55
      vertex 47.6 5 5.05
      vertex 2 5 6.55
    endloop
  endfacet
  facet normal 0 1 0
    outer loop
      vertex 47.6 5 9.05
      vertex 53.1 5 -3.5
      vertex 47.6 5 6.55
    endloop
  endfacet
  facet normal 0 1 0
    outer loop
      vertex 47.6 5 6.55
      vertex 53.1 5 -3.5
      vertex 47.6 5 5.05
    endloop
  endfacet
  facet normal 0 1 0
    outer loop
      vertex 47.6 5 2.55
      vertex 53.1 5 -3.5
      vertex 2 5 2.55
    endloop
  endfacet
  facet normal 0 1 0
    outer loop
      vertex 47.6 5 5.05
      vertex 53.1 5 -3.5
      vertex 47.6 5 2.55
    endloop
  endfacet
  facet normal 0 1 -0
    outer loop
      vertex 2 5 17.05
      vertex -3.5 5 23.1
      vertex 47.6 5 17.05
    endloop
  endfacet
  facet normal 0 1 -0
    outer loop
      vertex 2 5 14.55
      vertex -3.5 5 23.1
      vertex 2 5 17.05
    endloop
  endfacet
  facet normal 0 1 0
    outer loop
      vertex 2 5 13.05
      vertex 2 5 14.55
      vertex 47.6 5 13.05
    endloop
  endfacet
  facet normal 0 1 -0
    outer loop
      vertex 2 5 13.05
      vertex -3.5 5 23.1
      vertex 2 5 14.55
    endloop
  endfacet
  facet normal 0 1 -0
    outer loop
      vertex 2 5 10.55
      vertex -3.5 5 23.1
      vertex 2 5 13.05
    endloop
  endfacet
  facet normal 0 1 0
    outer loop
      vertex 2 5 9.05
      vertex 2 5 10.55
      vertex 47.6 5 9.05
    endloop
  endfacet
  facet normal 0 1 -0
    outer loop
      vertex 2 5 9.05
      vertex -3.5 5 23.1
      vertex 2 5 10.55
    endloop
  endfacet
  facet normal 0 1 0
    outer loop
      vertex -3.5 5 -3.5
      vertex 2 5 9.05
      vertex 2 5 6.55
    endloop
  endfacet
  facet normal 0 1 0
    outer loop
      vertex 2 5 5.05
      vertex 2 5 6.55
      vertex 47.6 5 5.05
    endloop
  endfacet
  facet normal 0 1 0
    outer loop
      vertex -3.5 5 -3.5
      vertex 2 5 6.55
      vertex 2 5 5.05
    endloop
  endfacet
  facet normal 0 1 0
    outer loop
      vertex -3.5 5 -3.5
      vertex 2 5 5.05
      vertex 2 5 2.55
    endloop
  endfacet
  facet normal 0 1 0
    outer loop
      vertex 2 5 9.05
      vertex -3.5 5 -3.5
      vertex -3.5 5 23.1
    endloop
  endfacet
  facet normal 0 1 0
    outer loop
      vertex -3.5 5 -3.5
      vertex 2 5 2.55
      vertex 53.1 5 -3.5
    endloop
  endfacet
  facet normal -1 0 0
    outer loop
      vertex 47.6 0 2.55
      vertex 47.6 5 5.05
      vertex 47.6 5 2.55
    endloop
  endfacet
  facet normal -1 -0 0
    outer loop
      vertex 47.6 5 5.05
      vertex 47.6 0 2.55
      vertex 47.6 0 5.05
    endloop
  endfacet
  facet normal 0 0 -1
    outer loop
      vertex 2 0 5.05
      vertex 47.6 5 5.05
      vertex 47.6 0 5.05
    endloop
  endfacet
  facet normal -0 0 -1
    outer loop
      vertex 47.6 5 5.05
      vertex 2 0 5.05
      vertex 2 5 5.05
    endloop
  endfacet
  facet normal -0 0 1
    outer loop
      vertex 2 5 2.55
      vertex 47.6 0 2.55
      vertex 47.6 5 2.55
    endloop
  endfacet
  facet normal 0 0 1
    outer loop
      vertex 47.6 0 2.55
      vertex 2 5 2.55
      vertex 2 0 2.55
    endloop
  endfacet
  facet normal 1 -0 0
    outer loop
      vertex 2 0 5.05
      vertex 2 5 2.55
      vertex 2 5 5.05
    endloop
  endfacet
  facet normal 1 0 0
    outer loop
      vertex 2 5 2.55
      vertex 2 0 5.05
      vertex 2 0 2.55
    endloop
  endfacet
  facet normal -1 0 0
    outer loop
      vertex 47.6 0 6.55
      vertex 47.6 5 9.05
      vertex 47.6 5 6.55
    endloop
  endfacet
  facet normal -1 -0 0
    outer loop
      vertex 47.6 5 9.05
      vertex 47.6 0 6.55
      vertex 47.6 0 9.05
    endloop
  endfacet
  facet normal 0 0 -1
    outer loop
      vertex 2 0 9.05
      vertex 47.6 5 9.05
      vertex 47.6 0 9.05
    endloop
  endfacet
  facet normal -0 0 -1
    outer loop
      vertex 47.6 5 9.05
      vertex 2 0 9.05
      vertex 2 5 9.05
    endloop
  endfacet
  facet normal -0 0 1
    outer loop
      vertex 2 5 6.55
      vertex 47.6 0 6.55
      vertex 47.6 5 6.55
    endloop
  endfacet
  facet normal 0 0 1
    outer loop
      vertex 47.6 0 6.55
      vertex 2 5 6.55
      vertex 2 0 6.55
    endloop
  endfacet
  facet normal 1 -0 0
    outer loop
      vertex 2 0 9.05
      vertex 2 5 6.55
      vertex 2 5 9.05
    endloop
  endfacet
  facet normal 1 0 0
    outer loop
      vertex 2 5 6.55
      vertex 2 0 9.05
      vertex 2 0 6.55
    endloop
  endfacet
  facet normal -1 0 0
    outer loop
      vertex 47.6 0 10.55
      vertex 47.6 5 13.05
      vertex 47.6 5 10.55
    endloop
  endfacet
  facet normal -1 -0 0
    outer loop
      vertex 47.6 5 13.05
      vertex 47.6 0 10.55
      vertex 47.6 0 13.05
    endloop
  endfacet
  facet normal 0 0 -1
    outer loop
      vertex 2 0 13.05
      vertex 47.6 5 13.05
      vertex 47.6 0 13.05
    endloop
  endfacet
  facet normal -0 0 -1
    outer loop
      vertex 47.6 5 13.05
      vertex 2 0 13.05
      vertex 2 5 13.05
    endloop
  endfacet
  facet normal -0 0 1
    outer loop
      vertex 2 5 10.55
      vertex 47.6 0 10.55
      vertex 47.6 5 10.55
    endloop
  endfacet
  facet normal 0 0 1
    outer loop
      vertex 47.6 0 10.55
      vertex 2 5 10.55
      vertex 2 0 10.55
    endloop
  endfacet
  facet normal 1 -0 0
    outer loop
      vertex 2 0 13.05
      vertex 2 5 10.55
      vertex 2 5 13.05
    endloop
  endfacet
  facet normal 1 0 0
    outer loop
      vertex 2 5 10.55
      vertex 2 0 13.05
      vertex 2 0 10.55
    endloop
  endfacet
  facet normal -1 0 0
    outer loop
      vertex 47.6 0 14.55
      vertex 47.6 5 17.05
      vertex 47.6 5 14.55
    endloop
  endfacet
  facet normal -1 -0 0
    outer loop
      vertex 47.6 5 17.05
      vertex 47.6 0 14.55
      vertex 47.6 0 17.05
    endloop
  endfacet
  facet normal 0 0 -1
    outer loop
      vertex 2 0 17.05
      vertex 47.6 5 17.05
      vertex 47.6 0 17.05
    endloop
  endfacet
  facet normal -0 0 -1
    outer loop
      vertex 47.6 5 17.05
      vertex 2 0 17.05
      vertex 2 5 17.05
    endloop
  endfacet
  facet normal -0 0 1
    outer loop
      vertex 2 5 14.55
      vertex 47.6 0 14.55
      vertex 47.6 5 14.55
    endloop
  endfacet
  facet normal 0 0 1
    outer loop
      vertex 47.6 0 14.55
      vertex 2 5 14.55
      vertex 2 0 14.55
    endloop
  endfacet
  facet normal 1 -0 0
    outer loop
      vertex 2 0 17.05
      vertex 2 5 14.55
      vertex 2 5 17.05
    endloop
  endfacet
  facet normal 1 0 0
    outer loop
      vertex 2 5 14.55
      vertex 2 0 17.05
      vertex 2 0 14.55
    endloop
  endfacet
endsolid OpenSCAD_Model
