solid OpenSCAD_Model
  facet normal -0.881922 0.471396 0
    outer loop
      vertex 1.6415 7.21956 3
      vertex 2.17748 8.22231 10.6
      vertex 2.17748 8.22231 3
    endloop
  endfacet
  facet normal -0.881922 0.471396 0
    outer loop
      vertex 2.17748 8.22231 10.6
      vertex 1.6415 7.21956 3
      vertex 1.6415 7.21956 10.6
    endloop
  endfacet
  facet normal 0.956929 0.290322 0
    outer loop
      vertex 12.6886 6.13152 10.6
      vertex 12.3585 7.21956 3
      vertex 12.3585 7.21956 10.6
    endloop
  endfacet
  facet normal 0.956929 0.290322 0
    outer loop
      vertex 12.3585 7.21956 3
      vertex 12.6886 6.13152 10.6
      vertex 12.6886 6.13152 3
    endloop
  endfacet
  facet normal 0.995189 0.0979779 0
    outer loop
      vertex 12.8 5 10.6
      vertex 12.6886 6.13152 3
      vertex 12.6886 6.13152 10.6
    endloop
  endfacet
  facet normal 0.995189 0.0979779 0
    outer loop
      vertex 12.6886 6.13152 3
      vertex 12.8 5 10.6
      vertex 12.8 5 3
    endloop
  endfacet
  facet normal 0.290289 -0.956939 0
    outer loop
      vertex 8.8 -0.485774 3
      vertex 9.21956 -0.3585 7.68044
      vertex 8.8 -0.485774 8.1
    endloop
  endfacet
  facet normal 0.290289 -0.956939 0
    outer loop
      vertex 9.21956 -0.3585 7.68044
      vertex 8.8 -0.485774 3
      vertex 9.21956 -0.3585 3
    endloop
  endfacet
  facet normal 0.290289 -0.956939 0
    outer loop
      vertex 8.8 -0.485774 10.6
      vertex 9.21956 -0.3585 9.51956
      vertex 9.21956 -0.3585 10.6
    endloop
  endfacet
  facet normal 0.290289 -0.956939 0
    outer loop
      vertex 9.21956 -0.3585 9.51956
      vertex 8.8 -0.485774 10.6
      vertex 8.8 -0.485774 9.1
    endloop
  endfacet
  facet normal -0.956941 -0.290282 0
    outer loop
      vertex 1.6415 2.78044 3
      vertex 1.31145 3.86848 10.6
      vertex 1.31145 3.86848 3
    endloop
  endfacet
  facet normal -0.956941 -0.290282 0
    outer loop
      vertex 1.31145 3.86848 10.6
      vertex 1.6415 2.78044 3
      vertex 1.6415 2.78044 10.6
    endloop
  endfacet
  facet normal 0.773011 -0.634392 0
    outer loop
      vertex 11.1012 0.898781 10.6
      vertex 11.8225 1.77769 3
      vertex 11.8225 1.77769 10.6
    endloop
  endfacet
  facet normal 0.773011 -0.634392 0
    outer loop
      vertex 11.8225 1.77769 3
      vertex 11.1012 0.898781 10.6
      vertex 11.1012 0.898781 3
    endloop
  endfacet
  facet normal 0.881914 0.47141 0
    outer loop
      vertex 12.3585 7.21956 10.6
      vertex 11.8225 8.22231 3
      vertex 11.8225 8.22231 10.6
    endloop
  endfacet
  facet normal 0.881914 0.47141 0
    outer loop
      vertex 11.8225 8.22231 3
      vertex 12.3585 7.21956 10.6
      vertex 12.3585 7.21956 3
    endloop
  endfacet
  facet normal 0.634396 0.773008 -0
    outer loop
      vertex 11.1012 9.10122 3
      vertex 10.2223 9.82252 10.6
      vertex 11.1012 9.10122 10.6
    endloop
  endfacet
  facet normal 0.634396 0.773008 0
    outer loop
      vertex 10.2223 9.82252 10.6
      vertex 11.1012 9.10122 3
      vertex 10.2223 9.82252 3
    endloop
  endfacet
  facet normal 0.290322 0.956929 -0
    outer loop
      vertex 9.21956 10.3585 3
      vertex 8.13152 10.6886 10.6
      vertex 9.21956 10.3585 10.6
    endloop
  endfacet
  facet normal 0.290322 0.956929 0
    outer loop
      vertex 8.13152 10.6886 10.6
      vertex 9.21956 10.3585 3
      vertex 8.13152 10.6886 3
    endloop
  endfacet
  facet normal -0.881922 -0.471396 0
    outer loop
      vertex 2.17748 1.77769 3
      vertex 1.6415 2.78044 10.6
      vertex 1.6415 2.78044 3
    endloop
  endfacet
  facet normal -0.881922 -0.471396 0
    outer loop
      vertex 1.6415 2.78044 10.6
      vertex 2.17748 1.77769 3
      vertex 2.17748 1.77769 10.6
    endloop
  endfacet
  facet normal 0.773012 0.634392 0
    outer loop
      vertex 11.8225 8.22231 10.6
      vertex 11.1012 9.10122 3
      vertex 11.1012 9.10122 10.6
    endloop
  endfacet
  facet normal 0.773012 0.634392 0
    outer loop
      vertex 11.1012 9.10122 3
      vertex 11.8225 8.22231 10.6
      vertex 11.8225 8.22231 3
    endloop
  endfacet
  facet normal 0.0979779 0.995189 -0
    outer loop
      vertex 8.13152 10.6886 3
      vertex 7 10.8 10.6
      vertex 8.13152 10.6886 10.6
    endloop
  endfacet
  facet normal 0.0979779 0.995189 0
    outer loop
      vertex 7 10.8 10.6
      vertex 8.13152 10.6886 3
      vertex 7 10.8 3
    endloop
  endfacet
  facet normal -0.290322 0.956929 0
    outer loop
      vertex 5.86848 10.6886 3
      vertex 4.78044 10.3585 10.6
      vertex 5.86848 10.6886 10.6
    endloop
  endfacet
  facet normal -0.290322 0.956929 0
    outer loop
      vertex 4.78044 10.3585 10.6
      vertex 5.86848 10.6886 3
      vertex 4.78044 10.3585 3
    endloop
  endfacet
  facet normal 0 0 1
    outer loop
      vertex 11 5 10.6
      vertex 12.8 5 10.6
      vertex 12.6886 6.13152 10.6
    endloop
  endfacet
  facet normal 0 0 1
    outer loop
      vertex 10.9231 5.78036 10.6
      vertex 12.6886 6.13152 10.6
      vertex 12.3585 7.21956 10.6
    endloop
  endfacet
  facet normal 0 0 1
    outer loop
      vertex 12.8 5 10.6
      vertex 11 5 10.6
      vertex 12.6886 3.86848 10.6
    endloop
  endfacet
  facet normal 0 0 1
    outer loop
      vertex 10.6955 6.53073 10.6
      vertex 12.3585 7.21956 10.6
      vertex 11.8225 8.22231 10.6
    endloop
  endfacet
  facet normal -0 0 1
    outer loop
      vertex 10.9231 4.21964 10.6
      vertex 12.6886 3.86848 10.6
      vertex 11 5 10.6
    endloop
  endfacet
  facet normal 0 0 1
    outer loop
      vertex 10.3259 7.22228 10.6
      vertex 11.8225 8.22231 10.6
      vertex 11.1012 9.10122 10.6
    endloop
  endfacet
  facet normal 0 0 1
    outer loop
      vertex 12.6886 3.86848 10.6
      vertex 10.9231 4.21964 10.6
      vertex 12.3585 2.78044 10.6
    endloop
  endfacet
  facet normal -0 0 1
    outer loop
      vertex 10.6955 3.46927 10.6
      vertex 12.3585 2.78044 10.6
      vertex 10.9231 4.21964 10.6
    endloop
  endfacet
  facet normal 0 0 1
    outer loop
      vertex 12.6886 6.13152 10.6
      vertex 10.9231 5.78036 10.6
      vertex 11 5 10.6
    endloop
  endfacet
  facet normal 0 0 1
    outer loop
      vertex 12.3585 7.21956 10.6
      vertex 10.6955 6.53073 10.6
      vertex 10.9231 5.78036 10.6
    endloop
  endfacet
  facet normal 0 0 1
    outer loop
      vertex 11.8225 8.22231 10.6
      vertex 10.3259 7.22228 10.6
      vertex 10.6955 6.53073 10.6
    endloop
  endfacet
  facet normal 0 0 1
    outer loop
      vertex 9.82843 7.82843 10.6
      vertex 11.1012 9.10122 10.6
      vertex 10.2223 9.82252 10.6
    endloop
  endfacet
  facet normal 0 0 1
    outer loop
      vertex 11.1012 9.10122 10.6
      vertex 9.82843 7.82843 10.6
      vertex 10.3259 7.22228 10.6
    endloop
  endfacet
  facet normal 0 0 1
    outer loop
      vertex 10.2223 9.82252 10.6
      vertex 9.22228 8.32588 10.6
      vertex 9.82843 7.82843 10.6
    endloop
  endfacet
  facet normal 0 0 1
    outer loop
      vertex 9.21956 10.3585 10.6
      vertex 9.22228 8.32588 10.6
      vertex 10.2223 9.82252 10.6
    endloop
  endfacet
  facet normal 0 0 1
    outer loop
      vertex 9.21956 10.3585 10.6
      vertex 8.53073 8.69552 10.6
      vertex 9.22228 8.32588 10.6
    endloop
  endfacet
  facet normal 0 0 1
    outer loop
      vertex 8.13152 10.6886 10.6
      vertex 8.53073 8.69552 10.6
      vertex 9.21956 10.3585 10.6
    endloop
  endfacet
  facet normal 0 0 1
    outer loop
      vertex 8.13152 10.6886 10.6
      vertex 7.78036 8.92314 10.6
      vertex 8.53073 8.69552 10.6
    endloop
  endfacet
  facet normal 0 0 1
    outer loop
      vertex 7 10.8 10.6
      vertex 7.78036 8.92314 10.6
      vertex 8.13152 10.6886 10.6
    endloop
  endfacet
  facet normal 0 0 1
    outer loop
      vertex 7 10.8 10.6
      vertex 7 9 10.6
      vertex 7.78036 8.92314 10.6
    endloop
  endfacet
  facet normal 0 0 1
    outer loop
      vertex 7 10.8 10.6
      vertex 6.21964 8.92314 10.6
      vertex 7 9 10.6
    endloop
  endfacet
  facet normal -0 0 1
    outer loop
      vertex 5.86848 10.6886 10.6
      vertex 6.21964 8.92314 10.6
      vertex 7 10.8 10.6
    endloop
  endfacet
  facet normal 0 0 1
    outer loop
      vertex 5.86848 10.6886 10.6
      vertex 5.46927 8.69552 10.6
      vertex 6.21964 8.92314 10.6
    endloop
  endfacet
  facet normal -0 0 1
    outer loop
      vertex 4.78044 10.3585 10.6
      vertex 5.46927 8.69552 10.6
      vertex 5.86848 10.6886 10.6
    endloop
  endfacet
  facet normal 0 0 1
    outer loop
      vertex 4.78044 10.3585 10.6
      vertex 4.77772 8.32588 10.6
      vertex 5.46927 8.69552 10.6
    endloop
  endfacet
  facet normal -0 0 1
    outer loop
      vertex 3.77769 9.82252 10.6
      vertex 4.77772 8.32588 10.6
      vertex 4.78044 10.3585 10.6
    endloop
  endfacet
  facet normal 0 0 1
    outer loop
      vertex 4.77772 8.32588 10.6
      vertex 3.77769 9.82252 10.6
      vertex 4.17157 7.82843 10.6
    endloop
  endfacet
  facet normal -0 0 1
    outer loop
      vertex 2.89878 9.10122 10.6
      vertex 4.17157 7.82843 10.6
      vertex 3.77769 9.82252 10.6
    endloop
  endfacet
  facet normal 0 0 1
    outer loop
      vertex 4.17157 7.82843 10.6
      vertex 2.89878 9.10122 10.6
      vertex 3.67412 7.22228 10.6
    endloop
  endfacet
  facet normal -0 0 1
    outer loop
      vertex 2.17748 8.22231 10.6
      vertex 3.67412 7.22228 10.6
      vertex 2.89878 9.10122 10.6
    endloop
  endfacet
  facet normal -0 0 1
    outer loop
      vertex 1.6415 7.21956 10.6
      vertex 3.30448 6.53073 10.6
      vertex 2.17748 8.22231 10.6
    endloop
  endfacet
  facet normal 0 0 1
    outer loop
      vertex 3.67412 7.22228 10.6
      vertex 2.17748 8.22231 10.6
      vertex 3.30448 6.53073 10.6
    endloop
  endfacet
  facet normal 0 0 1
    outer loop
      vertex 12.3585 2.78044 10.6
      vertex 10.6955 3.46927 10.6
      vertex 11.8225 1.77769 10.6
    endloop
  endfacet
  facet normal -0 0 1
    outer loop
      vertex 10.3259 2.77772 10.6
      vertex 11.8225 1.77769 10.6
      vertex 10.6955 3.46927 10.6
    endloop
  endfacet
  facet normal 0 0 1
    outer loop
      vertex 11.8225 1.77769 10.6
      vertex 10.3259 2.77772 10.6
      vertex 11.1012 0.898781 10.6
    endloop
  endfacet
  facet normal -0 0 1
    outer loop
      vertex 9.82843 2.17157 10.6
      vertex 11.1012 0.898781 10.6
      vertex 10.3259 2.77772 10.6
    endloop
  endfacet
  facet normal 0 0 1
    outer loop
      vertex 11.1012 0.898781 10.6
      vertex 9.82843 2.17157 10.6
      vertex 10.2223 0.177477 10.6
    endloop
  endfacet
  facet normal -0 0 1
    outer loop
      vertex 9.22228 1.67412 10.6
      vertex 10.2223 0.177477 10.6
      vertex 9.82843 2.17157 10.6
    endloop
  endfacet
  facet normal -0 0 1
    outer loop
      vertex 8.8 1.44841 10.6
      vertex 10.2223 0.177477 10.6
      vertex 9.22228 1.67412 10.6
    endloop
  endfacet
  facet normal 0 0 1
    outer loop
      vertex 10.2223 0.177477 10.6
      vertex 8.8 1.44841 10.6
      vertex 9.21956 -0.3585 10.6
    endloop
  endfacet
  facet normal 0 0 1
    outer loop
      vertex 9.21956 -0.3585 10.6
      vertex 8.8 1.44841 10.6
      vertex 8.8 -0.485774 10.6
    endloop
  endfacet
  facet normal 0 0 1
    outer loop
      vertex 5.2 1.44841 10.6
      vertex 4.78044 -0.3585 10.6
      vertex 5.2 -0.485774 10.6
    endloop
  endfacet
  facet normal 0 0 1
    outer loop
      vertex 3.77769 0.177477 10.6
      vertex 5.2 1.44841 10.6
      vertex 4.77772 1.67412 10.6
    endloop
  endfacet
  facet normal 0 0 1
    outer loop
      vertex 3.77769 0.177477 10.6
      vertex 4.77772 1.67412 10.6
      vertex 4.17157 2.17157 10.6
    endloop
  endfacet
  facet normal 0 0 1
    outer loop
      vertex 5.2 1.44841 10.6
      vertex 3.77769 0.177477 10.6
      vertex 4.78044 -0.3585 10.6
    endloop
  endfacet
  facet normal 0 0 1
    outer loop
      vertex 2.89878 0.898781 10.6
      vertex 4.17157 2.17157 10.6
      vertex 3.67412 2.77772 10.6
    endloop
  endfacet
  facet normal 0 0 1
    outer loop
      vertex 2.17748 1.77769 10.6
      vertex 3.67412 2.77772 10.6
      vertex 3.30448 3.46927 10.6
    endloop
  endfacet
  facet normal 0 0 1
    outer loop
      vertex 1.6415 2.78044 10.6
      vertex 3.30448 3.46927 10.6
      vertex 3.07686 4.21964 10.6
    endloop
  endfacet
  facet normal 0 0 1
    outer loop
      vertex 4.17157 2.17157 10.6
      vertex 2.89878 0.898781 10.6
      vertex 3.77769 0.177477 10.6
    endloop
  endfacet
  facet normal 0 0 1
    outer loop
      vertex 1.31145 3.86848 10.6
      vertex 3.07686 4.21964 10.6
      vertex 3 5 10.6
    endloop
  endfacet
  facet normal 0 0 1
    outer loop
      vertex 3.30448 6.53073 10.6
      vertex 1.6415 7.21956 10.6
      vertex 3.07686 5.78036 10.6
    endloop
  endfacet
  facet normal -0 0 1
    outer loop
      vertex 1.31145 6.13152 10.6
      vertex 3.07686 5.78036 10.6
      vertex 1.6415 7.21956 10.6
    endloop
  endfacet
  facet normal 0 0 1
    outer loop
      vertex 3.67412 2.77772 10.6
      vertex 2.17748 1.77769 10.6
      vertex 2.89878 0.898781 10.6
    endloop
  endfacet
  facet normal 0 0 1
    outer loop
      vertex 3.07686 5.78036 10.6
      vertex 1.31145 6.13152 10.6
      vertex 3 5 10.6
    endloop
  endfacet
  facet normal 0 0 1
    outer loop
      vertex 3.30448 3.46927 10.6
      vertex 1.6415 2.78044 10.6
      vertex 2.17748 1.77769 10.6
    endloop
  endfacet
  facet normal 0 0 1
    outer loop
      vertex 1.2 5 10.6
      vertex 3 5 10.6
      vertex 1.31145 6.13152 10.6
    endloop
  endfacet
  facet normal 0 0 1
    outer loop
      vertex 3.07686 4.21964 10.6
      vertex 1.31145 3.86848 10.6
      vertex 1.6415 2.78044 10.6
    endloop
  endfacet
  facet normal 0 0 1
    outer loop
      vertex 3 5 10.6
      vertex 1.2 5 10.6
      vertex 1.31145 3.86848 10.6
    endloop
  endfacet
  facet normal -0.634394 -0.77301 0
    outer loop
      vertex 2.89878 0.898781 3
      vertex 3.77769 0.177477 10.6
      vertex 2.89878 0.898781 10.6
    endloop
  endfacet
  facet normal -0.634394 -0.77301 -0
    outer loop
      vertex 3.77769 0.177477 10.6
      vertex 2.89878 0.898781 3
      vertex 3.77769 0.177477 3
    endloop
  endfacet
  facet normal 0.47141 0.881914 0
    outer loop
      vertex 9.89027 10 3
      vertex 10.2223 9.82252 10.6
      vertex 10.2223 9.82252 3
    endloop
  endfacet
  facet normal 0.4714 0.88192 5.61937e-07
    outer loop
      vertex 10.2223 9.82252 10.6
      vertex 9.89027 10 3
      vertex 9.21956 10.3585 10.6
    endloop
  endfacet
  facet normal 0.471395 0.881922 0
    outer loop
      vertex 9.21956 10.3585 10.6
      vertex 9.89027 10 3
      vertex 9.21956 10.3585 3
    endloop
  endfacet
  facet normal -0.995184 0.0980215 0
    outer loop
      vertex 1.2 5 3
      vertex 1.31145 6.13152 10.6
      vertex 1.31145 6.13152 3
    endloop
  endfacet
  facet normal -0.995184 0.0980215 0
    outer loop
      vertex 1.31145 6.13152 10.6
      vertex 1.2 5 3
      vertex 1.2 5 10.6
    endloop
  endfacet
  facet normal 0.881914 -0.47141 0
    outer loop
      vertex 11.8225 1.77769 10.6
      vertex 12.3585 2.78044 3
      vertex 12.3585 2.78044 10.6
    endloop
  endfacet
  facet normal 0.881914 -0.47141 0
    outer loop
      vertex 12.3585 2.78044 3
      vertex 11.8225 1.77769 10.6
      vertex 11.8225 1.77769 3
    endloop
  endfacet
  facet normal 0.471384 -0.881928 0
    outer loop
      vertex 9.21956 -0.3585 7.68044
      vertex 9.21956 -0.3585 3
      vertex 9.36066 -0.283083 7.53934
    endloop
  endfacet
  facet normal 0.471395 -0.881922 -4.09572e-07
    outer loop
      vertex 9.89027 0 3
      vertex 9.36066 -0.283083 7.53934
      vertex 9.21956 -0.3585 3
    endloop
  endfacet
  facet normal 0.471403 -0.881918 9.04318e-07
    outer loop
      vertex 10.2223 0.177477 3
      vertex 9.36066 -0.283083 7.53934
      vertex 9.89027 0 3
    endloop
  endfacet
  facet normal 0.4714 -0.88192 0
    outer loop
      vertex 9.36066 -0.283083 7.53934
      vertex 10.2223 0.177477 3
      vertex 10.2223 0.177477 8.40099
    endloop
  endfacet
  facet normal 0.471398 -0.881921 2.53938e-06
    outer loop
      vertex 9.21956 -0.3585 10.6
      vertex 9.36066 -0.283083 9.66066
      vertex 10.2223 0.177477 10.6
    endloop
  endfacet
  facet normal 0.471384 -0.881928 0
    outer loop
      vertex 9.36066 -0.283083 9.66066
      vertex 9.21956 -0.3585 10.6
      vertex 9.21956 -0.3585 9.51956
    endloop
  endfacet
  facet normal 0.4714 -0.88192 0
    outer loop
      vertex 10.2223 0.177477 10.6
      vertex 9.36066 -0.283083 9.66066
      vertex 10.2223 0.177477 8.79901
    endloop
  endfacet
  facet normal 0 0 1
    outer loop
      vertex 1.31145 6.13152 3
      vertex 0 10 3
      vertex 1.2 5 3
    endloop
  endfacet
  facet normal 0 0 1
    outer loop
      vertex 1.6415 7.21956 3
      vertex 0 10 3
      vertex 1.31145 6.13152 3
    endloop
  endfacet
  facet normal 0 0 1
    outer loop
      vertex 2.17748 8.22231 3
      vertex 0 10 3
      vertex 1.6415 7.21956 3
    endloop
  endfacet
  facet normal 0 0 1
    outer loop
      vertex 2.89878 9.10122 3
      vertex 0 10 3
      vertex 2.17748 8.22231 3
    endloop
  endfacet
  facet normal 0 0 1
    outer loop
      vertex 3.77769 9.82252 3
      vertex 0 10 3
      vertex 2.89878 9.10122 3
    endloop
  endfacet
  facet normal -0 0 1
    outer loop
      vertex 0 10 3
      vertex 3.77769 9.82252 3
      vertex 4.10973 10 3
    endloop
  endfacet
  facet normal 0 0 1
    outer loop
      vertex 0 0 3
      vertex 1.2 5 3
      vertex 0 10 3
    endloop
  endfacet
  facet normal 0 0 1
    outer loop
      vertex 3.77769 0.177477 3
      vertex 0 0 3
      vertex 4.10973 0 3
    endloop
  endfacet
  facet normal 0 0 1
    outer loop
      vertex 2.89878 0.898781 3
      vertex 0 0 3
      vertex 3.77769 0.177477 3
    endloop
  endfacet
  facet normal 0 0 1
    outer loop
      vertex 2.17748 1.77769 3
      vertex 0 0 3
      vertex 2.89878 0.898781 3
    endloop
  endfacet
  facet normal 0 0 1
    outer loop
      vertex 1.6415 2.78044 3
      vertex 0 0 3
      vertex 2.17748 1.77769 3
    endloop
  endfacet
  facet normal 0 0 1
    outer loop
      vertex 1.31145 3.86848 3
      vertex 0 0 3
      vertex 1.6415 2.78044 3
    endloop
  endfacet
  facet normal 0 0 1
    outer loop
      vertex 1.2 5 3
      vertex 0 0 3
      vertex 1.31145 3.86848 3
    endloop
  endfacet
  facet normal 0 0 1
    outer loop
      vertex 14 10 3
      vertex 12.8 5 3
      vertex 14 0 3
    endloop
  endfacet
  facet normal 0 0 1
    outer loop
      vertex 14 10 3
      vertex 12.6886 6.13152 3
      vertex 12.8 5 3
    endloop
  endfacet
  facet normal 0 0 1
    outer loop
      vertex 14 10 3
      vertex 12.3585 7.21956 3
      vertex 12.6886 6.13152 3
    endloop
  endfacet
  facet normal 0 0 1
    outer loop
      vertex 14 10 3
      vertex 11.8225 8.22231 3
      vertex 12.3585 7.21956 3
    endloop
  endfacet
  facet normal 0 0 1
    outer loop
      vertex 14 10 3
      vertex 11.1012 9.10122 3
      vertex 11.8225 8.22231 3
    endloop
  endfacet
  facet normal 0 0 1
    outer loop
      vertex 14 10 3
      vertex 10.2223 9.82252 3
      vertex 11.1012 9.10122 3
    endloop
  endfacet
  facet normal 0 -0 1
    outer loop
      vertex 10.2223 9.82252 3
      vertex 14 10 3
      vertex 9.89027 10 3
    endloop
  endfacet
  facet normal -0 0 1
    outer loop
      vertex 12.6886 3.86848 3
      vertex 14 0 3
      vertex 12.8 5 3
    endloop
  endfacet
  facet normal -0 0 1
    outer loop
      vertex 12.3585 2.78044 3
      vertex 14 0 3
      vertex 12.6886 3.86848 3
    endloop
  endfacet
  facet normal -0 0 1
    outer loop
      vertex 11.8225 1.77769 3
      vertex 14 0 3
      vertex 12.3585 2.78044 3
    endloop
  endfacet
  facet normal -0 0 1
    outer loop
      vertex 11.1012 0.898781 3
      vertex 14 0 3
      vertex 11.8225 1.77769 3
    endloop
  endfacet
  facet normal -0 0 1
    outer loop
      vertex 10.2223 0.177477 3
      vertex 14 0 3
      vertex 11.1012 0.898781 3
    endloop
  endfacet
  facet normal 0 0 1
    outer loop
      vertex 14 0 3
      vertex 10.2223 0.177477 3
      vertex 9.89027 0 3
    endloop
  endfacet
  facet normal 0 0 -1
    outer loop
      vertex 8.8 0 3
      vertex 9.21956 -0.3585 3
      vertex 8.8 -0.485774 3
    endloop
  endfacet
  facet normal 0 0 -1
    outer loop
      vertex 9.21956 -0.3585 3
      vertex 8.8 0 3
      vertex 9.89027 0 3
    endloop
  endfacet
  facet normal 0 0 -1
    outer loop
      vertex 9.89027 10 3
      vertex 8.13152 10.6886 3
      vertex 9.21956 10.3585 3
    endloop
  endfacet
  facet normal 0 0 -1
    outer loop
      vertex 9.89027 10 3
      vertex 7 10.8 3
      vertex 8.13152 10.6886 3
    endloop
  endfacet
  facet normal 0 0 -1
    outer loop
      vertex 9.89027 10 3
      vertex 5.86848 10.6886 3
      vertex 7 10.8 3
    endloop
  endfacet
  facet normal 0 0 -1
    outer loop
      vertex 4.10973 10 3
      vertex 5.86848 10.6886 3
      vertex 9.89027 10 3
    endloop
  endfacet
  facet normal 0 0 -1
    outer loop
      vertex 5.86848 10.6886 3
      vertex 4.10973 10 3
      vertex 4.78044 10.3585 3
    endloop
  endfacet
  facet normal 0 0 -1
    outer loop
      vertex 4.78044 -0.3585 3
      vertex 5.2 0 3
      vertex 5.2 -0.485774 3
    endloop
  endfacet
  facet normal -0 0 -1
    outer loop
      vertex 5.2 0 3
      vertex 4.78044 -0.3585 3
      vertex 4.10973 0 3
    endloop
  endfacet
  facet normal 0 0 1
    outer loop
      vertex 8.7 5 3
      vertex 11 5 3
      vertex 10.9231 5.78036 3
    endloop
  endfacet
  facet normal 0 0 1
    outer loop
      vertex 8.66733 5.33165 3
      vertex 10.9231 5.78036 3
      vertex 10.6955 6.53073 3
    endloop
  endfacet
  facet normal 0 0 1
    outer loop
      vertex 11 5 3
      vertex 8.7 5 3
      vertex 10.9231 4.21964 3
    endloop
  endfacet
  facet normal 0 0 1
    outer loop
      vertex 8.57059 5.65056 3
      vertex 10.6955 6.53073 3
      vertex 10.3259 7.22228 3
    endloop
  endfacet
  facet normal -0 0 1
    outer loop
      vertex 8.66733 4.66835 3
      vertex 10.9231 4.21964 3
      vertex 8.7 5 3
    endloop
  endfacet
  facet normal 0 0 1
    outer loop
      vertex 8.4135 5.94447 3
      vertex 10.3259 7.22228 3
      vertex 9.82843 7.82843 3
    endloop
  endfacet
  facet normal 0 0 1
    outer loop
      vertex 10.9231 4.21964 3
      vertex 8.66733 4.66835 3
      vertex 10.6955 3.46927 3
    endloop
  endfacet
  facet normal 0 0 1
    outer loop
      vertex 8.20208 6.20208 3
      vertex 9.82843 7.82843 3
      vertex 9.22228 8.32588 3
    endloop
  endfacet
  facet normal -0 0 1
    outer loop
      vertex 8.57059 4.34944 3
      vertex 10.6955 3.46927 3
      vertex 8.66733 4.66835 3
    endloop
  endfacet
  facet normal 0 0 1
    outer loop
      vertex 10.6955 3.46927 3
      vertex 8.57059 4.34944 3
      vertex 10.3259 2.77772 3
    endloop
  endfacet
  facet normal 0 0 1
    outer loop
      vertex 10.3259 2.77772 3
      vertex 8.4135 4.05553 3
      vertex 9.82843 2.17157 3
    endloop
  endfacet
  facet normal -0 0 1
    outer loop
      vertex 8.4135 4.05553 3
      vertex 10.3259 2.77772 3
      vertex 8.57059 4.34944 3
    endloop
  endfacet
  facet normal 0 0 1
    outer loop
      vertex 10.9231 5.78036 3
      vertex 8.66733 5.33165 3
      vertex 8.7 5 3
    endloop
  endfacet
  facet normal 0 0 1
    outer loop
      vertex 10.6955 6.53073 3
      vertex 8.57059 5.65056 3
      vertex 8.66733 5.33165 3
    endloop
  endfacet
  facet normal 0 0 1
    outer loop
      vertex 7.94447 6.4135 3
      vertex 9.22228 8.32588 3
      vertex 8.53073 8.69552 3
    endloop
  endfacet
  facet normal 0 0 1
    outer loop
      vertex 10.3259 7.22228 3
      vertex 8.4135 5.94447 3
      vertex 8.57059 5.65056 3
    endloop
  endfacet
  facet normal 0 0 1
    outer loop
      vertex 9.82843 7.82843 3
      vertex 8.20208 6.20208 3
      vertex 8.4135 5.94447 3
    endloop
  endfacet
  facet normal 0 0 1
    outer loop
      vertex 9.22228 8.32588 3
      vertex 7.94447 6.4135 3
      vertex 8.20208 6.20208 3
    endloop
  endfacet
  facet normal 0 0 1
    outer loop
      vertex 7.65056 6.57059 3
      vertex 8.53073 8.69552 3
      vertex 7.78036 8.92314 3
    endloop
  endfacet
  facet normal 0 0 1
    outer loop
      vertex 8.53073 8.69552 3
      vertex 7.65056 6.57059 3
      vertex 7.94447 6.4135 3
    endloop
  endfacet
  facet normal 0 0 1
    outer loop
      vertex 7.78036 8.92314 3
      vertex 7.33165 6.66733 3
      vertex 7.65056 6.57059 3
    endloop
  endfacet
  facet normal 0 0 1
    outer loop
      vertex 7 9 3
      vertex 7.33165 6.66733 3
      vertex 7.78036 8.92314 3
    endloop
  endfacet
  facet normal 0 0 1
    outer loop
      vertex 7 9 3
      vertex 7 6.7 3
      vertex 7.33165 6.66733 3
    endloop
  endfacet
  facet normal 0 0 1
    outer loop
      vertex 7 9 3
      vertex 6.66835 6.66733 3
      vertex 7 6.7 3
    endloop
  endfacet
  facet normal -0 0 1
    outer loop
      vertex 6.21964 8.92314 3
      vertex 6.66835 6.66733 3
      vertex 7 9 3
    endloop
  endfacet
  facet normal 0 0 1
    outer loop
      vertex 6.66835 6.66733 3
      vertex 6.21964 8.92314 3
      vertex 6.34944 6.57059 3
    endloop
  endfacet
  facet normal -0 0 1
    outer loop
      vertex 5.46927 8.69552 3
      vertex 6.34944 6.57059 3
      vertex 6.21964 8.92314 3
    endloop
  endfacet
  facet normal 0 0 1
    outer loop
      vertex 6.34944 6.57059 3
      vertex 5.46927 8.69552 3
      vertex 6.05553 6.4135 3
    endloop
  endfacet
  facet normal -0 0 1
    outer loop
      vertex 4.77772 8.32588 3
      vertex 6.05553 6.4135 3
      vertex 5.46927 8.69552 3
    endloop
  endfacet
  facet normal 0 0 1
    outer loop
      vertex 6.05553 6.4135 3
      vertex 4.77772 8.32588 3
      vertex 5.79792 6.20208 3
    endloop
  endfacet
  facet normal -0 0 1
    outer loop
      vertex 4.17157 7.82843 3
      vertex 5.79792 6.20208 3
      vertex 4.77772 8.32588 3
    endloop
  endfacet
  facet normal 0 0 1
    outer loop
      vertex 5.79792 6.20208 3
      vertex 4.17157 7.82843 3
      vertex 5.5865 5.94447 3
    endloop
  endfacet
  facet normal -0 0 1
    outer loop
      vertex 3.67412 7.22228 3
      vertex 5.5865 5.94447 3
      vertex 4.17157 7.82843 3
    endloop
  endfacet
  facet normal 0 0 1
    outer loop
      vertex 5.5865 5.94447 3
      vertex 3.67412 7.22228 3
      vertex 5.42941 5.65056 3
    endloop
  endfacet
  facet normal -0 0 1
    outer loop
      vertex 3.30448 6.53073 3
      vertex 5.42941 5.65056 3
      vertex 3.67412 7.22228 3
    endloop
  endfacet
  facet normal 0 0 1
    outer loop
      vertex 5.42941 5.65056 3
      vertex 3.30448 6.53073 3
      vertex 5.33267 5.33165 3
    endloop
  endfacet
  facet normal -0 0 1
    outer loop
      vertex 3.07686 5.78036 3
      vertex 5.33267 5.33165 3
      vertex 3.30448 6.53073 3
    endloop
  endfacet
  facet normal 0 0 1
    outer loop
      vertex 5.3 5 3
      vertex 4.77772 1.67412 3
      vertex 5.2 1.44841 3
    endloop
  endfacet
  facet normal 0 -0 1
    outer loop
      vertex 4.17157 2.17157 3
      vertex 5.3 5 3
      vertex 3.67412 2.77772 3
    endloop
  endfacet
  facet normal 0 -0 1
    outer loop
      vertex 4.77772 1.67412 3
      vertex 5.3 5 3
      vertex 4.17157 2.17157 3
    endloop
  endfacet
  facet normal 0 0 1
    outer loop
      vertex 5.33267 5.33165 3
      vertex 3.07686 5.78036 3
      vertex 5.3 5 3
    endloop
  endfacet
  facet normal 0 0 1
    outer loop
      vertex 5.3 5 3
      vertex 3.30448 3.46927 3
      vertex 3.67412 2.77772 3
    endloop
  endfacet
  facet normal 0 0 1
    outer loop
      vertex 3 5 3
      vertex 5.3 5 3
      vertex 3.07686 5.78036 3
    endloop
  endfacet
  facet normal 0 0 1
    outer loop
      vertex 5.3 5 3
      vertex 3.07686 4.21964 3
      vertex 3.30448 3.46927 3
    endloop
  endfacet
  facet normal 0 0 1
    outer loop
      vertex 5.3 5 3
      vertex 3 5 3
      vertex 3.07686 4.21964 3
    endloop
  endfacet
  facet normal -0 0 1
    outer loop
      vertex 8.20208 3.79792 3
      vertex 9.82843 2.17157 3
      vertex 8.4135 4.05553 3
    endloop
  endfacet
  facet normal 0 0 1
    outer loop
      vertex 9.82843 2.17157 3
      vertex 8.20208 3.79792 3
      vertex 9.22228 1.67412 3
    endloop
  endfacet
  facet normal -0 0 1
    outer loop
      vertex 7.94447 3.5865 3
      vertex 9.22228 1.67412 3
      vertex 8.20208 3.79792 3
    endloop
  endfacet
  facet normal 0 0 1
    outer loop
      vertex 9.22228 1.67412 3
      vertex 7.94447 3.5865 3
      vertex 8.8 1.44841 3
    endloop
  endfacet
  facet normal -0 0 1
    outer loop
      vertex 7.65056 3.42941 3
      vertex 8.8 1.44841 3
      vertex 7.94447 3.5865 3
    endloop
  endfacet
  facet normal -0 0 1
    outer loop
      vertex 7.33165 3.33267 3
      vertex 8.8 1.44841 3
      vertex 7.65056 3.42941 3
    endloop
  endfacet
  facet normal -0 0 1
    outer loop
      vertex 7 3.3 3
      vertex 8.8 1.44841 3
      vertex 7.33165 3.33267 3
    endloop
  endfacet
  facet normal 0 0 1
    outer loop
      vertex 5.2 1.44841 3
      vertex 8.8 1.44841 3
      vertex 7 3.3 3
    endloop
  endfacet
  facet normal 0 0 1
    outer loop
      vertex 5.2 1.44841 3
      vertex 7 3.3 3
      vertex 6.66835 3.33267 3
    endloop
  endfacet
  facet normal 0 0 1
    outer loop
      vertex 5.2 1.44841 3
      vertex 6.66835 3.33267 3
      vertex 6.34944 3.42941 3
    endloop
  endfacet
  facet normal 0 0 1
    outer loop
      vertex 5.2 1.44841 3
      vertex 6.34944 3.42941 3
      vertex 6.05553 3.5865 3
    endloop
  endfacet
  facet normal 0 0 1
    outer loop
      vertex 5.2 1.44841 3
      vertex 6.05553 3.5865 3
      vertex 5.79792 3.79792 3
    endloop
  endfacet
  facet normal 0 0 1
    outer loop
      vertex 5.2 1.44841 3
      vertex 5.79792 3.79792 3
      vertex 5.5865 4.05553 3
    endloop
  endfacet
  facet normal 0 0 1
    outer loop
      vertex 5.2 1.44841 3
      vertex 5.33267 4.66835 3
      vertex 5.3 5 3
    endloop
  endfacet
  facet normal 0 0 1
    outer loop
      vertex 5.2 1.44841 3
      vertex 5.42941 4.34944 3
      vertex 5.33267 4.66835 3
    endloop
  endfacet
  facet normal 0 0 1
    outer loop
      vertex 5.2 1.44841 3
      vertex 5.5865 4.05553 3
      vertex 5.42941 4.34944 3
    endloop
  endfacet
  facet normal 0 0 1
    outer loop
      vertex 8.8 1.44841 3
      vertex 5.2 1.44841 3
      vertex 8.8 0 3
    endloop
  endfacet
  facet normal 0 0 1
    outer loop
      vertex 8.8 0 3
      vertex 5.2 1.44841 3
      vertex 5.2 0 3
    endloop
  endfacet
  facet normal -0.634392 0.773012 0
    outer loop
      vertex 3.77769 9.82252 3
      vertex 2.89878 9.10122 10.6
      vertex 3.77769 9.82252 10.6
    endloop
  endfacet
  facet normal -0.634392 0.773012 0
    outer loop
      vertex 2.89878 9.10122 10.6
      vertex 3.77769 9.82252 3
      vertex 2.89878 9.10122 3
    endloop
  endfacet
  facet normal -0.471395 0.881922 0
    outer loop
      vertex 4.10973 10 3
      vertex 4.78044 10.3585 10.6
      vertex 4.78044 10.3585 3
    endloop
  endfacet
  facet normal -0.471396 0.881922 1.47062e-07
    outer loop
      vertex 4.78044 10.3585 10.6
      vertex 4.10973 10 3
      vertex 3.77769 9.82252 10.6
    endloop
  endfacet
  facet normal -0.471399 0.88192 0
    outer loop
      vertex 3.77769 9.82252 10.6
      vertex 4.10973 10 3
      vertex 3.77769 9.82252 3
    endloop
  endfacet
  facet normal -0.471394 -0.881923 0
    outer loop
      vertex 3.77769 0.177477 10.6
      vertex 4.78044 -0.3585 9.18044
      vertex 4.78044 -0.3585 10.6
    endloop
  endfacet
  facet normal -0.471394 -0.881923 3.80088e-07
    outer loop
      vertex 3.77769 0.177477 10.6
      vertex 4.2 -0.0482513 8.6
      vertex 4.78044 -0.3585 9.18044
    endloop
  endfacet
  facet normal -0.471395 -0.881922 0
    outer loop
      vertex 3.77769 0.177477 3
      vertex 4.2 -0.0482513 8.6
      vertex 3.77769 0.177477 10.6
    endloop
  endfacet
  facet normal -0.471393 -0.881923 -1.5288e-07
    outer loop
      vertex 3.77769 0.177477 3
      vertex 4.78044 -0.3585 8.01956
      vertex 4.2 -0.0482513 8.6
    endloop
  endfacet
  facet normal -0.471392 -0.881924 -3.92271e-07
    outer loop
      vertex 4.10973 0 3
      vertex 4.78044 -0.3585 8.01956
      vertex 3.77769 0.177477 3
    endloop
  endfacet
  facet normal -0.471395 -0.881922 -0
    outer loop
      vertex 4.78044 -0.3585 8.01956
      vertex 4.10973 0 3
      vertex 4.78044 -0.3585 3
    endloop
  endfacet
  facet normal -0.956941 0.290282 0
    outer loop
      vertex 1.31145 6.13152 3
      vertex 1.6415 7.21956 10.6
      vertex 1.6415 7.21956 3
    endloop
  endfacet
  facet normal -0.956941 0.290282 0
    outer loop
      vertex 1.6415 7.21956 10.6
      vertex 1.31145 6.13152 3
      vertex 1.31145 6.13152 10.6
    endloop
  endfacet
  facet normal 0.956929 -0.290322 0
    outer loop
      vertex 12.3585 2.78044 10.6
      vertex 12.6886 3.86848 3
      vertex 12.6886 3.86848 10.6
    endloop
  endfacet
  facet normal 0.956929 -0.290322 0
    outer loop
      vertex 12.6886 3.86848 3
      vertex 12.3585 2.78044 10.6
      vertex 12.3585 2.78044 3
    endloop
  endfacet
  facet normal -0.0979779 0.995189 0
    outer loop
      vertex 7 10.8 3
      vertex 5.86848 10.6886 10.6
      vertex 7 10.8 10.6
    endloop
  endfacet
  facet normal -0.0979779 0.995189 0
    outer loop
      vertex 5.86848 10.6886 10.6
      vertex 7 10.8 3
      vertex 5.86848 10.6886 3
    endloop
  endfacet
  facet normal -0.773012 0.634392 0
    outer loop
      vertex 2.17748 8.22231 3
      vertex 2.89878 9.10122 10.6
      vertex 2.89878 9.10122 3
    endloop
  endfacet
  facet normal -0.773012 0.634392 0
    outer loop
      vertex 2.89878 9.10122 10.6
      vertex 2.17748 8.22231 3
      vertex 2.17748 8.22231 10.6
    endloop
  endfacet
  facet normal 0.995189 -0.0979779 0
    outer loop
      vertex 12.6886 3.86848 10.6
      vertex 12.8 5 3
      vertex 12.8 5 10.6
    endloop
  endfacet
  facet normal 0.995189 -0.0979779 0
    outer loop
      vertex 12.8 5 3
      vertex 12.6886 3.86848 10.6
      vertex 12.6886 3.86848 3
    endloop
  endfacet
  facet normal -0.773011 -0.634392 0
    outer loop
      vertex 2.89878 0.898781 3
      vertex 2.17748 1.77769 10.6
      vertex 2.17748 1.77769 3
    endloop
  endfacet
  facet normal -0.773011 -0.634392 0
    outer loop
      vertex 2.17748 1.77769 10.6
      vertex 2.89878 0.898781 3
      vertex 2.89878 0.898781 10.6
    endloop
  endfacet
  facet normal 0.634398 -0.773006 0
    outer loop
      vertex 10.2223 0.177477 8.79901
      vertex 11.1012 0.898781 10.6
      vertex 10.2223 0.177477 10.6
    endloop
  endfacet
  facet normal 0.63441 -0.772996 -9.92359e-06
    outer loop
      vertex 10.4213 0.340802 8.6
      vertex 11.1012 0.898781 10.6
      vertex 10.2223 0.177477 8.79901
    endloop
  endfacet
  facet normal 0.634398 -0.773006 0
    outer loop
      vertex 11.1012 0.898781 3
      vertex 10.2223 0.177477 8.40099
      vertex 10.2223 0.177477 3
    endloop
  endfacet
  facet normal 0.634414 -0.772994 4.23483e-06
    outer loop
      vertex 10.2223 0.177477 8.40099
      vertex 11.1012 0.898781 3
      vertex 10.4213 0.340802 8.6
    endloop
  endfacet
  facet normal 0.634393 -0.773011 0
    outer loop
      vertex 10.4213 0.340802 8.6
      vertex 11.1012 0.898781 3
      vertex 11.1012 0.898781 10.6
    endloop
  endfacet
  facet normal -0.995184 -0.0980215 0
    outer loop
      vertex 1.31145 3.86848 3
      vertex 1.2 5 10.6
      vertex 1.2 5 3
    endloop
  endfacet
  facet normal -0.995184 -0.0980215 0
    outer loop
      vertex 1.2 5 10.6
      vertex 1.31145 3.86848 3
      vertex 1.31145 3.86848 10.6
    endloop
  endfacet
  facet normal -0.290289 -0.956939 0
    outer loop
      vertex 4.78044 -0.3585 3
      vertex 5.2 -0.485774 7.6
      vertex 4.78044 -0.3585 8.01956
    endloop
  endfacet
  facet normal -0.290289 -0.956939 -0
    outer loop
      vertex 5.2 -0.485774 7.6
      vertex 4.78044 -0.3585 3
      vertex 5.2 -0.485774 3
    endloop
  endfacet
  facet normal -0.290289 -0.956939 0
    outer loop
      vertex 4.78044 -0.3585 10.6
      vertex 5.2 -0.485774 9.6
      vertex 5.2 -0.485774 10.6
    endloop
  endfacet
  facet normal -0.290289 -0.956939 0
    outer loop
      vertex 5.2 -0.485774 9.6
      vertex 4.78044 -0.3585 10.6
      vertex 4.78044 -0.3585 9.18044
    endloop
  endfacet
  facet normal 0.471396 -0.881922 0
    outer loop
      vertex 4.77772 8.32588 3
      vertex 5.46927 8.69552 10.6
      vertex 4.77772 8.32588 10.6
    endloop
  endfacet
  facet normal 0.471396 -0.881922 0
    outer loop
      vertex 5.46927 8.69552 10.6
      vertex 4.77772 8.32588 3
      vertex 5.46927 8.69552 3
    endloop
  endfacet
  facet normal -0.471396 -0.881922 0
    outer loop
      vertex 8.53073 8.69552 3
      vertex 9.22228 8.32588 10.6
      vertex 8.53073 8.69552 10.6
    endloop
  endfacet
  facet normal -0.471396 -0.881922 -0
    outer loop
      vertex 9.22228 8.32588 10.6
      vertex 8.53073 8.69552 3
      vertex 9.22228 8.32588 3
    endloop
  endfacet
  facet normal -0.956948 -0.290259 0
    outer loop
      vertex 10.9231 5.78036 3
      vertex 10.6955 6.53073 10.6
      vertex 10.6955 6.53073 3
    endloop
  endfacet
  facet normal -0.956948 -0.290259 0
    outer loop
      vertex 10.6955 6.53073 10.6
      vertex 10.9231 5.78036 3
      vertex 10.9231 5.78036 10.6
    endloop
  endfacet
  facet normal -0.99518 -0.0980692 0
    outer loop
      vertex 11 5 3
      vertex 10.9231 5.78036 10.6
      vertex 10.9231 5.78036 3
    endloop
  endfacet
  facet normal -0.99518 -0.0980692 0
    outer loop
      vertex 10.9231 5.78036 10.6
      vertex 11 5 3
      vertex 11 5 10.6
    endloop
  endfacet
  facet normal -0.881943 -0.471356 0
    outer loop
      vertex 10.6955 6.53073 3
      vertex 10.3259 7.22228 10.6
      vertex 10.3259 7.22228 3
    endloop
  endfacet
  facet normal -0.881943 -0.471356 0
    outer loop
      vertex 10.3259 7.22228 10.6
      vertex 10.6955 6.53073 3
      vertex 10.6955 6.53073 10.6
    endloop
  endfacet
  facet normal -0.0980187 -0.995185 0
    outer loop
      vertex 7 9 3
      vertex 7.78036 8.92314 10.6
      vertex 7 9 10.6
    endloop
  endfacet
  facet normal -0.0980187 -0.995185 -0
    outer loop
      vertex 7.78036 8.92314 10.6
      vertex 7 9 3
      vertex 7.78036 8.92314 3
    endloop
  endfacet
  facet normal -0.290282 -0.956941 0
    outer loop
      vertex 7.78036 8.92314 3
      vertex 8.53073 8.69552 10.6
      vertex 7.78036 8.92314 10.6
    endloop
  endfacet
  facet normal -0.290282 -0.956941 -0
    outer loop
      vertex 8.53073 8.69552 10.6
      vertex 7.78036 8.92314 3
      vertex 8.53073 8.69552 3
    endloop
  endfacet
  facet normal -0.63439 -0.773013 0
    outer loop
      vertex 9.22228 8.32588 3
      vertex 9.82843 7.82843 10.6
      vertex 9.22228 8.32588 10.6
    endloop
  endfacet
  facet normal -0.63439 -0.773013 -0
    outer loop
      vertex 9.82843 7.82843 10.6
      vertex 9.22228 8.32588 3
      vertex 9.82843 7.82843 3
    endloop
  endfacet
  facet normal -0.773001 0.634405 0
    outer loop
      vertex 9.82843 2.17157 8.00711
      vertex 10.3259 2.77772 3
      vertex 9.82843 2.17157 3
    endloop
  endfacet
  facet normal -0.773001 0.634405 0
    outer loop
      vertex 10.3259 2.77772 3
      vertex 9.82843 2.17157 8.00711
      vertex 10.3259 2.77772 8.50456
    endloop
  endfacet
  facet normal -0.773001 0.634405 0
    outer loop
      vertex 9.82843 2.17157 9.19289
      vertex 10.3259 2.77772 10.6
      vertex 10.3259 2.77772 8.69544
    endloop
  endfacet
  facet normal -0.773001 0.634405 0
    outer loop
      vertex 10.3259 2.77772 10.6
      vertex 9.82843 2.17157 9.19289
      vertex 9.82843 2.17157 10.6
    endloop
  endfacet
  facet normal 0.63439 -0.773013 0
    outer loop
      vertex 4.17157 7.82843 3
      vertex 4.77772 8.32588 10.6
      vertex 4.17157 7.82843 10.6
    endloop
  endfacet
  facet normal 0.63439 -0.773013 0
    outer loop
      vertex 4.77772 8.32588 10.6
      vertex 4.17157 7.82843 3
      vertex 4.77772 8.32588 3
    endloop
  endfacet
  facet normal -0.471391 0.881924 0
    outer loop
      vertex 8.8 1.44841 3
      vertex 9.22228 1.67412 7.67772
      vertex 9.22228 1.67412 3
    endloop
  endfacet
  facet normal -0.471391 0.881924 0
    outer loop
      vertex 9.22228 1.67412 7.67772
      vertex 8.8 1.44841 3
      vertex 8.8 1.44841 8.1
    endloop
  endfacet
  facet normal -0.471391 0.881924 0
    outer loop
      vertex 9.22228 1.67412 9.52228
      vertex 8.8 1.44841 10.6
      vertex 9.22228 1.67412 10.6
    endloop
  endfacet
  facet normal -0.471391 0.881924 0
    outer loop
      vertex 8.8 1.44841 10.6
      vertex 9.22228 1.67412 9.52228
      vertex 8.8 1.44841 9.1
    endloop
  endfacet
  facet normal 0.881922 0.471396 0
    outer loop
      vertex 3.67412 2.77772 10.6
      vertex 3.30448 3.46927 3
      vertex 3.30448 3.46927 10.6
    endloop
  endfacet
  facet normal 0.881922 0.471396 0
    outer loop
      vertex 3.30448 3.46927 3
      vertex 3.67412 2.77772 10.6
      vertex 3.67412 2.77772 3
    endloop
  endfacet
  facet normal -0.99518 0.0980692 0
    outer loop
      vertex 10.9231 4.21964 3
      vertex 11 5 10.6
      vertex 11 5 3
    endloop
  endfacet
  facet normal -0.99518 0.0980692 0
    outer loop
      vertex 11 5 10.6
      vertex 10.9231 4.21964 3
      vertex 10.9231 4.21964 10.6
    endloop
  endfacet
  facet normal 0.290282 -0.956941 0
    outer loop
      vertex 5.46927 8.69552 3
      vertex 6.21964 8.92314 10.6
      vertex 5.46927 8.69552 10.6
    endloop
  endfacet
  facet normal 0.290282 -0.956941 0
    outer loop
      vertex 6.21964 8.92314 10.6
      vertex 5.46927 8.69552 3
      vertex 6.21964 8.92314 3
    endloop
  endfacet
  facet normal 0.881922 -0.471396 0
    outer loop
      vertex 3.30448 6.53073 10.6
      vertex 3.67412 7.22228 3
      vertex 3.67412 7.22228 10.6
    endloop
  endfacet
  facet normal 0.881922 -0.471396 0
    outer loop
      vertex 3.67412 7.22228 3
      vertex 3.30448 6.53073 10.6
      vertex 3.30448 6.53073 3
    endloop
  endfacet
  facet normal -0.956948 0.290259 0
    outer loop
      vertex 10.6955 3.46927 3
      vertex 10.9231 4.21964 10.6
      vertex 10.9231 4.21964 3
    endloop
  endfacet
  facet normal -0.956948 0.290259 0
    outer loop
      vertex 10.9231 4.21964 10.6
      vertex 10.6955 3.46927 3
      vertex 10.6955 3.46927 10.6
    endloop
  endfacet
  facet normal -0.773001 -0.634405 0
    outer loop
      vertex 10.3259 7.22228 3
      vertex 9.82843 7.82843 10.6
      vertex 9.82843 7.82843 3
    endloop
  endfacet
  facet normal -0.773001 -0.634405 0
    outer loop
      vertex 9.82843 7.82843 10.6
      vertex 10.3259 7.22228 3
      vertex 10.3259 7.22228 10.6
    endloop
  endfacet
  facet normal 0.995185 -0.0980187 0
    outer loop
      vertex 3 5 10.6
      vertex 3.07686 5.78036 3
      vertex 3.07686 5.78036 10.6
    endloop
  endfacet
  facet normal 0.995185 -0.0980187 0
    outer loop
      vertex 3.07686 5.78036 3
      vertex 3 5 10.6
      vertex 3 5 3
    endloop
  endfacet
  facet normal -0.634384 0.773018 0
    outer loop
      vertex 9.82843 2.17157 8.00711
      vertex 9.82843 2.17157 3
      vertex 9.36066 1.78769 7.53934
    endloop
  endfacet
  facet normal -0.63439 0.773013 -9.33986e-07
    outer loop
      vertex 9.22228 1.67412 3
      vertex 9.36066 1.78769 7.53934
      vertex 9.82843 2.17157 3
    endloop
  endfacet
  facet normal -0.634408 0.772998 0
    outer loop
      vertex 9.36066 1.78769 7.53934
      vertex 9.22228 1.67412 3
      vertex 9.22228 1.67412 7.67772
    endloop
  endfacet
  facet normal -0.63439 0.773013 4.51347e-06
    outer loop
      vertex 9.82843 2.17157 10.6
      vertex 9.36066 1.78769 9.66066
      vertex 9.22228 1.67412 10.6
    endloop
  endfacet
  facet normal -0.634384 0.773018 0
    outer loop
      vertex 9.36066 1.78769 9.66066
      vertex 9.82843 2.17157 10.6
      vertex 9.82843 2.17157 9.19289
    endloop
  endfacet
  facet normal -0.634408 0.772998 0
    outer loop
      vertex 9.22228 1.67412 10.6
      vertex 9.36066 1.78769 9.66066
      vertex 9.22228 1.67412 9.52228
    endloop
  endfacet
  facet normal 0.63439 0.773013 -0
    outer loop
      vertex 4.77772 1.67412 9.17772
      vertex 4.17157 2.17157 10.6
      vertex 4.77772 1.67412 10.6
    endloop
  endfacet
  facet normal 0.634391 0.773012 6.75475e-07
    outer loop
      vertex 4.2 2.14824 8.6
      vertex 4.17157 2.17157 10.6
      vertex 4.77772 1.67412 9.17772
    endloop
  endfacet
  facet normal 0.63439 0.773013 0
    outer loop
      vertex 4.17157 2.17157 3
      vertex 4.77772 1.67412 8.02228
      vertex 4.77772 1.67412 3
    endloop
  endfacet
  facet normal 0.634362 0.773036 0
    outer loop
      vertex 4.2 2.14824 8.6
      vertex 4.17157 2.17157 3
      vertex 4.17157 2.17157 10.6
    endloop
  endfacet
  facet normal 0.634391 0.773012 -2.43434e-07
    outer loop
      vertex 4.77772 1.67412 8.02228
      vertex 4.17157 2.17157 3
      vertex 4.2 2.14824 8.6
    endloop
  endfacet
  facet normal 0.0980187 -0.995185 0
    outer loop
      vertex 6.21964 8.92314 3
      vertex 7 9 10.6
      vertex 6.21964 8.92314 10.6
    endloop
  endfacet
  facet normal 0.0980187 -0.995185 0
    outer loop
      vertex 7 9 10.6
      vertex 6.21964 8.92314 3
      vertex 7 9 3
    endloop
  endfacet
  facet normal -0.88192 0.471398 0
    outer loop
      vertex 10.6955 3.46927 3
      vertex 10.4213 2.95628 8.6
      vertex 10.6955 3.46927 10.6
    endloop
  endfacet
  facet normal -0.881943 0.471356 0
    outer loop
      vertex 10.3259 2.77772 8.50456
      vertex 10.6955 3.46927 3
      vertex 10.3259 2.77772 3
    endloop
  endfacet
  facet normal -0.882004 0.471242 -1.84205e-05
    outer loop
      vertex 10.6955 3.46927 3
      vertex 10.3259 2.77772 8.50456
      vertex 10.4213 2.95628 8.6
    endloop
  endfacet
  facet normal -0.881998 0.471254 4.75794e-05
    outer loop
      vertex 10.3259 2.77772 8.69544
      vertex 10.6955 3.46927 10.6
      vertex 10.4213 2.95628 8.6
    endloop
  endfacet
  facet normal -0.881943 0.471356 0
    outer loop
      vertex 10.6955 3.46927 10.6
      vertex 10.3259 2.77772 8.69544
      vertex 10.3259 2.77772 10.6
    endloop
  endfacet
  facet normal 0.956941 0.290282 0
    outer loop
      vertex 3.30448 3.46927 10.6
      vertex 3.07686 4.21964 3
      vertex 3.07686 4.21964 10.6
    endloop
  endfacet
  facet normal 0.956941 0.290282 0
    outer loop
      vertex 3.07686 4.21964 3
      vertex 3.30448 3.46927 10.6
      vertex 3.30448 3.46927 3
    endloop
  endfacet
  facet normal 0.995185 0.0980187 0
    outer loop
      vertex 3.07686 4.21964 10.6
      vertex 3 5 3
      vertex 3 5 10.6
    endloop
  endfacet
  facet normal 0.995185 0.0980187 0
    outer loop
      vertex 3 5 3
      vertex 3.07686 4.21964 10.6
      vertex 3.07686 4.21964 3
    endloop
  endfacet
  facet normal 0.773013 0.63439 0
    outer loop
      vertex 4.17157 2.17157 10.6
      vertex 3.67412 2.77772 3
      vertex 3.67412 2.77772 10.6
    endloop
  endfacet
  facet normal 0.773013 0.63439 0
    outer loop
      vertex 3.67412 2.77772 3
      vertex 4.17157 2.17157 10.6
      vertex 4.17157 2.17157 3
    endloop
  endfacet
  facet normal 0.773013 -0.63439 0
    outer loop
      vertex 3.67412 7.22228 10.6
      vertex 4.17157 7.82843 3
      vertex 4.17157 7.82843 10.6
    endloop
  endfacet
  facet normal 0.773013 -0.63439 0
    outer loop
      vertex 4.17157 7.82843 3
      vertex 3.67412 7.22228 10.6
      vertex 3.67412 7.22228 3
    endloop
  endfacet
  facet normal 0.956941 -0.290282 0
    outer loop
      vertex 3.07686 5.78036 10.6
      vertex 3.30448 6.53073 3
      vertex 3.30448 6.53073 10.6
    endloop
  endfacet
  facet normal 0.956941 -0.290282 0
    outer loop
      vertex 3.30448 6.53073 3
      vertex 3.07686 5.78036 10.6
      vertex 3.07686 5.78036 3
    endloop
  endfacet
  facet normal 0.471391 0.881924 0
    outer loop
      vertex 4.77772 1.67412 3
      vertex 5.2 1.44841 7.6
      vertex 5.2 1.44841 3
    endloop
  endfacet
  facet normal 0.471391 0.881924 0
    outer loop
      vertex 5.2 1.44841 7.6
      vertex 4.77772 1.67412 3
      vertex 4.77772 1.67412 8.02228
    endloop
  endfacet
  facet normal 0.471391 0.881924 -0
    outer loop
      vertex 5.2 1.44841 9.6
      vertex 4.77772 1.67412 10.6
      vertex 5.2 1.44841 10.6
    endloop
  endfacet
  facet normal 0.471391 0.881924 0
    outer loop
      vertex 4.77772 1.67412 10.6
      vertex 5.2 1.44841 9.6
      vertex 4.77772 1.67412 9.17772
    endloop
  endfacet
  facet normal -1 0 0
    outer loop
      vertex 8.8 0 3
      vertex 8.8 1.44841 8.1
      vertex 8.8 1.44841 3
    endloop
  endfacet
  facet normal -1 0 0
    outer loop
      vertex 8.8 -0.485774 8.1
      vertex 8.8 0 3
      vertex 8.8 -0.485774 3
    endloop
  endfacet
  facet normal -1 0 0
    outer loop
      vertex 8.8 0 3
      vertex 8.8 -0.485774 8.1
      vertex 8.8 1.44841 8.1
    endloop
  endfacet
  facet normal -1 0 0
    outer loop
      vertex 8.8 -0.485774 9.1
      vertex 8.8 1.44841 10.6
      vertex 8.8 1.44841 9.1
    endloop
  endfacet
  facet normal -1 -0 0
    outer loop
      vertex 8.8 1.44841 10.6
      vertex 8.8 -0.485774 9.1
      vertex 8.8 -0.485774 10.6
    endloop
  endfacet
  facet normal 1 0 0
    outer loop
      vertex 5.2 1.44841 7.6
      vertex 5.2 0 3
      vertex 5.2 1.44841 3
    endloop
  endfacet
  facet normal 1 -0 0
    outer loop
      vertex 5.2 -0.485774 7.6
      vertex 5.2 0 3
      vertex 5.2 1.44841 7.6
    endloop
  endfacet
  facet normal 1 0 0
    outer loop
      vertex 5.2 0 3
      vertex 5.2 -0.485774 7.6
      vertex 5.2 -0.485774 3
    endloop
  endfacet
  facet normal 1 -0 0
    outer loop
      vertex 5.2 -0.485774 10.6
      vertex 5.2 1.44841 9.6
      vertex 5.2 1.44841 10.6
    endloop
  endfacet
  facet normal 1 0 0
    outer loop
      vertex 5.2 1.44841 9.6
      vertex 5.2 -0.485774 10.6
      vertex 5.2 -0.485774 9.6
    endloop
  endfacet
  facet normal 0.707107 0 -0.707107
    outer loop
      vertex 4.77772 1.67412 9.17772
      vertex 4.2 -0.0482513 8.6
      vertex 4.2 2.14824 8.6
    endloop
  endfacet
  facet normal 0.707107 7.32217e-16 -0.707107
    outer loop
      vertex 5.2 1.44841 9.6
      vertex 4.2 -0.0482513 8.6
      vertex 4.77772 1.67412 9.17772
    endloop
  endfacet
  facet normal 0.707107 -1.0654e-15 -0.707107
    outer loop
      vertex 5.2 1.44841 9.6
      vertex 4.78044 -0.3585 9.18044
      vertex 4.2 -0.0482513 8.6
    endloop
  endfacet
  facet normal 0.707107 0 -0.707107
    outer loop
      vertex 4.78044 -0.3585 9.18044
      vertex 5.2 1.44841 9.6
      vertex 5.2 -0.485774 9.6
    endloop
  endfacet
  facet normal 0.707107 -0 0.707107
    outer loop
      vertex 4.2 -0.0482513 8.6
      vertex 4.77772 1.67412 8.02228
      vertex 4.2 2.14824 8.6
    endloop
  endfacet
  facet normal 0.707107 -7.32217e-16 0.707107
    outer loop
      vertex 4.2 -0.0482513 8.6
      vertex 5.2 1.44841 7.6
      vertex 4.77772 1.67412 8.02228
    endloop
  endfacet
  facet normal 0.707107 0 0.707107
    outer loop
      vertex 4.78044 -0.3585 8.01956
      vertex 5.2 1.44841 7.6
      vertex 4.2 -0.0482513 8.6
    endloop
  endfacet
  facet normal 0.707107 0 0.707107
    outer loop
      vertex 5.2 1.44841 7.6
      vertex 4.78044 -0.3585 8.01956
      vertex 5.2 -0.485774 7.6
    endloop
  endfacet
  facet normal -0.707255 0 0.706959
    outer loop
      vertex 10.3259 2.77772 8.50456
      vertex 10.4213 0.340802 8.6
      vertex 10.4213 2.95628 8.6
    endloop
  endfacet
  facet normal -0.7071 1.21405e-05 0.707114
    outer loop
      vertex 9.82843 2.17157 8.00711
      vertex 10.4213 0.340802 8.6
      vertex 10.3259 2.77772 8.50456
    endloop
  endfacet
  facet normal -0.707109 6.1028e-06 0.707104
    outer loop
      vertex 9.36066 1.78769 7.53934
      vertex 10.4213 0.340802 8.6
      vertex 9.82843 2.17157 8.00711
    endloop
  endfacet
  facet normal -0.70712 -1.01602e-05 0.707093
    outer loop
      vertex 9.36066 1.78769 7.53934
      vertex 10.2223 0.177477 8.40099
      vertex 10.4213 0.340802 8.6
    endloop
  endfacet
  facet normal -0.707111 0 0.707103
    outer loop
      vertex 10.2223 0.177477 8.40099
      vertex 9.36066 1.78769 7.53934
      vertex 9.36066 -0.283083 7.53934
    endloop
  endfacet
  facet normal -0.707255 0 -0.706959
    outer loop
      vertex 10.4213 0.340802 8.6
      vertex 10.3259 2.77772 8.69544
      vertex 10.4213 2.95628 8.6
    endloop
  endfacet
  facet normal -0.7071 1.21405e-05 -0.707114
    outer loop
      vertex 10.4213 0.340802 8.6
      vertex 9.82843 2.17157 9.19289
      vertex 10.3259 2.77772 8.69544
    endloop
  endfacet
  facet normal -0.707109 6.1028e-06 -0.707104
    outer loop
      vertex 10.4213 0.340802 8.6
      vertex 9.36066 1.78769 9.66066
      vertex 9.82843 2.17157 9.19289
    endloop
  endfacet
  facet normal -0.70712 -1.01602e-05 -0.707093
    outer loop
      vertex 10.2223 0.177477 8.79901
      vertex 9.36066 1.78769 9.66066
      vertex 10.4213 0.340802 8.6
    endloop
  endfacet
  facet normal -0.707111 -0 -0.707103
    outer loop
      vertex 9.36066 1.78769 9.66066
      vertex 10.2223 0.177477 8.79901
      vertex 9.36066 -0.283083 9.66066
    endloop
  endfacet
  facet normal 0.707107 0 0.707107
    outer loop
      vertex 9.22228 1.67412 7.67772
      vertex 9.36066 -0.283083 7.53934
      vertex 9.36066 1.78769 7.53934
    endloop
  endfacet
  facet normal 0.707107 9.15269e-17 0.707107
    outer loop
      vertex 8.8 1.44841 8.1
      vertex 9.36066 -0.283083 7.53934
      vertex 9.22228 1.67412 7.67772
    endloop
  endfacet
  facet normal 0.707107 -2.7392e-16 0.707107
    outer loop
      vertex 8.8 1.44841 8.1
      vertex 9.21956 -0.3585 7.68044
      vertex 9.36066 -0.283083 7.53934
    endloop
  endfacet
  facet normal 0.707107 0 0.707107
    outer loop
      vertex 9.21956 -0.3585 7.68044
      vertex 8.8 1.44841 8.1
      vertex 8.8 -0.485774 8.1
    endloop
  endfacet
  facet normal 0.707107 0 -0.707107
    outer loop
      vertex 9.36066 -0.283083 9.66066
      vertex 9.22228 1.67412 9.52228
      vertex 9.36066 1.78769 9.66066
    endloop
  endfacet
  facet normal 0.707107 2.05936e-16 -0.707107
    outer loop
      vertex 9.36066 -0.283083 9.66066
      vertex 8.8 1.44841 9.1
      vertex 9.22228 1.67412 9.52228
    endloop
  endfacet
  facet normal 0.707107 -6.1632e-16 -0.707107
    outer loop
      vertex 9.21956 -0.3585 9.51956
      vertex 8.8 1.44841 9.1
      vertex 9.36066 -0.283083 9.66066
    endloop
  endfacet
  facet normal 0.707107 0 -0.707107
    outer loop
      vertex 8.8 1.44841 9.1
      vertex 9.21956 -0.3585 9.51956
      vertex 8.8 -0.485774 9.1
    endloop
  endfacet
  facet normal 1 -0 0
    outer loop
      vertex 14 0 3
      vertex 14 10 0
      vertex 14 10 3
    endloop
  endfacet
  facet normal 1 0 0
    outer loop
      vertex 14 10 0
      vertex 14 0 3
      vertex 14 0 0
    endloop
  endfacet
  facet normal 0 0 -1
    outer loop
      vertex 14 0 0
      vertex 10 5 0
      vertex 14 10 0
    endloop
  endfacet
  facet normal 0 0 -1
    outer loop
      vertex 14 0 0
      vertex 9.94236 4.41473 0
      vertex 10 5 0
    endloop
  endfacet
  facet normal 0 0 -1
    outer loop
      vertex 14 0 0
      vertex 9.77164 3.85195 0
      vertex 9.94236 4.41473 0
    endloop
  endfacet
  facet normal 0 0 -1
    outer loop
      vertex 14 0 0
      vertex 9.49441 3.33329 0
      vertex 9.77164 3.85195 0
    endloop
  endfacet
  facet normal 0 0 -1
    outer loop
      vertex 14 0 0
      vertex 9.12132 2.87868 0
      vertex 9.49441 3.33329 0
    endloop
  endfacet
  facet normal 0 0 -1
    outer loop
      vertex 14 0 0
      vertex 8.66671 2.50559 0
      vertex 9.12132 2.87868 0
    endloop
  endfacet
  facet normal 0 0 -1
    outer loop
      vertex 14 0 0
      vertex 8.14805 2.22836 0
      vertex 8.66671 2.50559 0
    endloop
  endfacet
  facet normal 0 0 -1
    outer loop
      vertex 14 0 0
      vertex 7.58527 2.05764 0
      vertex 8.14805 2.22836 0
    endloop
  endfacet
  facet normal 0 0 -1
    outer loop
      vertex 14 0 0
      vertex 7 2 0
      vertex 7.58527 2.05764 0
    endloop
  endfacet
  facet normal 0 0 -1
    outer loop
      vertex 0 0 0
      vertex 7 2 0
      vertex 14 0 0
    endloop
  endfacet
  facet normal -0 0 -1
    outer loop
      vertex 4.05764 4.41473 0
      vertex 0 0 0
      vertex 4 5 0
    endloop
  endfacet
  facet normal -0 0 -1
    outer loop
      vertex 4.22836 3.85195 0
      vertex 0 0 0
      vertex 4.05764 4.41473 0
    endloop
  endfacet
  facet normal -0 0 -1
    outer loop
      vertex 4.50559 3.33329 0
      vertex 0 0 0
      vertex 4.22836 3.85195 0
    endloop
  endfacet
  facet normal -0 0 -1
    outer loop
      vertex 4.87868 2.87868 0
      vertex 0 0 0
      vertex 4.50559 3.33329 0
    endloop
  endfacet
  facet normal -0 0 -1
    outer loop
      vertex 5.33329 2.50559 0
      vertex 0 0 0
      vertex 4.87868 2.87868 0
    endloop
  endfacet
  facet normal -0 0 -1
    outer loop
      vertex 5.85195 2.22836 0
      vertex 0 0 0
      vertex 5.33329 2.50559 0
    endloop
  endfacet
  facet normal -0 0 -1
    outer loop
      vertex 6.41473 2.05764 0
      vertex 0 0 0
      vertex 5.85195 2.22836 0
    endloop
  endfacet
  facet normal -0 0 -1
    outer loop
      vertex 7 2 0
      vertex 0 0 0
      vertex 6.41473 2.05764 0
    endloop
  endfacet
  facet normal 0 0 -1
    outer loop
      vertex 9.94236 5.58527 0
      vertex 14 10 0
      vertex 10 5 0
    endloop
  endfacet
  facet normal 0 0 -1
    outer loop
      vertex 9.77164 6.14805 0
      vertex 14 10 0
      vertex 9.94236 5.58527 0
    endloop
  endfacet
  facet normal 0 0 -1
    outer loop
      vertex 9.49441 6.66671 0
      vertex 14 10 0
      vertex 9.77164 6.14805 0
    endloop
  endfacet
  facet normal 0 0 -1
    outer loop
      vertex 9.12132 7.12132 0
      vertex 14 10 0
      vertex 9.49441 6.66671 0
    endloop
  endfacet
  facet normal 0 0 -1
    outer loop
      vertex 8.66671 7.49441 0
      vertex 14 10 0
      vertex 9.12132 7.12132 0
    endloop
  endfacet
  facet normal 0 0 -1
    outer loop
      vertex 8.14805 7.77164 0
      vertex 14 10 0
      vertex 8.66671 7.49441 0
    endloop
  endfacet
  facet normal 0 0 -1
    outer loop
      vertex 7.58527 7.94236 0
      vertex 14 10 0
      vertex 8.14805 7.77164 0
    endloop
  endfacet
  facet normal 0 0 -1
    outer loop
      vertex 7 8 0
      vertex 14 10 0
      vertex 7.58527 7.94236 0
    endloop
  endfacet
  facet normal 0 0 -1
    outer loop
      vertex 0 10 0
      vertex 7 8 0
      vertex 6.41473 7.94236 0
    endloop
  endfacet
  facet normal 0 0 -1
    outer loop
      vertex 0 10 0
      vertex 4 5 0
      vertex 0 0 0
    endloop
  endfacet
  facet normal 0 0 -1
    outer loop
      vertex 4 5 0
      vertex 0 10 0
      vertex 4.05764 5.58527 0
    endloop
  endfacet
  facet normal 0 0 -1
    outer loop
      vertex 4.05764 5.58527 0
      vertex 0 10 0
      vertex 4.22836 6.14805 0
    endloop
  endfacet
  facet normal 0 0 -1
    outer loop
      vertex 7 8 0
      vertex 0 10 0
      vertex 14 10 0
    endloop
  endfacet
  facet normal 0 0 -1
    outer loop
      vertex 5.85195 7.77164 0
      vertex 0 10 0
      vertex 6.41473 7.94236 0
    endloop
  endfacet
  facet normal 0 0 -1
    outer loop
      vertex 5.33329 7.49441 0
      vertex 0 10 0
      vertex 5.85195 7.77164 0
    endloop
  endfacet
  facet normal 0 0 -1
    outer loop
      vertex 4.87868 7.12132 0
      vertex 0 10 0
      vertex 5.33329 7.49441 0
    endloop
  endfacet
  facet normal 0 0 -1
    outer loop
      vertex 4.50559 6.66671 0
      vertex 0 10 0
      vertex 4.87868 7.12132 0
    endloop
  endfacet
  facet normal 0 0 -1
    outer loop
      vertex 4.22836 6.14805 0
      vertex 0 10 0
      vertex 4.50559 6.66671 0
    endloop
  endfacet
  facet normal -1 0 0
    outer loop
      vertex 0 0 0
      vertex 0 10 3
      vertex 0 10 0
    endloop
  endfacet
  facet normal -1 -0 0
    outer loop
      vertex 0 10 3
      vertex 0 0 0
      vertex 0 0 3
    endloop
  endfacet
  facet normal 0 1 -0
    outer loop
      vertex 14 10 0
      vertex 9.89027 10 3
      vertex 14 10 3
    endloop
  endfacet
  facet normal 0 1 0
    outer loop
      vertex 9.89027 10 3
      vertex 14 10 0
      vertex 4.10973 10 3
    endloop
  endfacet
  facet normal 0 1 0
    outer loop
      vertex 0 10 0
      vertex 4.10973 10 3
      vertex 14 10 0
    endloop
  endfacet
  facet normal 0 1 0
    outer loop
      vertex 4.10973 10 3
      vertex 0 10 0
      vertex 0 10 3
    endloop
  endfacet
  facet normal 0 -1 0
    outer loop
      vertex 0 0 0
      vertex 4.10973 0 3
      vertex 0 0 3
    endloop
  endfacet
  facet normal 0 -1 -0
    outer loop
      vertex 4.10973 0 3
      vertex 0 0 0
      vertex 5.2 0 3
    endloop
  endfacet
  facet normal 0 -1 -0
    outer loop
      vertex 5.2 0 3
      vertex 0 0 0
      vertex 8.8 0 3
    endloop
  endfacet
  facet normal 0 -1 0
    outer loop
      vertex 14 0 0
      vertex 8.8 0 3
      vertex 0 0 0
    endloop
  endfacet
  facet normal 0 -1 0
    outer loop
      vertex 8.8 0 3
      vertex 14 0 0
      vertex 9.89027 0 3
    endloop
  endfacet
  facet normal 0 -1 0
    outer loop
      vertex 9.89027 0 3
      vertex 14 0 0
      vertex 14 0 3
    endloop
  endfacet
  facet normal 0.956941 -0.290284 0
    outer loop
      vertex 5.33267 5.33165 3
      vertex 5.42941 5.65056 1.7
      vertex 5.42941 5.65056 3
    endloop
  endfacet
  facet normal 0.956941 -0.290284 0
    outer loop
      vertex 5.42941 5.65056 1.7
      vertex 5.33267 5.33165 3
      vertex 5.33267 5.33165 1.7
    endloop
  endfacet
  facet normal -0.098033 0.995183 0
    outer loop
      vertex 7.33165 3.33267 1.7
      vertex 7 3.3 3
      vertex 7.33165 3.33267 3
    endloop
  endfacet
  facet normal -0.098033 0.995183 0
    outer loop
      vertex 7 3.3 3
      vertex 7.33165 3.33267 1.7
      vertex 7 3.3 1.7
    endloop
  endfacet
  facet normal -0.956941 -0.290284 0
    outer loop
      vertex 8.66733 5.33165 1.7
      vertex 8.57059 5.65056 3
      vertex 8.57059 5.65056 1.7
    endloop
  endfacet
  facet normal -0.956941 -0.290284 0
    outer loop
      vertex 8.57059 5.65056 3
      vertex 8.66733 5.33165 1.7
      vertex 8.66733 5.33165 3
    endloop
  endfacet
  facet normal -0.995183 -0.098033 0
    outer loop
      vertex 8.7 5 1.7
      vertex 8.66733 5.33165 3
      vertex 8.66733 5.33165 1.7
    endloop
  endfacet
  facet normal -0.995183 -0.098033 0
    outer loop
      vertex 8.66733 5.33165 3
      vertex 8.7 5 1.7
      vertex 8.7 5 3
    endloop
  endfacet
  facet normal -0.881931 -0.471378 0
    outer loop
      vertex 8.57059 5.65056 1.7
      vertex 8.4135 5.94447 3
      vertex 8.4135 5.94447 1.7
    endloop
  endfacet
  facet normal -0.881931 -0.471378 0
    outer loop
      vertex 8.4135 5.94447 3
      vertex 8.57059 5.65056 1.7
      vertex 8.57059 5.65056 3
    endloop
  endfacet
  facet normal 0.634402 -0.773003 0
    outer loop
      vertex 5.79792 6.20208 1.7
      vertex 6.05553 6.4135 3
      vertex 5.79792 6.20208 3
    endloop
  endfacet
  facet normal 0.634402 -0.773003 0
    outer loop
      vertex 6.05553 6.4135 3
      vertex 5.79792 6.20208 1.7
      vertex 6.05553 6.4135 1.7
    endloop
  endfacet
  facet normal 0.773003 -0.634402 0
    outer loop
      vertex 5.5865 5.94447 3
      vertex 5.79792 6.20208 1.7
      vertex 5.79792 6.20208 3
    endloop
  endfacet
  facet normal 0.773003 -0.634402 0
    outer loop
      vertex 5.79792 6.20208 1.7
      vertex 5.5865 5.94447 3
      vertex 5.5865 5.94447 1.7
    endloop
  endfacet
  facet normal -0.098033 -0.995183 0
    outer loop
      vertex 7 6.7 1.7
      vertex 7.33165 6.66733 3
      vertex 7 6.7 3
    endloop
  endfacet
  facet normal -0.098033 -0.995183 -0
    outer loop
      vertex 7.33165 6.66733 3
      vertex 7 6.7 1.7
      vertex 7.33165 6.66733 1.7
    endloop
  endfacet
  facet normal 0.881931 0.471378 0
    outer loop
      vertex 5.5865 4.05553 3
      vertex 5.42941 4.34944 1.7
      vertex 5.42941 4.34944 3
    endloop
  endfacet
  facet normal 0.881931 0.471378 0
    outer loop
      vertex 5.42941 4.34944 1.7
      vertex 5.5865 4.05553 3
      vertex 5.5865 4.05553 1.7
    endloop
  endfacet
  facet normal -0.773003 -0.634402 0
    outer loop
      vertex 8.4135 5.94447 1.7
      vertex 8.20208 6.20208 3
      vertex 8.20208 6.20208 1.7
    endloop
  endfacet
  facet normal -0.773003 -0.634402 0
    outer loop
      vertex 8.20208 6.20208 3
      vertex 8.4135 5.94447 1.7
      vertex 8.4135 5.94447 3
    endloop
  endfacet
  facet normal -0.881931 0.471378 0
    outer loop
      vertex 8.4135 4.05553 1.7
      vertex 8.57059 4.34944 3
      vertex 8.57059 4.34944 1.7
    endloop
  endfacet
  facet normal -0.881931 0.471378 0
    outer loop
      vertex 8.57059 4.34944 3
      vertex 8.4135 4.05553 1.7
      vertex 8.4135 4.05553 3
    endloop
  endfacet
  facet normal -0.290284 0.956941 0
    outer loop
      vertex 7.65056 3.42941 1.7
      vertex 7.33165 3.33267 3
      vertex 7.65056 3.42941 3
    endloop
  endfacet
  facet normal -0.290284 0.956941 0
    outer loop
      vertex 7.33165 3.33267 3
      vertex 7.65056 3.42941 1.7
      vertex 7.33165 3.33267 1.7
    endloop
  endfacet
  facet normal 0.471378 -0.881931 0
    outer loop
      vertex 6.05553 6.4135 1.7
      vertex 6.34944 6.57059 3
      vertex 6.05553 6.4135 3
    endloop
  endfacet
  facet normal 0.471378 -0.881931 0
    outer loop
      vertex 6.34944 6.57059 3
      vertex 6.05553 6.4135 1.7
      vertex 6.34944 6.57059 1.7
    endloop
  endfacet
  facet normal -0.471378 -0.881931 0
    outer loop
      vertex 7.65056 6.57059 1.7
      vertex 7.94447 6.4135 3
      vertex 7.65056 6.57059 3
    endloop
  endfacet
  facet normal -0.471378 -0.881931 -0
    outer loop
      vertex 7.94447 6.4135 3
      vertex 7.65056 6.57059 1.7
      vertex 7.94447 6.4135 1.7
    endloop
  endfacet
  facet normal -0.956941 0.290284 0
    outer loop
      vertex 8.57059 4.34944 1.7
      vertex 8.66733 4.66835 3
      vertex 8.66733 4.66835 1.7
    endloop
  endfacet
  facet normal -0.956941 0.290284 0
    outer loop
      vertex 8.66733 4.66835 3
      vertex 8.57059 4.34944 1.7
      vertex 8.57059 4.34944 3
    endloop
  endfacet
  facet normal -0.471378 0.881931 0
    outer loop
      vertex 7.94447 3.5865 1.7
      vertex 7.65056 3.42941 3
      vertex 7.94447 3.5865 3
    endloop
  endfacet
  facet normal -0.471378 0.881931 0
    outer loop
      vertex 7.65056 3.42941 3
      vertex 7.94447 3.5865 1.7
      vertex 7.65056 3.42941 1.7
    endloop
  endfacet
  facet normal 0.634402 0.773003 -0
    outer loop
      vertex 6.05553 3.5865 1.7
      vertex 5.79792 3.79792 3
      vertex 6.05553 3.5865 3
    endloop
  endfacet
  facet normal 0.634402 0.773003 0
    outer loop
      vertex 5.79792 3.79792 3
      vertex 6.05553 3.5865 1.7
      vertex 5.79792 3.79792 1.7
    endloop
  endfacet
  facet normal -0.290284 -0.956941 0
    outer loop
      vertex 7.33165 6.66733 1.7
      vertex 7.65056 6.57059 3
      vertex 7.33165 6.66733 3
    endloop
  endfacet
  facet normal -0.290284 -0.956941 -0
    outer loop
      vertex 7.65056 6.57059 3
      vertex 7.33165 6.66733 1.7
      vertex 7.65056 6.57059 1.7
    endloop
  endfacet
  facet normal -0.995183 0.098033 0
    outer loop
      vertex 8.66733 4.66835 1.7
      vertex 8.7 5 3
      vertex 8.7 5 1.7
    endloop
  endfacet
  facet normal -0.995183 0.098033 0
    outer loop
      vertex 8.7 5 3
      vertex 8.66733 4.66835 1.7
      vertex 8.66733 4.66835 3
    endloop
  endfacet
  facet normal -0.634402 0.773003 0
    outer loop
      vertex 8.20208 3.79792 1.7
      vertex 7.94447 3.5865 3
      vertex 8.20208 3.79792 3
    endloop
  endfacet
  facet normal -0.634402 0.773003 0
    outer loop
      vertex 7.94447 3.5865 3
      vertex 8.20208 3.79792 1.7
      vertex 7.94447 3.5865 1.7
    endloop
  endfacet
  facet normal 0.290284 -0.956941 0
    outer loop
      vertex 6.34944 6.57059 1.7
      vertex 6.66835 6.66733 3
      vertex 6.34944 6.57059 3
    endloop
  endfacet
  facet normal 0.290284 -0.956941 0
    outer loop
      vertex 6.66835 6.66733 3
      vertex 6.34944 6.57059 1.7
      vertex 6.66835 6.66733 1.7
    endloop
  endfacet
  facet normal -0.634402 -0.773003 0
    outer loop
      vertex 7.94447 6.4135 1.7
      vertex 8.20208 6.20208 3
      vertex 7.94447 6.4135 3
    endloop
  endfacet
  facet normal -0.634402 -0.773003 -0
    outer loop
      vertex 8.20208 6.20208 3
      vertex 7.94447 6.4135 1.7
      vertex 8.20208 6.20208 1.7
    endloop
  endfacet
  facet normal 0.098033 0.995183 -0
    outer loop
      vertex 7 3.3 1.7
      vertex 6.66835 3.33267 3
      vertex 7 3.3 3
    endloop
  endfacet
  facet normal 0.098033 0.995183 0
    outer loop
      vertex 6.66835 3.33267 3
      vertex 7 3.3 1.7
      vertex 6.66835 3.33267 1.7
    endloop
  endfacet
  facet normal 0.098033 -0.995183 0
    outer loop
      vertex 6.66835 6.66733 1.7
      vertex 7 6.7 3
      vertex 6.66835 6.66733 3
    endloop
  endfacet
  facet normal 0.098033 -0.995183 0
    outer loop
      vertex 7 6.7 3
      vertex 6.66835 6.66733 1.7
      vertex 7 6.7 1.7
    endloop
  endfacet
  facet normal 0.881931 -0.471378 0
    outer loop
      vertex 5.42941 5.65056 3
      vertex 5.5865 5.94447 1.7
      vertex 5.5865 5.94447 3
    endloop
  endfacet
  facet normal 0.881931 -0.471378 0
    outer loop
      vertex 5.5865 5.94447 1.7
      vertex 5.42941 5.65056 3
      vertex 5.42941 5.65056 1.7
    endloop
  endfacet
  facet normal 0.956941 0.290284 0
    outer loop
      vertex 5.42941 4.34944 3
      vertex 5.33267 4.66835 1.7
      vertex 5.33267 4.66835 3
    endloop
  endfacet
  facet normal 0.956941 0.290284 0
    outer loop
      vertex 5.33267 4.66835 1.7
      vertex 5.42941 4.34944 3
      vertex 5.42941 4.34944 1.7
    endloop
  endfacet
  facet normal 0.995183 0.098033 0
    outer loop
      vertex 5.33267 4.66835 3
      vertex 5.3 5 1.7
      vertex 5.3 5 3
    endloop
  endfacet
  facet normal 0.995183 0.098033 0
    outer loop
      vertex 5.3 5 1.7
      vertex 5.33267 4.66835 3
      vertex 5.33267 4.66835 1.7
    endloop
  endfacet
  facet normal 0.773003 0.634402 0
    outer loop
      vertex 5.79792 3.79792 3
      vertex 5.5865 4.05553 1.7
      vertex 5.5865 4.05553 3
    endloop
  endfacet
  facet normal 0.773003 0.634402 0
    outer loop
      vertex 5.5865 4.05553 1.7
      vertex 5.79792 3.79792 3
      vertex 5.79792 3.79792 1.7
    endloop
  endfacet
  facet normal 0.471378 0.881931 -0
    outer loop
      vertex 6.34944 3.42941 1.7
      vertex 6.05553 3.5865 3
      vertex 6.34944 3.42941 3
    endloop
  endfacet
  facet normal 0.471378 0.881931 0
    outer loop
      vertex 6.05553 3.5865 3
      vertex 6.34944 3.42941 1.7
      vertex 6.05553 3.5865 1.7
    endloop
  endfacet
  facet normal -0.773003 0.634402 0
    outer loop
      vertex 8.20208 3.79792 1.7
      vertex 8.4135 4.05553 3
      vertex 8.4135 4.05553 1.7
    endloop
  endfacet
  facet normal -0.773003 0.634402 0
    outer loop
      vertex 8.4135 4.05553 3
      vertex 8.20208 3.79792 1.7
      vertex 8.20208 3.79792 3
    endloop
  endfacet
  facet normal 0.995183 -0.098033 0
    outer loop
      vertex 5.3 5 3
      vertex 5.33267 5.33165 1.7
      vertex 5.33267 5.33165 3
    endloop
  endfacet
  facet normal 0.995183 -0.098033 0
    outer loop
      vertex 5.33267 5.33165 1.7
      vertex 5.3 5 3
      vertex 5.3 5 1.7
    endloop
  endfacet
  facet normal 0.290284 0.956941 -0
    outer loop
      vertex 6.66835 3.33267 1.7
      vertex 6.34944 3.42941 3
      vertex 6.66835 3.33267 3
    endloop
  endfacet
  facet normal 0.290284 0.956941 0
    outer loop
      vertex 6.34944 3.42941 3
      vertex 6.66835 3.33267 1.7
      vertex 6.34944 3.42941 1.7
    endloop
  endfacet
  facet normal 0.471397 -0.881921 0
    outer loop
      vertex 5.33329 7.49441 0
      vertex 5.85195 7.77164 1.7
      vertex 5.33329 7.49441 1.7
    endloop
  endfacet
  facet normal 0.471397 -0.881921 0
    outer loop
      vertex 5.85195 7.77164 1.7
      vertex 5.33329 7.49441 0
      vertex 5.85195 7.77164 0
    endloop
  endfacet
  facet normal -0.471397 -0.881921 0
    outer loop
      vertex 8.14805 7.77164 0
      vertex 8.66671 7.49441 1.7
      vertex 8.14805 7.77164 1.7
    endloop
  endfacet
  facet normal -0.471397 -0.881921 -0
    outer loop
      vertex 8.66671 7.49441 1.7
      vertex 8.14805 7.77164 0
      vertex 8.66671 7.49441 0
    endloop
  endfacet
  facet normal -0.956939 -0.290289 0
    outer loop
      vertex 9.94236 5.58527 0
      vertex 9.77164 6.14805 1.7
      vertex 9.77164 6.14805 0
    endloop
  endfacet
  facet normal -0.956939 -0.290289 0
    outer loop
      vertex 9.77164 6.14805 1.7
      vertex 9.94236 5.58527 0
      vertex 9.94236 5.58527 1.7
    endloop
  endfacet
  facet normal -0.995185 -0.0980103 0
    outer loop
      vertex 10 5 0
      vertex 9.94236 5.58527 1.7
      vertex 9.94236 5.58527 0
    endloop
  endfacet
  facet normal -0.995185 -0.0980103 0
    outer loop
      vertex 9.94236 5.58527 1.7
      vertex 10 5 0
      vertex 10 5 1.7
    endloop
  endfacet
  facet normal -0.881921 -0.471397 0
    outer loop
      vertex 9.77164 6.14805 0
      vertex 9.49441 6.66671 1.7
      vertex 9.49441 6.66671 0
    endloop
  endfacet
  facet normal -0.881921 -0.471397 0
    outer loop
      vertex 9.49441 6.66671 1.7
      vertex 9.77164 6.14805 0
      vertex 9.77164 6.14805 1.7
    endloop
  endfacet
  facet normal -0.0980103 -0.995185 0
    outer loop
      vertex 7 8 0
      vertex 7.58527 7.94236 1.7
      vertex 7 8 1.7
    endloop
  endfacet
  facet normal -0.0980103 -0.995185 -0
    outer loop
      vertex 7.58527 7.94236 1.7
      vertex 7 8 0
      vertex 7.58527 7.94236 0
    endloop
  endfacet
  facet normal -0.0980103 0.995185 0
    outer loop
      vertex 7.58527 2.05764 0
      vertex 7 2 1.7
      vertex 7.58527 2.05764 1.7
    endloop
  endfacet
  facet normal -0.0980103 0.995185 0
    outer loop
      vertex 7 2 1.7
      vertex 7.58527 2.05764 0
      vertex 7 2 0
    endloop
  endfacet
  facet normal -0.290289 -0.956939 0
    outer loop
      vertex 7.58527 7.94236 0
      vertex 8.14805 7.77164 1.7
      vertex 7.58527 7.94236 1.7
    endloop
  endfacet
  facet normal -0.290289 -0.956939 -0
    outer loop
      vertex 8.14805 7.77164 1.7
      vertex 7.58527 7.94236 0
      vertex 8.14805 7.77164 0
    endloop
  endfacet
  facet normal -0.634395 -0.773009 0
    outer loop
      vertex 8.66671 7.49441 0
      vertex 9.12132 7.12132 1.7
      vertex 8.66671 7.49441 1.7
    endloop
  endfacet
  facet normal -0.634395 -0.773009 -0
    outer loop
      vertex 9.12132 7.12132 1.7
      vertex 8.66671 7.49441 0
      vertex 9.12132 7.12132 0
    endloop
  endfacet
  facet normal -0.773009 0.634395 0
    outer loop
      vertex 9.12132 2.87868 0
      vertex 9.49441 3.33329 1.7
      vertex 9.49441 3.33329 0
    endloop
  endfacet
  facet normal -0.773009 0.634395 0
    outer loop
      vertex 9.49441 3.33329 1.7
      vertex 9.12132 2.87868 0
      vertex 9.12132 2.87868 1.7
    endloop
  endfacet
  facet normal 0.634395 -0.773009 0
    outer loop
      vertex 4.87868 7.12132 0
      vertex 5.33329 7.49441 1.7
      vertex 4.87868 7.12132 1.7
    endloop
  endfacet
  facet normal 0.634395 -0.773009 0
    outer loop
      vertex 5.33329 7.49441 1.7
      vertex 4.87868 7.12132 0
      vertex 5.33329 7.49441 0
    endloop
  endfacet
  facet normal -0.471397 0.881921 0
    outer loop
      vertex 8.66671 2.50559 0
      vertex 8.14805 2.22836 1.7
      vertex 8.66671 2.50559 1.7
    endloop
  endfacet
  facet normal -0.471397 0.881921 0
    outer loop
      vertex 8.14805 2.22836 1.7
      vertex 8.66671 2.50559 0
      vertex 8.14805 2.22836 0
    endloop
  endfacet
  facet normal 0.881921 0.471397 0
    outer loop
      vertex 4.50559 3.33329 1.7
      vertex 4.22836 3.85195 0
      vertex 4.22836 3.85195 1.7
    endloop
  endfacet
  facet normal 0.881921 0.471397 0
    outer loop
      vertex 4.22836 3.85195 0
      vertex 4.50559 3.33329 1.7
      vertex 4.50559 3.33329 0
    endloop
  endfacet
  facet normal -0.995185 0.0980103 0
    outer loop
      vertex 9.94236 4.41473 0
      vertex 10 5 1.7
      vertex 10 5 0
    endloop
  endfacet
  facet normal -0.995185 0.0980103 0
    outer loop
      vertex 10 5 1.7
      vertex 9.94236 4.41473 0
      vertex 9.94236 4.41473 1.7
    endloop
  endfacet
  facet normal 0.290289 -0.956939 0
    outer loop
      vertex 5.85195 7.77164 0
      vertex 6.41473 7.94236 1.7
      vertex 5.85195 7.77164 1.7
    endloop
  endfacet
  facet normal 0.290289 -0.956939 0
    outer loop
      vertex 6.41473 7.94236 1.7
      vertex 5.85195 7.77164 0
      vertex 6.41473 7.94236 0
    endloop
  endfacet
  facet normal 0.0980103 0.995185 -0
    outer loop
      vertex 7 2 0
      vertex 6.41473 2.05764 1.7
      vertex 7 2 1.7
    endloop
  endfacet
  facet normal 0.0980103 0.995185 0
    outer loop
      vertex 6.41473 2.05764 1.7
      vertex 7 2 0
      vertex 6.41473 2.05764 0
    endloop
  endfacet
  facet normal 0.881921 -0.471397 0
    outer loop
      vertex 4.22836 6.14805 1.7
      vertex 4.50559 6.66671 0
      vertex 4.50559 6.66671 1.7
    endloop
  endfacet
  facet normal 0.881921 -0.471397 0
    outer loop
      vertex 4.50559 6.66671 0
      vertex 4.22836 6.14805 1.7
      vertex 4.22836 6.14805 0
    endloop
  endfacet
  facet normal -0.290289 0.956939 0
    outer loop
      vertex 8.14805 2.22836 0
      vertex 7.58527 2.05764 1.7
      vertex 8.14805 2.22836 1.7
    endloop
  endfacet
  facet normal -0.290289 0.956939 0
    outer loop
      vertex 7.58527 2.05764 1.7
      vertex 8.14805 2.22836 0
      vertex 7.58527 2.05764 0
    endloop
  endfacet
  facet normal 0 0 -1
    outer loop
      vertex 8.7 5 1.7
      vertex 10 5 1.7
      vertex 9.94236 4.41473 1.7
    endloop
  endfacet
  facet normal 0 0 -1
    outer loop
      vertex 8.66733 4.66835 1.7
      vertex 9.94236 4.41473 1.7
      vertex 9.77164 3.85195 1.7
    endloop
  endfacet
  facet normal 0 0 -1
    outer loop
      vertex 10 5 1.7
      vertex 8.7 5 1.7
      vertex 9.94236 5.58527 1.7
    endloop
  endfacet
  facet normal 0 0 -1
    outer loop
      vertex 8.57059 4.34944 1.7
      vertex 9.77164 3.85195 1.7
      vertex 9.49441 3.33329 1.7
    endloop
  endfacet
  facet normal 0 0 -1
    outer loop
      vertex 8.66733 5.33165 1.7
      vertex 9.94236 5.58527 1.7
      vertex 8.7 5 1.7
    endloop
  endfacet
  facet normal 0 0 -1
    outer loop
      vertex 8.4135 4.05553 1.7
      vertex 9.49441 3.33329 1.7
      vertex 9.12132 2.87868 1.7
    endloop
  endfacet
  facet normal -0 0 -1
    outer loop
      vertex 9.94236 5.58527 1.7
      vertex 8.66733 5.33165 1.7
      vertex 9.77164 6.14805 1.7
    endloop
  endfacet
  facet normal 0 0 -1
    outer loop
      vertex 8.57059 5.65056 1.7
      vertex 9.77164 6.14805 1.7
      vertex 8.66733 5.33165 1.7
    endloop
  endfacet
  facet normal 0 0 -1
    outer loop
      vertex 9.94236 4.41473 1.7
      vertex 8.66733 4.66835 1.7
      vertex 8.7 5 1.7
    endloop
  endfacet
  facet normal 0 0 -1
    outer loop
      vertex 8.20208 3.79792 1.7
      vertex 9.12132 2.87868 1.7
      vertex 8.66671 2.50559 1.7
    endloop
  endfacet
  facet normal 0 0 -1
    outer loop
      vertex 9.77164 3.85195 1.7
      vertex 8.57059 4.34944 1.7
      vertex 8.66733 4.66835 1.7
    endloop
  endfacet
  facet normal 0 0 -1
    outer loop
      vertex 9.49441 3.33329 1.7
      vertex 8.4135 4.05553 1.7
      vertex 8.57059 4.34944 1.7
    endloop
  endfacet
  facet normal 0 0 -1
    outer loop
      vertex 9.12132 2.87868 1.7
      vertex 8.20208 3.79792 1.7
      vertex 8.4135 4.05553 1.7
    endloop
  endfacet
  facet normal 0 0 -1
    outer loop
      vertex 7.94447 3.5865 1.7
      vertex 8.66671 2.50559 1.7
      vertex 8.14805 2.22836 1.7
    endloop
  endfacet
  facet normal 0 0 -1
    outer loop
      vertex 8.66671 2.50559 1.7
      vertex 7.94447 3.5865 1.7
      vertex 8.20208 3.79792 1.7
    endloop
  endfacet
  facet normal 0 0 -1
    outer loop
      vertex 8.14805 2.22836 1.7
      vertex 7.65056 3.42941 1.7
      vertex 7.94447 3.5865 1.7
    endloop
  endfacet
  facet normal 0 0 -1
    outer loop
      vertex 7.58527 2.05764 1.7
      vertex 7.65056 3.42941 1.7
      vertex 8.14805 2.22836 1.7
    endloop
  endfacet
  facet normal 0 0 -1
    outer loop
      vertex 7.58527 2.05764 1.7
      vertex 7.33165 3.33267 1.7
      vertex 7.65056 3.42941 1.7
    endloop
  endfacet
  facet normal 0 0 -1
    outer loop
      vertex 7 2 1.7
      vertex 7.33165 3.33267 1.7
      vertex 7.58527 2.05764 1.7
    endloop
  endfacet
  facet normal 0 0 -1
    outer loop
      vertex 7 2 1.7
      vertex 7 3.3 1.7
      vertex 7.33165 3.33267 1.7
    endloop
  endfacet
  facet normal 0 0 -1
    outer loop
      vertex 7 2 1.7
      vertex 6.66835 3.33267 1.7
      vertex 7 3.3 1.7
    endloop
  endfacet
  facet normal 0 0 -1
    outer loop
      vertex 6.41473 2.05764 1.7
      vertex 6.66835 3.33267 1.7
      vertex 7 2 1.7
    endloop
  endfacet
  facet normal 0 0 -1
    outer loop
      vertex 6.41473 2.05764 1.7
      vertex 6.34944 3.42941 1.7
      vertex 6.66835 3.33267 1.7
    endloop
  endfacet
  facet normal 0 0 -1
    outer loop
      vertex 5.85195 2.22836 1.7
      vertex 6.34944 3.42941 1.7
      vertex 6.41473 2.05764 1.7
    endloop
  endfacet
  facet normal -0 0 -1
    outer loop
      vertex 6.34944 3.42941 1.7
      vertex 5.85195 2.22836 1.7
      vertex 6.05553 3.5865 1.7
    endloop
  endfacet
  facet normal 0 0 -1
    outer loop
      vertex 5.33329 2.50559 1.7
      vertex 6.05553 3.5865 1.7
      vertex 5.85195 2.22836 1.7
    endloop
  endfacet
  facet normal -0 0 -1
    outer loop
      vertex 6.05553 3.5865 1.7
      vertex 5.33329 2.50559 1.7
      vertex 5.79792 3.79792 1.7
    endloop
  endfacet
  facet normal 0 0 -1
    outer loop
      vertex 4.87868 2.87868 1.7
      vertex 5.79792 3.79792 1.7
      vertex 5.33329 2.50559 1.7
    endloop
  endfacet
  facet normal -0 0 -1
    outer loop
      vertex 5.79792 3.79792 1.7
      vertex 4.87868 2.87868 1.7
      vertex 5.5865 4.05553 1.7
    endloop
  endfacet
  facet normal 0 0 -1
    outer loop
      vertex 4.50559 3.33329 1.7
      vertex 5.5865 4.05553 1.7
      vertex 4.87868 2.87868 1.7
    endloop
  endfacet
  facet normal -0 0 -1
    outer loop
      vertex 5.5865 4.05553 1.7
      vertex 4.50559 3.33329 1.7
      vertex 5.42941 4.34944 1.7
    endloop
  endfacet
  facet normal 0 0 -1
    outer loop
      vertex 4.22836 3.85195 1.7
      vertex 5.42941 4.34944 1.7
      vertex 4.50559 3.33329 1.7
    endloop
  endfacet
  facet normal -0 0 -1
    outer loop
      vertex 9.77164 6.14805 1.7
      vertex 8.57059 5.65056 1.7
      vertex 9.49441 6.66671 1.7
    endloop
  endfacet
  facet normal 0 0 -1
    outer loop
      vertex 8.4135 5.94447 1.7
      vertex 9.49441 6.66671 1.7
      vertex 8.57059 5.65056 1.7
    endloop
  endfacet
  facet normal -0 0 -1
    outer loop
      vertex 9.49441 6.66671 1.7
      vertex 8.4135 5.94447 1.7
      vertex 9.12132 7.12132 1.7
    endloop
  endfacet
  facet normal 0 0 -1
    outer loop
      vertex 8.20208 6.20208 1.7
      vertex 9.12132 7.12132 1.7
      vertex 8.4135 5.94447 1.7
    endloop
  endfacet
  facet normal -0 0 -1
    outer loop
      vertex 9.12132 7.12132 1.7
      vertex 8.20208 6.20208 1.7
      vertex 8.66671 7.49441 1.7
    endloop
  endfacet
  facet normal 0 0 -1
    outer loop
      vertex 7.94447 6.4135 1.7
      vertex 8.66671 7.49441 1.7
      vertex 8.20208 6.20208 1.7
    endloop
  endfacet
  facet normal -0 0 -1
    outer loop
      vertex 8.66671 7.49441 1.7
      vertex 7.94447 6.4135 1.7
      vertex 8.14805 7.77164 1.7
    endloop
  endfacet
  facet normal 0 0 -1
    outer loop
      vertex 7.65056 6.57059 1.7
      vertex 8.14805 7.77164 1.7
      vertex 7.94447 6.4135 1.7
    endloop
  endfacet
  facet normal 0 0 -1
    outer loop
      vertex 7.65056 6.57059 1.7
      vertex 7.58527 7.94236 1.7
      vertex 8.14805 7.77164 1.7
    endloop
  endfacet
  facet normal 0 0 -1
    outer loop
      vertex 7.33165 6.66733 1.7
      vertex 7.58527 7.94236 1.7
      vertex 7.65056 6.57059 1.7
    endloop
  endfacet
  facet normal 0 0 -1
    outer loop
      vertex 7 6.7 1.7
      vertex 7.58527 7.94236 1.7
      vertex 7.33165 6.66733 1.7
    endloop
  endfacet
  facet normal 0 0 -1
    outer loop
      vertex 7 6.7 1.7
      vertex 7 8 1.7
      vertex 7.58527 7.94236 1.7
    endloop
  endfacet
  facet normal 0 0 -1
    outer loop
      vertex 6.66835 6.66733 1.7
      vertex 7 8 1.7
      vertex 7 6.7 1.7
    endloop
  endfacet
  facet normal 0 0 -1
    outer loop
      vertex 6.66835 6.66733 1.7
      vertex 6.41473 7.94236 1.7
      vertex 7 8 1.7
    endloop
  endfacet
  facet normal 0 0 -1
    outer loop
      vertex 6.34944 6.57059 1.7
      vertex 6.41473 7.94236 1.7
      vertex 6.66835 6.66733 1.7
    endloop
  endfacet
  facet normal 0 0 -1
    outer loop
      vertex 5.85195 7.77164 1.7
      vertex 6.34944 6.57059 1.7
      vertex 6.05553 6.4135 1.7
    endloop
  endfacet
  facet normal 0 0 -1
    outer loop
      vertex 6.34944 6.57059 1.7
      vertex 5.85195 7.77164 1.7
      vertex 6.41473 7.94236 1.7
    endloop
  endfacet
  facet normal 0 0 -1
    outer loop
      vertex 5.33329 7.49441 1.7
      vertex 6.05553 6.4135 1.7
      vertex 5.79792 6.20208 1.7
    endloop
  endfacet
  facet normal 0 0 -1
    outer loop
      vertex 4.87868 7.12132 1.7
      vertex 5.79792 6.20208 1.7
      vertex 5.5865 5.94447 1.7
    endloop
  endfacet
  facet normal 0 0 -1
    outer loop
      vertex 4.50559 6.66671 1.7
      vertex 5.5865 5.94447 1.7
      vertex 5.42941 5.65056 1.7
    endloop
  endfacet
  facet normal 0 0 -1
    outer loop
      vertex 6.05553 6.4135 1.7
      vertex 5.33329 7.49441 1.7
      vertex 5.85195 7.77164 1.7
    endloop
  endfacet
  facet normal 0 0 -1
    outer loop
      vertex 4.22836 6.14805 1.7
      vertex 5.42941 5.65056 1.7
      vertex 5.33267 5.33165 1.7
    endloop
  endfacet
  facet normal 0 0 -1
    outer loop
      vertex 4.05764 5.58527 1.7
      vertex 5.33267 5.33165 1.7
      vertex 5.3 5 1.7
    endloop
  endfacet
  facet normal -0 0 -1
    outer loop
      vertex 5.42941 4.34944 1.7
      vertex 4.22836 3.85195 1.7
      vertex 5.33267 4.66835 1.7
    endloop
  endfacet
  facet normal 0 0 -1
    outer loop
      vertex 5.79792 6.20208 1.7
      vertex 4.87868 7.12132 1.7
      vertex 5.33329 7.49441 1.7
    endloop
  endfacet
  facet normal 0 0 -1
    outer loop
      vertex 4.05764 4.41473 1.7
      vertex 5.33267 4.66835 1.7
      vertex 4.22836 3.85195 1.7
    endloop
  endfacet
  facet normal 0 0 -1
    outer loop
      vertex 5.5865 5.94447 1.7
      vertex 4.50559 6.66671 1.7
      vertex 4.87868 7.12132 1.7
    endloop
  endfacet
  facet normal -0 0 -1
    outer loop
      vertex 5.33267 4.66835 1.7
      vertex 4.05764 4.41473 1.7
      vertex 5.3 5 1.7
    endloop
  endfacet
  facet normal 0 0 -1
    outer loop
      vertex 5.42941 5.65056 1.7
      vertex 4.22836 6.14805 1.7
      vertex 4.50559 6.66671 1.7
    endloop
  endfacet
  facet normal 0 0 -1
    outer loop
      vertex 4 5 1.7
      vertex 5.3 5 1.7
      vertex 4.05764 4.41473 1.7
    endloop
  endfacet
  facet normal 0 0 -1
    outer loop
      vertex 5.33267 5.33165 1.7
      vertex 4.05764 5.58527 1.7
      vertex 4.22836 6.14805 1.7
    endloop
  endfacet
  facet normal 0 0 -1
    outer loop
      vertex 5.3 5 1.7
      vertex 4 5 1.7
      vertex 4.05764 5.58527 1.7
    endloop
  endfacet
  facet normal 0.290289 0.956939 -0
    outer loop
      vertex 6.41473 2.05764 0
      vertex 5.85195 2.22836 1.7
      vertex 6.41473 2.05764 1.7
    endloop
  endfacet
  facet normal 0.290289 0.956939 0
    outer loop
      vertex 5.85195 2.22836 1.7
      vertex 6.41473 2.05764 0
      vertex 5.85195 2.22836 0
    endloop
  endfacet
  facet normal -0.956939 0.290289 0
    outer loop
      vertex 9.77164 3.85195 0
      vertex 9.94236 4.41473 1.7
      vertex 9.94236 4.41473 0
    endloop
  endfacet
  facet normal -0.956939 0.290289 0
    outer loop
      vertex 9.94236 4.41473 1.7
      vertex 9.77164 3.85195 0
      vertex 9.77164 3.85195 1.7
    endloop
  endfacet
  facet normal -0.773009 -0.634395 0
    outer loop
      vertex 9.49441 6.66671 0
      vertex 9.12132 7.12132 1.7
      vertex 9.12132 7.12132 0
    endloop
  endfacet
  facet normal -0.773009 -0.634395 0
    outer loop
      vertex 9.12132 7.12132 1.7
      vertex 9.49441 6.66671 0
      vertex 9.49441 6.66671 1.7
    endloop
  endfacet
  facet normal 0.995185 -0.0980103 0
    outer loop
      vertex 4 5 1.7
      vertex 4.05764 5.58527 0
      vertex 4.05764 5.58527 1.7
    endloop
  endfacet
  facet normal 0.995185 -0.0980103 0
    outer loop
      vertex 4.05764 5.58527 0
      vertex 4 5 1.7
      vertex 4 5 0
    endloop
  endfacet
  facet normal -0.634395 0.773009 0
    outer loop
      vertex 9.12132 2.87868 0
      vertex 8.66671 2.50559 1.7
      vertex 9.12132 2.87868 1.7
    endloop
  endfacet
  facet normal -0.634395 0.773009 0
    outer loop
      vertex 8.66671 2.50559 1.7
      vertex 9.12132 2.87868 0
      vertex 8.66671 2.50559 0
    endloop
  endfacet
  facet normal 0.634395 0.773009 -0
    outer loop
      vertex 5.33329 2.50559 0
      vertex 4.87868 2.87868 1.7
      vertex 5.33329 2.50559 1.7
    endloop
  endfacet
  facet normal 0.634395 0.773009 0
    outer loop
      vertex 4.87868 2.87868 1.7
      vertex 5.33329 2.50559 0
      vertex 4.87868 2.87868 0
    endloop
  endfacet
  facet normal 0.0980103 -0.995185 0
    outer loop
      vertex 6.41473 7.94236 0
      vertex 7 8 1.7
      vertex 6.41473 7.94236 1.7
    endloop
  endfacet
  facet normal 0.0980103 -0.995185 0
    outer loop
      vertex 7 8 1.7
      vertex 6.41473 7.94236 0
      vertex 7 8 0
    endloop
  endfacet
  facet normal -0.881921 0.471397 0
    outer loop
      vertex 9.49441 3.33329 0
      vertex 9.77164 3.85195 1.7
      vertex 9.77164 3.85195 0
    endloop
  endfacet
  facet normal -0.881921 0.471397 0
    outer loop
      vertex 9.77164 3.85195 1.7
      vertex 9.49441 3.33329 0
      vertex 9.49441 3.33329 1.7
    endloop
  endfacet
  facet normal 0.956939 0.290289 0
    outer loop
      vertex 4.22836 3.85195 1.7
      vertex 4.05764 4.41473 0
      vertex 4.05764 4.41473 1.7
    endloop
  endfacet
  facet normal 0.956939 0.290289 0
    outer loop
      vertex 4.05764 4.41473 0
      vertex 4.22836 3.85195 1.7
      vertex 4.22836 3.85195 0
    endloop
  endfacet
  facet normal 0.995185 0.0980103 0
    outer loop
      vertex 4.05764 4.41473 1.7
      vertex 4 5 0
      vertex 4 5 1.7
    endloop
  endfacet
  facet normal 0.995185 0.0980103 0
    outer loop
      vertex 4 5 0
      vertex 4.05764 4.41473 1.7
      vertex 4.05764 4.41473 0
    endloop
  endfacet
  facet normal 0.773009 0.634395 0
    outer loop
      vertex 4.87868 2.87868 1.7
      vertex 4.50559 3.33329 0
      vertex 4.50559 3.33329 1.7
    endloop
  endfacet
  facet normal 0.773009 0.634395 0
    outer loop
      vertex 4.50559 3.33329 0
      vertex 4.87868 2.87868 1.7
      vertex 4.87868 2.87868 0
    endloop
  endfacet
  facet normal 0.773009 -0.634395 0
    outer loop
      vertex 4.50559 6.66671 1.7
      vertex 4.87868 7.12132 0
      vertex 4.87868 7.12132 1.7
    endloop
  endfacet
  facet normal 0.773009 -0.634395 0
    outer loop
      vertex 4.87868 7.12132 0
      vertex 4.50559 6.66671 1.7
      vertex 4.50559 6.66671 0
    endloop
  endfacet
  facet normal 0.956939 -0.290289 0
    outer loop
      vertex 4.05764 5.58527 1.7
      vertex 4.22836 6.14805 0
      vertex 4.22836 6.14805 1.7
    endloop
  endfacet
  facet normal 0.956939 -0.290289 0
    outer loop
      vertex 4.22836 6.14805 0
      vertex 4.05764 5.58527 1.7
      vertex 4.05764 5.58527 0
    endloop
  endfacet
  facet normal 0.471397 0.881921 -0
    outer loop
      vertex 5.85195 2.22836 0
      vertex 5.33329 2.50559 1.7
      vertex 5.85195 2.22836 1.7
    endloop
  endfacet
  facet normal 0.471397 0.881921 0
    outer loop
      vertex 5.33329 2.50559 1.7
      vertex 5.85195 2.22836 0
      vertex 5.33329 2.50559 0
    endloop
  endfacet
endsolid OpenSCAD_Model
