solid OpenSCAD_Model
  facet normal 1 -0 0
    outer loop
      vertex 15.7 0 9.7
      vertex 15.7 4 0
      vertex 15.7 4 9.7
    endloop
  endfacet
  facet normal 1 0 0
    outer loop
      vertex 15.7 4 0
      vertex 15.7 0 9.7
      vertex 15.7 0 0
    endloop
  endfacet
  facet normal -0 0 1
    outer loop
      vertex 0 4 9.7
      vertex 15.7 0 9.7
      vertex 15.7 4 9.7
    endloop
  endfacet
  facet normal 0 0 1
    outer loop
      vertex 15.7 0 9.7
      vertex 0 4 9.7
      vertex 0 0 9.7
    endloop
  endfacet
  facet normal 0 0 -1
    outer loop
      vertex 0 0 0
      vertex 15.7 4 0
      vertex 15.7 0 0
    endloop
  endfacet
  facet normal -0 0 -1
    outer loop
      vertex 15.7 4 0
      vertex 0 0 0
      vertex 0 4 0
    endloop
  endfacet
  facet normal -1 0 0
    outer loop
      vertex 0 0 2.37588
      vertex 0 4 9.7
      vertex 0 4 2.37588
    endloop
  endfacet
  facet normal -1 -0 0
    outer loop
      vertex 0 4 9.7
      vertex 0 0 2.37588
      vertex 0 0 9.7
    endloop
  endfacet
  facet normal 0 -1 0
    outer loop
      vertex 15.7 4 9.7
      vertex 16.8879 4 1.18794
      vertex 16.8879 4 8.51206
    endloop
  endfacet
  facet normal -0 -1 0
    outer loop
      vertex 16.8879 4 1.18794
      vertex 15.7 4 9.7
      vertex 15.7 4 0
    endloop
  endfacet
  facet normal 0 -1 0
    outer loop
      vertex 15.7 4 9.7
      vertex 1.18794 4 10.8879
      vertex 0 4 9.7
    endloop
  endfacet
  facet normal 0 -1 0
    outer loop
      vertex 1.18794 4 10.8879
      vertex 15.7 4 9.7
      vertex 16.8879 4 10.8879
    endloop
  endfacet
  facet normal 0 -1 0
    outer loop
      vertex -2.5 4 12.2
      vertex 0 4 12.0759
      vertex 18.2 4 12.2
    endloop
  endfacet
  facet normal 0 -1 0
    outer loop
      vertex -2.5 4 12.2
      vertex -1.18794 4 10.8879
      vertex 0 4 12.0759
    endloop
  endfacet
  facet normal 0 -1 0
    outer loop
      vertex -1.18794 4 1.18794
      vertex -1.18794 4 10.8879
      vertex -2.5 4 12.2
    endloop
  endfacet
  facet normal 0 -1 0
    outer loop
      vertex -1.18794 4 10.8879
      vertex -1.18794 4 1.18794
      vertex 0 4 9.7
    endloop
  endfacet
  facet normal 0 -1 -0
    outer loop
      vertex 0 4 9.7
      vertex -1.18794 4 1.18794
      vertex 0 4 2.37588
    endloop
  endfacet
  facet normal 0 -1 0
    outer loop
      vertex 0 4 0
      vertex 16.8879 4 -1.18794
      vertex 15.7 4 0
    endloop
  endfacet
  facet normal 0 -1 -0
    outer loop
      vertex 0 4 0
      vertex -2.5 4 -2.5
      vertex 16.8879 4 -1.18794
    endloop
  endfacet
  facet normal 0 -1 -0
    outer loop
      vertex -1.18794 4 1.18794
      vertex -2.5 4 -2.5
      vertex 0 4 0
    endloop
  endfacet
  facet normal 0 -1 0
    outer loop
      vertex -2.5 4 -2.5
      vertex -1.18794 4 1.18794
      vertex -2.5 4 12.2
    endloop
  endfacet
  facet normal 0 -1 0
    outer loop
      vertex 1.18794 4 10.8879
      vertex 18.2 4 12.2
      vertex 0 4 12.0759
    endloop
  endfacet
  facet normal 0 -1 0
    outer loop
      vertex 16.8879 4 10.8879
      vertex 18.2 4 12.2
      vertex 1.18794 4 10.8879
    endloop
  endfacet
  facet normal 0 -1 0
    outer loop
      vertex 18.0759 4 9.7
      vertex 18.2 4 12.2
      vertex 16.8879 4 10.8879
    endloop
  endfacet
  facet normal 0 -1 0
    outer loop
      vertex 16.8879 4 1.18794
      vertex 18.0759 4 9.7
      vertex 16.8879 4 8.51206
    endloop
  endfacet
  facet normal 0 -1 0
    outer loop
      vertex 18.0759 4 0
      vertex 18.0759 4 9.7
      vertex 16.8879 4 1.18794
    endloop
  endfacet
  facet normal 0 -1 0
    outer loop
      vertex 18.0759 4 0
      vertex 18.2 4 12.2
      vertex 18.0759 4 9.7
    endloop
  endfacet
  facet normal 0 -1 0
    outer loop
      vertex 18.0759 4 0
      vertex 18.2 4 -2.5
      vertex 18.2 4 12.2
    endloop
  endfacet
  facet normal 0 -1 0
    outer loop
      vertex 16.8879 4 -1.18794
      vertex 18.2 4 -2.5
      vertex 18.0759 4 0
    endloop
  endfacet
  facet normal 0 -1 0
    outer loop
      vertex 18.2 4 -2.5
      vertex 16.8879 4 -1.18794
      vertex -2.5 4 -2.5
    endloop
  endfacet
  facet normal 0 -1 0
    outer loop
      vertex 0 0 9.7
      vertex 3.85 0 7.35
      vertex 15.7 0 9.7
    endloop
  endfacet
  facet normal 0 -1 0
    outer loop
      vertex 0 0 2.37588
      vertex 3.85 0 7.35
      vertex 0 0 9.7
    endloop
  endfacet
  facet normal 0 -1 0
    outer loop
      vertex 0 0 2.37588
      vertex 3.85 0 2.35
      vertex 3.85 0 7.35
    endloop
  endfacet
  facet normal 0 -1 0
    outer loop
      vertex 0 0 0
      vertex 3.85 0 2.35
      vertex 1.18794 0 1.18794
    endloop
  endfacet
  facet normal 0 -1 0
    outer loop
      vertex 1.18794 0 1.18794
      vertex 3.85 0 2.35
      vertex 0 0 2.37588
    endloop
  endfacet
  facet normal 0 -1 0
    outer loop
      vertex 11.85 0 7.35
      vertex 15.7 0 9.7
      vertex 3.85 0 7.35
    endloop
  endfacet
  facet normal 0 -1 0
    outer loop
      vertex 11.85 0 2.35
      vertex 15.7 0 9.7
      vertex 11.85 0 7.35
    endloop
  endfacet
  facet normal 0 -1 -0
    outer loop
      vertex 3.85 0 2.35
      vertex 0 0 0
      vertex 11.85 0 2.35
    endloop
  endfacet
  facet normal 0 -1 0
    outer loop
      vertex 11.85 0 2.35
      vertex 15.7 0 0
      vertex 15.7 0 9.7
    endloop
  endfacet
  facet normal 0 -1 0
    outer loop
      vertex 15.7 0 0
      vertex 11.85 0 2.35
      vertex 0 0 0
    endloop
  endfacet
  facet normal 1 -0 0
    outer loop
      vertex 18.2 4 12.2
      vertex 18.2 5.8 -2.5
      vertex 18.2 5.8 12.2
    endloop
  endfacet
  facet normal 1 0 0
    outer loop
      vertex 18.2 5.8 -2.5
      vertex 18.2 4 12.2
      vertex 18.2 4 -2.5
    endloop
  endfacet
  facet normal -0 0 1
    outer loop
      vertex -2.5 5.8 12.2
      vertex 18.2 4 12.2
      vertex 18.2 5.8 12.2
    endloop
  endfacet
  facet normal 0 0 1
    outer loop
      vertex 18.2 4 12.2
      vertex -2.5 5.8 12.2
      vertex -2.5 4 12.2
    endloop
  endfacet
  facet normal 0 0 -1
    outer loop
      vertex -2.5 4 -2.5
      vertex 18.2 5.8 -2.5
      vertex 18.2 4 -2.5
    endloop
  endfacet
  facet normal -0 0 -1
    outer loop
      vertex 18.2 5.8 -2.5
      vertex -2.5 4 -2.5
      vertex -2.5 5.8 -2.5
    endloop
  endfacet
  facet normal -1 0 0
    outer loop
      vertex -2.5 4 -2.5
      vertex -2.5 5.8 12.2
      vertex -2.5 5.8 -2.5
    endloop
  endfacet
  facet normal -1 -0 0
    outer loop
      vertex -2.5 5.8 12.2
      vertex -2.5 4 -2.5
      vertex -2.5 4 12.2
    endloop
  endfacet
  facet normal 0 1 0
    outer loop
      vertex 18.2 5.8 12.2
      vertex 14.2 5.8 8.2
      vertex -2.5 5.8 12.2
    endloop
  endfacet
  facet normal 0 1 0
    outer loop
      vertex 18.2 5.8 12.2
      vertex 14.2 5.8 1.5
      vertex 14.2 5.8 8.2
    endloop
  endfacet
  facet normal 0 1 0
    outer loop
      vertex 14.2 5.8 1.5
      vertex 18.2 5.8 -2.5
      vertex 1.5 5.8 1.5
    endloop
  endfacet
  facet normal 0 1 -0
    outer loop
      vertex 18.2 5.8 -2.5
      vertex 14.2 5.8 1.5
      vertex 18.2 5.8 12.2
    endloop
  endfacet
  facet normal 0 1 -0
    outer loop
      vertex 1.5 5.8 8.2
      vertex -2.5 5.8 12.2
      vertex 14.2 5.8 8.2
    endloop
  endfacet
  facet normal 0 1 -0
    outer loop
      vertex 1.5 5.8 1.5
      vertex -2.5 5.8 12.2
      vertex 1.5 5.8 8.2
    endloop
  endfacet
  facet normal 0 1 0
    outer loop
      vertex 1.5 5.8 1.5
      vertex -2.5 5.8 -2.5
      vertex -2.5 5.8 12.2
    endloop
  endfacet
  facet normal 0 1 0
    outer loop
      vertex -2.5 5.8 -2.5
      vertex 1.5 5.8 1.5
      vertex 18.2 5.8 -2.5
    endloop
  endfacet
  facet normal 0.707107 0 -0.707107
    outer loop
      vertex 0 4 2.37588
      vertex -1.18794 4.1 1.18794
      vertex 0 4.1 2.37588
    endloop
  endfacet
  facet normal 0.707107 0 -0.707107
    outer loop
      vertex -1.18794 4.1 1.18794
      vertex 0 4 2.37588
      vertex -1.18794 4 1.18794
    endloop
  endfacet
  facet normal -0.707107 0 -0.707107
    outer loop
      vertex 1.18794 4.1 1.18794
      vertex 0 4 2.37588
      vertex 0 4.1 2.37588
    endloop
  endfacet
  facet normal -0.707107 0 -0.707107
    outer loop
      vertex 1.18794 0 1.18794
      vertex 0 4 2.37588
      vertex 1.18794 4.1 1.18794
    endloop
  endfacet
  facet normal -0.707107 -0 -0.707107
    outer loop
      vertex 0 4 2.37588
      vertex 1.18794 0 1.18794
      vertex 0 0 2.37588
    endloop
  endfacet
  facet normal -0.707107 0 0.707107
    outer loop
      vertex 0 4 0
      vertex 1.18794 4.1 1.18794
      vertex 0 4.1 0
    endloop
  endfacet
  facet normal -0.707107 0 0.707107
    outer loop
      vertex 1.18794 0 1.18794
      vertex 0 4 0
      vertex 0 0 0
    endloop
  endfacet
  facet normal -0.707107 0 0.707107
    outer loop
      vertex 0 4 0
      vertex 1.18794 0 1.18794
      vertex 1.18794 4.1 1.18794
    endloop
  endfacet
  facet normal 0 -1 0
    outer loop
      vertex -1.18794 4.1 1.18794
      vertex 1.18794 4.1 1.18794
      vertex 0 4.1 2.37588
    endloop
  endfacet
  facet normal -0 -1 0
    outer loop
      vertex 1.18794 4.1 1.18794
      vertex -1.18794 4.1 1.18794
      vertex 0 4.1 0
    endloop
  endfacet
  facet normal 0.707107 -0 0.707107
    outer loop
      vertex -1.18794 4 1.18794
      vertex 0 4.1 0
      vertex -1.18794 4.1 1.18794
    endloop
  endfacet
  facet normal 0.707107 0 0.707107
    outer loop
      vertex 0 4.1 0
      vertex -1.18794 4 1.18794
      vertex 0 4 0
    endloop
  endfacet
  facet normal 0.707125 0 -0.707089
    outer loop
      vertex 0 4 12.0759
      vertex -1.18794 4.1 10.8879
      vertex 0 4.1 12.0759
    endloop
  endfacet
  facet normal 0.707125 0 -0.707089
    outer loop
      vertex -1.18794 4.1 10.8879
      vertex 0 4 12.0759
      vertex -1.18794 4 10.8879
    endloop
  endfacet
  facet normal -0.707125 0 -0.707089
    outer loop
      vertex 1.18794 4 10.8879
      vertex 0 4.1 12.0759
      vertex 1.18794 4.1 10.8879
    endloop
  endfacet
  facet normal -0.707125 -0 -0.707089
    outer loop
      vertex 0 4.1 12.0759
      vertex 1.18794 4 10.8879
      vertex 0 4 12.0759
    endloop
  endfacet
  facet normal -0.707095 0 0.707119
    outer loop
      vertex 0 4 9.7
      vertex 1.18794 4.1 10.8879
      vertex 0 4.1 9.7
    endloop
  endfacet
  facet normal -0.707095 0 0.707119
    outer loop
      vertex 1.18794 4.1 10.8879
      vertex 0 4 9.7
      vertex 1.18794 4 10.8879
    endloop
  endfacet
  facet normal 0 -1 0
    outer loop
      vertex -1.18794 4.1 10.8879
      vertex 1.18794 4.1 10.8879
      vertex 0 4.1 12.0759
    endloop
  endfacet
  facet normal -0 -1 0
    outer loop
      vertex 1.18794 4.1 10.8879
      vertex -1.18794 4.1 10.8879
      vertex 0 4.1 9.7
    endloop
  endfacet
  facet normal 0.707095 -0 0.707119
    outer loop
      vertex -1.18794 4 10.8879
      vertex 0 4.1 9.7
      vertex -1.18794 4.1 10.8879
    endloop
  endfacet
  facet normal 0.707095 0 0.707119
    outer loop
      vertex 0 4.1 9.7
      vertex -1.18794 4 10.8879
      vertex 0 4 9.7
    endloop
  endfacet
  facet normal 0 -1 0
    outer loop
      vertex 15.7 4.1 0
      vertex 18.0759 4.1 0
      vertex 16.8879 4.1 1.18794
    endloop
  endfacet
  facet normal -0 -1 0
    outer loop
      vertex 18.0759 4.1 0
      vertex 15.7 4.1 0
      vertex 16.8879 4.1 -1.18794
    endloop
  endfacet
  facet normal -0.707089 0 -0.707125
    outer loop
      vertex 18.0759 4 0
      vertex 16.8879 4.1 1.18794
      vertex 18.0759 4.1 0
    endloop
  endfacet
  facet normal -0.707089 -0 -0.707125
    outer loop
      vertex 16.8879 4.1 1.18794
      vertex 18.0759 4 0
      vertex 16.8879 4 1.18794
    endloop
  endfacet
  facet normal -0.707089 0 0.707125
    outer loop
      vertex 16.8879 4 -1.18794
      vertex 18.0759 4.1 0
      vertex 16.8879 4.1 -1.18794
    endloop
  endfacet
  facet normal -0.707089 0 0.707125
    outer loop
      vertex 18.0759 4.1 0
      vertex 16.8879 4 -1.18794
      vertex 18.0759 4 0
    endloop
  endfacet
  facet normal 0.707119 0 0.707095
    outer loop
      vertex 15.7 4.1 0
      vertex 16.8879 4 -1.18794
      vertex 16.8879 4.1 -1.18794
    endloop
  endfacet
  facet normal 0.707119 0 0.707095
    outer loop
      vertex 16.8879 4 -1.18794
      vertex 15.7 4.1 0
      vertex 15.7 4 0
    endloop
  endfacet
  facet normal 0.707119 0 -0.707095
    outer loop
      vertex 15.7 4 0
      vertex 16.8879 4.1 1.18794
      vertex 16.8879 4 1.18794
    endloop
  endfacet
  facet normal 0.707119 0 -0.707095
    outer loop
      vertex 16.8879 4.1 1.18794
      vertex 15.7 4 0
      vertex 15.7 4.1 0
    endloop
  endfacet
  facet normal 0 -1 0
    outer loop
      vertex 15.7 4.1 9.7
      vertex 18.0759 4.1 9.7
      vertex 16.8879 4.1 10.8879
    endloop
  endfacet
  facet normal -0 -1 0
    outer loop
      vertex 18.0759 4.1 9.7
      vertex 15.7 4.1 9.7
      vertex 16.8879 4.1 8.51206
    endloop
  endfacet
  facet normal -0.707077 0 -0.707137
    outer loop
      vertex 18.0759 4 9.7
      vertex 16.8879 4.1 10.8879
      vertex 18.0759 4.1 9.7
    endloop
  endfacet
  facet normal -0.707077 -0 -0.707137
    outer loop
      vertex 16.8879 4.1 10.8879
      vertex 18.0759 4 9.7
      vertex 16.8879 4 10.8879
    endloop
  endfacet
  facet normal -0.707089 0 0.707125
    outer loop
      vertex 16.8879 4 8.51206
      vertex 18.0759 4.1 9.7
      vertex 16.8879 4.1 8.51206
    endloop
  endfacet
  facet normal -0.707089 0 0.707125
    outer loop
      vertex 18.0759 4.1 9.7
      vertex 16.8879 4 8.51206
      vertex 18.0759 4 9.7
    endloop
  endfacet
  facet normal 0.707119 -0 0.707095
    outer loop
      vertex 15.7 4 9.7
      vertex 16.8879 4.1 8.51206
      vertex 15.7 4.1 9.7
    endloop
  endfacet
  facet normal 0.707119 0 0.707095
    outer loop
      vertex 16.8879 4.1 8.51206
      vertex 15.7 4 9.7
      vertex 16.8879 4 8.51206
    endloop
  endfacet
  facet normal 0.707107 0 -0.707107
    outer loop
      vertex 15.7 4 9.7
      vertex 16.8879 4.1 10.8879
      vertex 16.8879 4 10.8879
    endloop
  endfacet
  facet normal 0.707107 0 -0.707107
    outer loop
      vertex 16.8879 4.1 10.8879
      vertex 15.7 4 9.7
      vertex 15.7 4.1 9.7
    endloop
  endfacet
  facet normal -1 0 0
    outer loop
      vertex 14.2 0.799999 1.5
      vertex 14.2 5.8 8.2
      vertex 14.2 5.8 1.5
    endloop
  endfacet
  facet normal -1 -0 0
    outer loop
      vertex 14.2 5.8 8.2
      vertex 14.2 0.799999 1.5
      vertex 14.2 0.799999 8.2
    endloop
  endfacet
  facet normal 0 0 -1
    outer loop
      vertex 1.5 0.799999 8.2
      vertex 14.2 5.8 8.2
      vertex 14.2 0.799999 8.2
    endloop
  endfacet
  facet normal -0 0 -1
    outer loop
      vertex 14.2 5.8 8.2
      vertex 1.5 0.799999 8.2
      vertex 1.5 5.8 8.2
    endloop
  endfacet
  facet normal -0 0 1
    outer loop
      vertex 1.5 5.8 1.5
      vertex 14.2 0.799999 1.5
      vertex 14.2 5.8 1.5
    endloop
  endfacet
  facet normal 0 0 1
    outer loop
      vertex 14.2 0.799999 1.5
      vertex 1.5 5.8 1.5
      vertex 1.5 0.799999 1.5
    endloop
  endfacet
  facet normal 1 -0 0
    outer loop
      vertex 1.5 0.799999 8.2
      vertex 1.5 5.8 1.5
      vertex 1.5 5.8 8.2
    endloop
  endfacet
  facet normal 1 0 0
    outer loop
      vertex 1.5 5.8 1.5
      vertex 1.5 0.799999 8.2
      vertex 1.5 0.799999 1.5
    endloop
  endfacet
  facet normal 0 1 0
    outer loop
      vertex 14.2 0.799999 8.2
      vertex 11.85 0.799999 7.35
      vertex 1.5 0.799999 8.2
    endloop
  endfacet
  facet normal 0 1 0
    outer loop
      vertex 14.2 0.799999 8.2
      vertex 11.85 0.799999 2.35
      vertex 11.85 0.799999 7.35
    endloop
  endfacet
  facet normal 0 1 0
    outer loop
      vertex 11.85 0.799999 2.35
      vertex 14.2 0.799999 1.5
      vertex 3.85 0.799999 2.35
    endloop
  endfacet
  facet normal 0 1 -0
    outer loop
      vertex 14.2 0.799999 1.5
      vertex 11.85 0.799999 2.35
      vertex 14.2 0.799999 8.2
    endloop
  endfacet
  facet normal 0 1 -0
    outer loop
      vertex 3.85 0.799999 7.35
      vertex 1.5 0.799999 8.2
      vertex 11.85 0.799999 7.35
    endloop
  endfacet
  facet normal 0 1 -0
    outer loop
      vertex 3.85 0.799999 2.35
      vertex 1.5 0.799999 8.2
      vertex 3.85 0.799999 7.35
    endloop
  endfacet
  facet normal 0 1 0
    outer loop
      vertex 3.85 0.799999 2.35
      vertex 1.5 0.799999 1.5
      vertex 1.5 0.799999 8.2
    endloop
  endfacet
  facet normal 0 1 0
    outer loop
      vertex 1.5 0.799999 1.5
      vertex 3.85 0.799999 2.35
      vertex 14.2 0.799999 1.5
    endloop
  endfacet
  facet normal -1 0 0
    outer loop
      vertex 11.85 0 2.35
      vertex 11.85 0.799999 7.35
      vertex 11.85 0.799999 2.35
    endloop
  endfacet
  facet normal -1 -0 0
    outer loop
      vertex 11.85 0.799999 7.35
      vertex 11.85 0 2.35
      vertex 11.85 0 7.35
    endloop
  endfacet
  facet normal 0 0 -1
    outer loop
      vertex 3.85 0 7.35
      vertex 11.85 0.799999 7.35
      vertex 11.85 0 7.35
    endloop
  endfacet
  facet normal -0 0 -1
    outer loop
      vertex 11.85 0.799999 7.35
      vertex 3.85 0 7.35
      vertex 3.85 0.799999 7.35
    endloop
  endfacet
  facet normal -0 0 1
    outer loop
      vertex 3.85 0.799999 2.35
      vertex 11.85 0 2.35
      vertex 11.85 0.799999 2.35
    endloop
  endfacet
  facet normal 0 0 1
    outer loop
      vertex 11.85 0 2.35
      vertex 3.85 0.799999 2.35
      vertex 3.85 0 2.35
    endloop
  endfacet
  facet normal 1 -0 0
    outer loop
      vertex 3.85 0 7.35
      vertex 3.85 0.799999 2.35
      vertex 3.85 0.799999 7.35
    endloop
  endfacet
  facet normal 1 0 0
    outer loop
      vertex 3.85 0.799999 2.35
      vertex 3.85 0 7.35
      vertex 3.85 0 2.35
    endloop
  endfacet
endsolid OpenSCAD_Model
