solid OpenSCAD_Model
  facet normal -0 0 1
    outer loop
      vertex 19.4 11.5 12
      vertex 21.6 8 12
      vertex 21.6 11.5 12
    endloop
  endfacet
  facet normal 0 0 1
    outer loop
      vertex 21.6 8 12
      vertex 19.4 11.5 12
      vertex 19.4 8 12
    endloop
  endfacet
  facet normal -0 0 1
    outer loop
      vertex 8 21.6 12
      vertex 11.5 19.4 12
      vertex 11.5 21.6 12
    endloop
  endfacet
  facet normal 0 0 1
    outer loop
      vertex 11.5 19.4 12
      vertex 8 21.6 12
      vertex 8 19.4 12
    endloop
  endfacet
  facet normal 0 0 1
    outer loop
      vertex 8 11.5 12
      vertex 11.5 11.5 12
      vertex 11.5 16.5 12
    endloop
  endfacet
  facet normal 0 0 1
    outer loop
      vertex 11.5 11.5 12
      vertex 8 11.5 12
      vertex 11.5 8 12
    endloop
  endfacet
  facet normal 0 0 1
    outer loop
      vertex 8 11.5 12
      vertex 11.5 16.5 12
      vertex 8 16.5 12
    endloop
  endfacet
  facet normal 0 0 1
    outer loop
      vertex 5.65685 5.65685 12
      vertex 11.5 8 12
      vertex 8 11.5 12
    endloop
  endfacet
  facet normal 0 0 1
    outer loop
      vertex 11.5 8 12
      vertex 7.39104 3.06147 12
      vertex 11.5 0 12
    endloop
  endfacet
  facet normal 0 0 1
    outer loop
      vertex 11.5 0 12
      vertex 7.84628 1.56072 12
      vertex 8 0 12
    endloop
  endfacet
  facet normal 0 0 1
    outer loop
      vertex 11.5 0 12
      vertex 7.39104 3.06147 12
      vertex 7.84628 1.56072 12
    endloop
  endfacet
  facet normal 0 0 1
    outer loop
      vertex 11.5 8 12
      vertex 6.65176 4.44456 12
      vertex 7.39104 3.06147 12
    endloop
  endfacet
  facet normal 0 0 1
    outer loop
      vertex 11.5 8 12
      vertex 5.65685 5.65685 12
      vertex 6.65176 4.44456 12
    endloop
  endfacet
  facet normal 0 0 1
    outer loop
      vertex 8 11.5 12
      vertex 4.44456 6.65176 12
      vertex 5.65685 5.65685 12
    endloop
  endfacet
  facet normal 0 0 1
    outer loop
      vertex 8 11.5 12
      vertex 3.06147 7.39104 12
      vertex 4.44456 6.65176 12
    endloop
  endfacet
  facet normal -0 0 1
    outer loop
      vertex 0 11.5 12
      vertex 3.06147 7.39104 12
      vertex 8 11.5 12
    endloop
  endfacet
  facet normal 0 0 1
    outer loop
      vertex 3.06147 7.39104 12
      vertex 0 11.5 12
      vertex 1.56072 7.84628 12
    endloop
  endfacet
  facet normal 0 0 1
    outer loop
      vertex 1.56072 7.84628 12
      vertex 0 11.5 12
      vertex 0 8 12
    endloop
  endfacet
  facet normal -0 0 1
    outer loop
      vertex 11.5 11.5 12
      vertex 16.5 8 12
      vertex 16.5 11.5 12
    endloop
  endfacet
  facet normal 0 0 1
    outer loop
      vertex 16.5 8 12
      vertex 11.5 11.5 12
      vertex 11.5 8 12
    endloop
  endfacet
  facet normal -0 0 1
    outer loop
      vertex 24.5 11.5 12
      vertex 30 8 12
      vertex 30 11.5 12
    endloop
  endfacet
  facet normal 0 0 1
    outer loop
      vertex 30 8 12
      vertex 24.5 11.5 12
      vertex 24.5 8 12
    endloop
  endfacet
  facet normal -0 0 1
    outer loop
      vertex 8 30 12
      vertex 11.5 24.5 12
      vertex 11.5 30 12
    endloop
  endfacet
  facet normal 0 0 1
    outer loop
      vertex 11.5 24.5 12
      vertex 8 30 12
      vertex 8 24.5 12
    endloop
  endfacet
  facet normal -0.956942 -0.29028 0
    outer loop
      vertex 7.84628 1.56072 2.9
      vertex 7.39104 3.06147 12
      vertex 7.39104 3.06147 2.9
    endloop
  endfacet
  facet normal -0.956942 -0.29028 0
    outer loop
      vertex 7.39104 3.06147 12
      vertex 7.84628 1.56072 2.9
      vertex 7.84628 1.56072 12
    endloop
  endfacet
  facet normal -0.995185 -0.0980187 0
    outer loop
      vertex 8 0 2.9
      vertex 7.84628 1.56072 12
      vertex 7.84628 1.56072 2.9
    endloop
  endfacet
  facet normal -0.995185 -0.0980187 0
    outer loop
      vertex 7.84628 1.56072 12
      vertex 8 0 2.9
      vertex 8 0 12
    endloop
  endfacet
  facet normal -0.88192 -0.471398 0
    outer loop
      vertex 7.39104 3.06147 2.9
      vertex 6.65176 4.44456 12
      vertex 6.65176 4.44456 2.9
    endloop
  endfacet
  facet normal -0.88192 -0.471398 0
    outer loop
      vertex 6.65176 4.44456 12
      vertex 7.39104 3.06147 2.9
      vertex 7.39104 3.06147 12
    endloop
  endfacet
  facet normal -0.634397 -0.773008 0
    outer loop
      vertex 4.44456 6.65176 2.9
      vertex 5.65685 5.65685 12
      vertex 4.44456 6.65176 12
    endloop
  endfacet
  facet normal -0.634397 -0.773008 -0
    outer loop
      vertex 5.65685 5.65685 12
      vertex 4.44456 6.65176 2.9
      vertex 5.65685 5.65685 2.9
    endloop
  endfacet
  facet normal -0.29028 -0.956942 0
    outer loop
      vertex 1.56072 7.84628 2.9
      vertex 3.06147 7.39104 12
      vertex 1.56072 7.84628 12
    endloop
  endfacet
  facet normal -0.29028 -0.956942 -0
    outer loop
      vertex 3.06147 7.39104 12
      vertex 1.56072 7.84628 2.9
      vertex 3.06147 7.39104 2.9
    endloop
  endfacet
  facet normal -0.773008 -0.634397 0
    outer loop
      vertex 6.65176 4.44456 2.9
      vertex 5.65685 5.65685 12
      vertex 5.65685 5.65685 2.9
    endloop
  endfacet
  facet normal -0.773008 -0.634397 0
    outer loop
      vertex 5.65685 5.65685 12
      vertex 6.65176 4.44456 2.9
      vertex 6.65176 4.44456 12
    endloop
  endfacet
  facet normal -0.0980187 -0.995185 0
    outer loop
      vertex 0 8 2.9
      vertex 1.56072 7.84628 12
      vertex 0 8 12
    endloop
  endfacet
  facet normal -0.0980187 -0.995185 -0
    outer loop
      vertex 1.56072 7.84628 12
      vertex 0 8 2.9
      vertex 1.56072 7.84628 2.9
    endloop
  endfacet
  facet normal -0.471398 -0.88192 0
    outer loop
      vertex 3.06147 7.39104 2.9
      vertex 4.44456 6.65176 12
      vertex 3.06147 7.39104 12
    endloop
  endfacet
  facet normal -0.471398 -0.88192 -0
    outer loop
      vertex 4.44456 6.65176 12
      vertex 3.06147 7.39104 2.9
      vertex 4.44456 6.65176 2.9
    endloop
  endfacet
  facet normal -1 0 0
    outer loop
      vertex 0 11.082 3.18198
      vertex 0 11.5 2.9
      vertex 0 11.364 2.9
    endloop
  endfacet
  facet normal -1 0 0
    outer loop
      vertex 0 11.5 2.9
      vertex 0 11.082 3.18198
      vertex 0 11.5 12
    endloop
  endfacet
  facet normal -1 0 0
    outer loop
      vertex 0 8 2.9
      vertex 0 11.082 3.18198
      vertex 0 10.8 2.9
    endloop
  endfacet
  facet normal -1 -0 0
    outer loop
      vertex 0 11.082 3.18198
      vertex 0 8 2.9
      vertex 0 8 12
    endloop
  endfacet
  facet normal -1 0 0
    outer loop
      vertex 0 11.082 3.18198
      vertex 0 8 12
      vertex 0 11.5 12
    endloop
  endfacet
  facet normal 0 -1 0
    outer loop
      vertex 11.2529 0 3.18198
      vertex 11.3619 0 3.07471
      vertex 11.4729 0 3.18198
    endloop
  endfacet
  facet normal 0 -1 0
    outer loop
      vertex 11.1243 0 3.18198
      vertex 11.1883 0 3.11828
      vertex 11.2529 0 3.18198
    endloop
  endfacet
  facet normal 0 -1 0
    outer loop
      vertex 11.082 0 3.18198
      vertex 11.1031 0 3.16085
      vertex 11.1243 0 3.18198
    endloop
  endfacet
  facet normal 0 -1 0
    outer loop
      vertex 8 0 12
      vertex 11.082 0 3.18198
      vertex 11.5 0 12
    endloop
  endfacet
  facet normal 0 -1 0
    outer loop
      vertex 8 0 2.9
      vertex 11.082 0 3.18198
      vertex 8 0 12
    endloop
  endfacet
  facet normal 0 -1 0
    outer loop
      vertex 11.082 0 3.18198
      vertex 8 0 2.9
      vertex 10.8 0 2.9
    endloop
  endfacet
  facet normal 0 -1 0
    outer loop
      vertex 11.1243 0 3.18198
      vertex 11.5 0 12
      vertex 11.082 0 3.18198
    endloop
  endfacet
  facet normal 0 -1 0
    outer loop
      vertex 11.2529 0 3.18198
      vertex 11.5 0 12
      vertex 11.1243 0 3.18198
    endloop
  endfacet
  facet normal 0 -1 0
    outer loop
      vertex 11.4729 0 3.18198
      vertex 11.5 0 12
      vertex 11.2529 0 3.18198
    endloop
  endfacet
  facet normal 0 -1 -0
    outer loop
      vertex 11.5 0 12
      vertex 11.4729 0 3.18198
      vertex 11.5 0 3.15581
    endloop
  endfacet
  facet normal 1 -0 0
    outer loop
      vertex 30 8 12
      vertex 30 11.5 2.9
      vertex 30 11.5 12
    endloop
  endfacet
  facet normal 1 0 0
    outer loop
      vertex 30 11.5 2.9
      vertex 30 8 12
      vertex 30 8 2.9
    endloop
  endfacet
  facet normal 0 1 -0
    outer loop
      vertex 30 11.5 2.9
      vertex 24.5 11.5 12
      vertex 30 11.5 12
    endloop
  endfacet
  facet normal 0 1 0
    outer loop
      vertex 24.5 11.5 12
      vertex 30 11.5 2.9
      vertex 21.6 11.5 12
    endloop
  endfacet
  facet normal 0 1 0
    outer loop
      vertex 11.5 11.5 2.9
      vertex 21.6 11.5 12
      vertex 30 11.5 2.9
    endloop
  endfacet
  facet normal 0 1 0
    outer loop
      vertex 21.6 11.5 12
      vertex 11.5 11.5 2.9
      vertex 19.4 11.5 12
    endloop
  endfacet
  facet normal 0 1 0
    outer loop
      vertex 19.4 11.5 12
      vertex 11.5 11.5 2.9
      vertex 16.5 11.5 12
    endloop
  endfacet
  facet normal 0 1 0
    outer loop
      vertex 16.5 11.5 12
      vertex 11.5 11.5 2.9
      vertex 11.5 11.5 12
    endloop
  endfacet
  facet normal 0 1 0
    outer loop
      vertex 24.5 11.5 14
      vertex 20.5 11.5 13.1
      vertex 16.5 11.5 14
    endloop
  endfacet
  facet normal 0 1 0
    outer loop
      vertex 24.5 11.5 14
      vertex 20.7146 11.5 13.0789
      vertex 20.5 11.5 13.1
    endloop
  endfacet
  facet normal 0 1 0
    outer loop
      vertex 24.5 11.5 14
      vertex 20.921 11.5 13.0163
      vertex 20.7146 11.5 13.0789
    endloop
  endfacet
  facet normal 0 1 0
    outer loop
      vertex 24.5 11.5 14
      vertex 21.1111 11.5 12.9146
      vertex 20.921 11.5 13.0163
    endloop
  endfacet
  facet normal 0 1 0
    outer loop
      vertex 24.5 11.5 14
      vertex 21.2778 11.5 12.7778
      vertex 21.1111 11.5 12.9146
    endloop
  endfacet
  facet normal 0 1 0
    outer loop
      vertex 24.5 11.5 14
      vertex 21.4146 11.5 12.6111
      vertex 21.2778 11.5 12.7778
    endloop
  endfacet
  facet normal 0 1 0
    outer loop
      vertex 24.5 11.5 14
      vertex 21.5163 11.5 12.421
      vertex 21.4146 11.5 12.6111
    endloop
  endfacet
  facet normal 0 1 -0
    outer loop
      vertex 24.5 11.5 12
      vertex 21.5163 11.5 12.421
      vertex 24.5 11.5 14
    endloop
  endfacet
  facet normal 0 1 0
    outer loop
      vertex 21.5163 11.5 12.421
      vertex 24.5 11.5 12
      vertex 21.5789 11.5 12.2146
    endloop
  endfacet
  facet normal 0 1 0
    outer loop
      vertex 21.5789 11.5 12.2146
      vertex 24.5 11.5 12
      vertex 21.6 11.5 12
    endloop
  endfacet
  facet normal 0 1 -0
    outer loop
      vertex 20.2854 11.5 13.0789
      vertex 16.5 11.5 14
      vertex 20.5 11.5 13.1
    endloop
  endfacet
  facet normal 0 1 -0
    outer loop
      vertex 20.079 11.5 13.0163
      vertex 16.5 11.5 14
      vertex 20.2854 11.5 13.0789
    endloop
  endfacet
  facet normal 0 1 -0
    outer loop
      vertex 19.8889 11.5 12.9146
      vertex 16.5 11.5 14
      vertex 20.079 11.5 13.0163
    endloop
  endfacet
  facet normal 0 1 -0
    outer loop
      vertex 19.7222 11.5 12.7778
      vertex 16.5 11.5 14
      vertex 19.8889 11.5 12.9146
    endloop
  endfacet
  facet normal 0 1 -0
    outer loop
      vertex 19.5854 11.5 12.6111
      vertex 16.5 11.5 14
      vertex 19.7222 11.5 12.7778
    endloop
  endfacet
  facet normal 0 1 -0
    outer loop
      vertex 19.4837 11.5 12.421
      vertex 16.5 11.5 14
      vertex 19.5854 11.5 12.6111
    endloop
  endfacet
  facet normal 0 1 0
    outer loop
      vertex 16.5 11.5 12
      vertex 19.4837 11.5 12.421
      vertex 19.4211 11.5 12.2146
    endloop
  endfacet
  facet normal 0 1 0
    outer loop
      vertex 16.5 11.5 12
      vertex 19.4211 11.5 12.2146
      vertex 19.4 11.5 12
    endloop
  endfacet
  facet normal 0 1 0
    outer loop
      vertex 19.4837 11.5 12.421
      vertex 16.5 11.5 12
      vertex 16.5 11.5 14
    endloop
  endfacet
  facet normal 0 1 -0
    outer loop
      vertex 8 11.5 2.9
      vertex 0 11.5 12
      vertex 8 11.5 12
    endloop
  endfacet
  facet normal 0 1 0
    outer loop
      vertex 0 11.5 12
      vertex 8 11.5 2.9
      vertex 0 11.5 2.9
    endloop
  endfacet
  facet normal 0 -1 0
    outer loop
      vertex 11.5 8 2.9
      vertex 16.5 8 12
      vertex 11.5 8 12
    endloop
  endfacet
  facet normal 0 -1 -0
    outer loop
      vertex 16.5 8 12
      vertex 11.5 8 2.9
      vertex 19.4 8 12
    endloop
  endfacet
  facet normal 0 -1 -0
    outer loop
      vertex 19.4 8 12
      vertex 11.5 8 2.9
      vertex 21.6 8 12
    endloop
  endfacet
  facet normal 0 -1 0
    outer loop
      vertex 30 8 2.9
      vertex 21.6 8 12
      vertex 11.5 8 2.9
    endloop
  endfacet
  facet normal 0 -1 0
    outer loop
      vertex 21.6 8 12
      vertex 30 8 2.9
      vertex 24.5 8 12
    endloop
  endfacet
  facet normal 0 -1 0
    outer loop
      vertex 24.5 8 12
      vertex 30 8 2.9
      vertex 30 8 12
    endloop
  endfacet
  facet normal 0 -1 0
    outer loop
      vertex 16.5 8 14
      vertex 20.5 8 13.1
      vertex 24.5 8 14
    endloop
  endfacet
  facet normal 0 -1 0
    outer loop
      vertex 16.5 8 14
      vertex 20.2854 8 13.0789
      vertex 20.5 8 13.1
    endloop
  endfacet
  facet normal 0 -1 0
    outer loop
      vertex 16.5 8 14
      vertex 20.079 8 13.0163
      vertex 20.2854 8 13.0789
    endloop
  endfacet
  facet normal 0 -1 0
    outer loop
      vertex 16.5 8 14
      vertex 19.8889 8 12.9146
      vertex 20.079 8 13.0163
    endloop
  endfacet
  facet normal 0 -1 0
    outer loop
      vertex 16.5 8 14
      vertex 19.7222 8 12.7778
      vertex 19.8889 8 12.9146
    endloop
  endfacet
  facet normal 0 -1 0
    outer loop
      vertex 16.5 8 14
      vertex 19.5854 8 12.6111
      vertex 19.7222 8 12.7778
    endloop
  endfacet
  facet normal 0 -1 0
    outer loop
      vertex 16.5 8 14
      vertex 19.4837 8 12.421
      vertex 19.5854 8 12.6111
    endloop
  endfacet
  facet normal 0 -1 0
    outer loop
      vertex 16.5 8 12
      vertex 19.4837 8 12.421
      vertex 16.5 8 14
    endloop
  endfacet
  facet normal 0 -1 0
    outer loop
      vertex 19.4837 8 12.421
      vertex 16.5 8 12
      vertex 19.4211 8 12.2146
    endloop
  endfacet
  facet normal 0 -1 0
    outer loop
      vertex 19.4211 8 12.2146
      vertex 16.5 8 12
      vertex 19.4 8 12
    endloop
  endfacet
  facet normal 0 -1 0
    outer loop
      vertex 20.7146 8 13.0789
      vertex 24.5 8 14
      vertex 20.5 8 13.1
    endloop
  endfacet
  facet normal 0 -1 0
    outer loop
      vertex 20.921 8 13.0163
      vertex 24.5 8 14
      vertex 20.7146 8 13.0789
    endloop
  endfacet
  facet normal 0 -1 0
    outer loop
      vertex 21.1111 8 12.9146
      vertex 24.5 8 14
      vertex 20.921 8 13.0163
    endloop
  endfacet
  facet normal 0 -1 0
    outer loop
      vertex 21.2778 8 12.7778
      vertex 24.5 8 14
      vertex 21.1111 8 12.9146
    endloop
  endfacet
  facet normal 0 -1 0
    outer loop
      vertex 21.4146 8 12.6111
      vertex 24.5 8 14
      vertex 21.2778 8 12.7778
    endloop
  endfacet
  facet normal 0 -1 0
    outer loop
      vertex 21.5163 8 12.421
      vertex 24.5 8 14
      vertex 21.4146 8 12.6111
    endloop
  endfacet
  facet normal 0 -1 0
    outer loop
      vertex 24.5 8 12
      vertex 21.5163 8 12.421
      vertex 21.5789 8 12.2146
    endloop
  endfacet
  facet normal 0 -1 0
    outer loop
      vertex 24.5 8 12
      vertex 21.5789 8 12.2146
      vertex 21.6 8 12
    endloop
  endfacet
  facet normal 0 -1 0
    outer loop
      vertex 21.5163 8 12.421
      vertex 24.5 8 12
      vertex 24.5 8 14
    endloop
  endfacet
  facet normal 1 -0 0
    outer loop
      vertex 11.5 21.5163 12.421
      vertex 11.5 24.5 12
      vertex 11.5 24.5 14
    endloop
  endfacet
  facet normal 1 0 0
    outer loop
      vertex 11.5 24.5 12
      vertex 11.5 21.5789 12.2146
      vertex 11.5 21.6 12
    endloop
  endfacet
  facet normal 1 0 0
    outer loop
      vertex 11.5 24.5 12
      vertex 11.5 21.5163 12.421
      vertex 11.5 21.5789 12.2146
    endloop
  endfacet
  facet normal 1 0 0
    outer loop
      vertex 11.5 24.5 14
      vertex 11.5 21.4146 12.6111
      vertex 11.5 21.5163 12.421
    endloop
  endfacet
  facet normal 1 0 0
    outer loop
      vertex 11.5 24.5 14
      vertex 11.5 21.2778 12.7778
      vertex 11.5 21.4146 12.6111
    endloop
  endfacet
  facet normal 1 0 0
    outer loop
      vertex 11.5 24.5 14
      vertex 11.5 21.1111 12.9146
      vertex 11.5 21.2778 12.7778
    endloop
  endfacet
  facet normal 1 0 0
    outer loop
      vertex 11.5 24.5 14
      vertex 11.5 20.921 13.0163
      vertex 11.5 21.1111 12.9146
    endloop
  endfacet
  facet normal 1 0 0
    outer loop
      vertex 11.5 24.5 14
      vertex 11.5 20.7146 13.0789
      vertex 11.5 20.921 13.0163
    endloop
  endfacet
  facet normal 1 0 0
    outer loop
      vertex 11.5 24.5 14
      vertex 11.5 20.5 13.1
      vertex 11.5 20.7146 13.0789
    endloop
  endfacet
  facet normal 1 -0 0
    outer loop
      vertex 11.5 16.5 14
      vertex 11.5 20.5 13.1
      vertex 11.5 24.5 14
    endloop
  endfacet
  facet normal 1 0 0
    outer loop
      vertex 11.5 19.4837 12.421
      vertex 11.5 16.5 12
      vertex 11.5 19.4211 12.2146
    endloop
  endfacet
  facet normal 1 0 0
    outer loop
      vertex 11.5 16.5 12
      vertex 11.5 19.4837 12.421
      vertex 11.5 16.5 14
    endloop
  endfacet
  facet normal 1 0 0
    outer loop
      vertex 11.5 19.5854 12.6111
      vertex 11.5 16.5 14
      vertex 11.5 19.4837 12.421
    endloop
  endfacet
  facet normal 1 0 0
    outer loop
      vertex 11.5 19.7222 12.7778
      vertex 11.5 16.5 14
      vertex 11.5 19.5854 12.6111
    endloop
  endfacet
  facet normal 1 0 0
    outer loop
      vertex 11.5 19.8889 12.9146
      vertex 11.5 16.5 14
      vertex 11.5 19.7222 12.7778
    endloop
  endfacet
  facet normal 1 0 0
    outer loop
      vertex 11.5 20.079 13.0163
      vertex 11.5 16.5 14
      vertex 11.5 19.8889 12.9146
    endloop
  endfacet
  facet normal 1 0 0
    outer loop
      vertex 11.5 20.2854 13.0789
      vertex 11.5 16.5 14
      vertex 11.5 20.079 13.0163
    endloop
  endfacet
  facet normal 1 0 0
    outer loop
      vertex 11.5 20.5 13.1
      vertex 11.5 16.5 14
      vertex 11.5 20.2854 13.0789
    endloop
  endfacet
  facet normal 1 -0 0
    outer loop
      vertex 11.5 24.5 12
      vertex 11.5 30 2.9
      vertex 11.5 30 12
    endloop
  endfacet
  facet normal 1 -0 0
    outer loop
      vertex 11.5 21.6 12
      vertex 11.5 30 2.9
      vertex 11.5 24.5 12
    endloop
  endfacet
  facet normal 1 0 0
    outer loop
      vertex 11.5 11.5 2.9
      vertex 11.5 21.6 12
      vertex 11.5 19.4 12
    endloop
  endfacet
  facet normal 1 0 0
    outer loop
      vertex 11.5 19.4211 12.2146
      vertex 11.5 16.5 12
      vertex 11.5 19.4 12
    endloop
  endfacet
  facet normal 1 0 0
    outer loop
      vertex 11.5 11.5 2.9
      vertex 11.5 19.4 12
      vertex 11.5 16.5 12
    endloop
  endfacet
  facet normal 1 0 0
    outer loop
      vertex 11.5 11.5 2.9
      vertex 11.5 16.5 12
      vertex 11.5 11.5 12
    endloop
  endfacet
  facet normal 1 0 0
    outer loop
      vertex 11.5 21.6 12
      vertex 11.5 11.5 2.9
      vertex 11.5 30 2.9
    endloop
  endfacet
  facet normal 1 0 0
    outer loop
      vertex 11.5 8 12
      vertex 11.5 2.80934 2.9
      vertex 11.5 8 2.9
    endloop
  endfacet
  facet normal 1 0 0
    outer loop
      vertex 11.5 8 12
      vertex 11.5 2.48261 3.06336
      vertex 11.5 2.80934 2.9
    endloop
  endfacet
  facet normal 1 0 0
    outer loop
      vertex 11.5 2.48261 3.06336
      vertex 11.5 2.22759 2.9
      vertex 11.5 2.48261 2.9
    endloop
  endfacet
  facet normal 1 -0 0
    outer loop
      vertex 11.5 0 12
      vertex 11.5 2.48261 3.06336
      vertex 11.5 8 12
    endloop
  endfacet
  facet normal 1 0 0
    outer loop
      vertex 11.5 2.48261 3.06336
      vertex 11.5 1.56037 3.18198
      vertex 11.5 2.22759 2.9
    endloop
  endfacet
  facet normal 1 0 0
    outer loop
      vertex 11.5 2.48261 3.06336
      vertex 11.5 0 12
      vertex 11.5 1.56037 3.18198
    endloop
  endfacet
  facet normal 1 0 -0
    outer loop
      vertex 11.5 0.805551 3.18198
      vertex 11.5 1.56037 3.18198
      vertex 11.5 0 12
    endloop
  endfacet
  facet normal 1 0 0
    outer loop
      vertex 11.5 1.39038 3.11014
      vertex 11.5 0.805551 3.18198
      vertex 11.5 1.39038 2.98196
    endloop
  endfacet
  facet normal 1 0 0
    outer loop
      vertex 11.5 1.56037 3.18198
      vertex 11.5 0.805551 3.18198
      vertex 11.5 1.45014 3.1354
    endloop
  endfacet
  facet normal 1 0 0
    outer loop
      vertex 11.5 1.45014 3.1354
      vertex 11.5 0.805551 3.18198
      vertex 11.5 1.39038 3.11014
    endloop
  endfacet
  facet normal 1 0 0
    outer loop
      vertex 11.5 0 3.15581
      vertex 11.5 0.805551 3.18198
      vertex 11.5 0 12
    endloop
  endfacet
  facet normal 1 0 0
    outer loop
      vertex 11.5 0.805551 3.18198
      vertex 11.5 0 3.15581
      vertex 11.5 0.488711 3.07361
    endloop
  endfacet
  facet normal 1 0 0
    outer loop
      vertex 11.5 0.488711 3.07361
      vertex 11.5 0 3.15581
      vertex 11.5 0.414998 3.0484
    endloop
  endfacet
  facet normal -1 0 0
    outer loop
      vertex 8 30 2.9
      vertex 8 24.5 12
      vertex 8 30 12
    endloop
  endfacet
  facet normal -1 0 0
    outer loop
      vertex 8 21.5789 12.2146
      vertex 8 24.5 12
      vertex 8 21.6 12
    endloop
  endfacet
  facet normal -1 0 0
    outer loop
      vertex 8 30 2.9
      vertex 8 21.6 12
      vertex 8 24.5 12
    endloop
  endfacet
  facet normal -1 0 0
    outer loop
      vertex 8 11.5 2.9
      vertex 8 21.6 12
      vertex 8 30 2.9
    endloop
  endfacet
  facet normal -1 -0 0
    outer loop
      vertex 8 21.6 12
      vertex 8 11.5 2.9
      vertex 8 19.4 12
    endloop
  endfacet
  facet normal -1 -0 0
    outer loop
      vertex 8 19.4 12
      vertex 8 11.5 2.9
      vertex 8 16.5 12
    endloop
  endfacet
  facet normal -1 -0 0
    outer loop
      vertex 8 16.5 12
      vertex 8 11.5 2.9
      vertex 8 11.5 12
    endloop
  endfacet
  facet normal -1 0 0
    outer loop
      vertex 8 21.5163 12.421
      vertex 8 24.5 12
      vertex 8 21.5789 12.2146
    endloop
  endfacet
  facet normal -1 0 0
    outer loop
      vertex 8 24.5 12
      vertex 8 21.5163 12.421
      vertex 8 24.5 14
    endloop
  endfacet
  facet normal -1 0 0
    outer loop
      vertex 8 21.4146 12.6111
      vertex 8 24.5 14
      vertex 8 21.5163 12.421
    endloop
  endfacet
  facet normal -1 0 0
    outer loop
      vertex 8 21.2778 12.7778
      vertex 8 24.5 14
      vertex 8 21.4146 12.6111
    endloop
  endfacet
  facet normal -1 0 0
    outer loop
      vertex 8 21.1111 12.9146
      vertex 8 24.5 14
      vertex 8 21.2778 12.7778
    endloop
  endfacet
  facet normal -1 0 0
    outer loop
      vertex 8 20.921 13.0163
      vertex 8 24.5 14
      vertex 8 21.1111 12.9146
    endloop
  endfacet
  facet normal -1 0 0
    outer loop
      vertex 8 20.7146 13.0789
      vertex 8 24.5 14
      vertex 8 20.921 13.0163
    endloop
  endfacet
  facet normal -1 0 0
    outer loop
      vertex 8 20.5 13.1
      vertex 8 24.5 14
      vertex 8 20.7146 13.0789
    endloop
  endfacet
  facet normal -1 0 0
    outer loop
      vertex 8 16.5 14
      vertex 8 20.5 13.1
      vertex 8 20.2854 13.0789
    endloop
  endfacet
  facet normal -1 0 0
    outer loop
      vertex 8 16.5 12
      vertex 8 19.4211 12.2146
      vertex 8 19.4 12
    endloop
  endfacet
  facet normal -1 0 0
    outer loop
      vertex 8 16.5 12
      vertex 8 19.4837 12.421
      vertex 8 19.4211 12.2146
    endloop
  endfacet
  facet normal -1 0 0
    outer loop
      vertex 8 16.5 14
      vertex 8 19.4837 12.421
      vertex 8 16.5 12
    endloop
  endfacet
  facet normal -1 0 0
    outer loop
      vertex 8 19.4837 12.421
      vertex 8 16.5 14
      vertex 8 19.5854 12.6111
    endloop
  endfacet
  facet normal -1 0 0
    outer loop
      vertex 8 19.5854 12.6111
      vertex 8 16.5 14
      vertex 8 19.7222 12.7778
    endloop
  endfacet
  facet normal -1 0 0
    outer loop
      vertex 8 19.7222 12.7778
      vertex 8 16.5 14
      vertex 8 19.8889 12.9146
    endloop
  endfacet
  facet normal -1 0 0
    outer loop
      vertex 8 19.8889 12.9146
      vertex 8 16.5 14
      vertex 8 20.079 13.0163
    endloop
  endfacet
  facet normal -1 0 0
    outer loop
      vertex 8 20.5 13.1
      vertex 8 16.5 14
      vertex 8 24.5 14
    endloop
  endfacet
  facet normal -1 0 0
    outer loop
      vertex 8 20.079 13.0163
      vertex 8 16.5 14
      vertex 8 20.2854 13.0789
    endloop
  endfacet
  facet normal 0 1 -0
    outer loop
      vertex 11.5 30 2.9
      vertex 8 30 12
      vertex 11.5 30 12
    endloop
  endfacet
  facet normal 0 1 0
    outer loop
      vertex 8 30 12
      vertex 11.5 30 2.9
      vertex 8 30 2.9
    endloop
  endfacet
  facet normal 0 -1 0
    outer loop
      vertex 10.8325 0.0999994 2.9
      vertex 11.082 0.0999994 3.18198
      vertex 10.8 0.0999994 2.9
    endloop
  endfacet
  facet normal 0 -1 -0
    outer loop
      vertex 11.082 0.0999994 3.18198
      vertex 10.8325 0.0999994 2.9
      vertex 11.0987 0.0999994 3.16522
    endloop
  endfacet
  facet normal -0.707609 -0.000256187 -0.706604
    outer loop
      vertex 11.082 0 3.18198
      vertex 11.0987 0.0999994 3.16522
      vertex 11.1031 0 3.16085
    endloop
  endfacet
  facet normal -0.708374 0 -0.705838
    outer loop
      vertex 11.0987 0.0999994 3.16522
      vertex 11.082 0 3.18198
      vertex 11.082 0.0999994 3.18198
    endloop
  endfacet
  facet normal 0.707082 0 -0.707132
    outer loop
      vertex 11.082 0 3.18198
      vertex 10.8 0.0999994 2.9
      vertex 11.082 0.0999994 3.18198
    endloop
  endfacet
  facet normal 0.707082 0 -0.707132
    outer loop
      vertex 10.8 0.0999994 2.9
      vertex 11.082 0 3.18198
      vertex 10.8 0 2.9
    endloop
  endfacet
  facet normal -0.704104 -0.0615884 -0.707421
    outer loop
      vertex 11.1243 0 3.18198
      vertex 11.0505 1.04656 3.16432
      vertex 11.1883 0 3.11828
    endloop
  endfacet
  facet normal -0.704068 -0.0615864 -0.707457
    outer loop
      vertex 11.0505 1.04656 3.16432
      vertex 11.1243 0 3.18198
      vertex 11.0311 1.06548 3.18198
    endloop
  endfacet
  facet normal 0.704583 0.0618943 -0.706917
    outer loop
      vertex 11.0987 0.0999994 3.16522
      vertex 11.1243 0 3.18198
      vertex 11.1031 0 3.16085
    endloop
  endfacet
  facet normal 0.703814 0.0615642 -0.707712
    outer loop
      vertex 11.0987 0.0999994 3.16522
      vertex 11.0311 1.06548 3.18198
      vertex 11.1243 0 3.18198
    endloop
  endfacet
  facet normal 0.704461 0.0615983 -0.707064
    outer loop
      vertex 10.8325 0.0999994 2.9
      vertex 11.0311 1.06548 3.18198
      vertex 11.0987 0.0999994 3.16522
    endloop
  endfacet
  facet normal 0.704425 0.0616157 -0.707098
    outer loop
      vertex 11.0311 1.06548 3.18198
      vertex 10.8325 0.0999994 2.9
      vertex 10.7502 1.0409 2.9
    endloop
  endfacet
  facet normal -0.704298 -0.0620775 -0.707185
    outer loop
      vertex 11.0478 1.06694 3.16522
      vertex 11.0505 1.04656 3.16432
      vertex 11.0311 1.06548 3.18198
    endloop
  endfacet
  facet normal 0.0870144 -0.996207 0.000157563
    outer loop
      vertex 10.7826 1.04373 2.9
      vertex 11.0311 1.06548 3.18198
      vertex 10.7502 1.0409 2.9
    endloop
  endfacet
  facet normal 0.0871394 -0.996196 4.65883e-05
    outer loop
      vertex 11.0311 1.06548 3.18198
      vertex 10.7826 1.04373 2.9
      vertex 11.0478 1.06694 3.16522
    endloop
  endfacet
  facet normal -0.696124 -0.122741 -0.707351
    outer loop
      vertex 11.2529 0 3.18198
      vertex 10.9172 2.00569 3.16432
      vertex 11.3619 0 3.07471
    endloop
  endfacet
  facet normal -0.697484 -0.122957 -0.705973
    outer loop
      vertex 10.9172 2.00569 3.16432
      vertex 11.2529 0 3.18198
      vertex 10.8963 2.02285 3.18198
    endloop
  endfacet
  facet normal 0.696812 0.122836 -0.706657
    outer loop
      vertex 11.0505 1.04656 3.16432
      vertex 11.2529 0 3.18198
      vertex 11.1883 0 3.11828
    endloop
  endfacet
  facet normal 0.702354 0.124004 -0.700943
    outer loop
      vertex 11.0478 1.06694 3.16522
      vertex 11.2529 0 3.18198
      vertex 11.0505 1.04656 3.16432
    endloop
  endfacet
  facet normal 0.69647 0.122778 -0.707004
    outer loop
      vertex 11.0478 1.06694 3.16522
      vertex 10.8963 2.02285 3.18198
      vertex 11.2529 0 3.18198
    endloop
  endfacet
  facet normal 0.696392 0.122767 -0.707083
    outer loop
      vertex 10.7826 1.04373 2.9
      vertex 10.8963 2.02285 3.18198
      vertex 11.0478 1.06694 3.16522
    endloop
  endfacet
  facet normal 0.69636 0.122779 -0.707113
    outer loop
      vertex 10.8963 2.02285 3.18198
      vertex 10.7826 1.04373 2.9
      vertex 10.6186 1.97388 2.9
    endloop
  endfacet
  facet normal -0.696784 -0.121054 -0.706993
    outer loop
      vertex 10.9128 2.02576 3.16522
      vertex 10.9172 2.00569 3.16432
      vertex 10.8963 2.02285 3.18198
    endloop
  endfacet
  facet normal 0.173683 -0.984802 0
    outer loop
      vertex 10.9128 2.02576 3.16522
      vertex 10.8963 2.02285 3.18198
      vertex 10.8963 2.02285 3.14853
    endloop
  endfacet
  facet normal 0.173662 -0.984805 0
    outer loop
      vertex 10.6186 1.97388 2.9
      vertex 10.8963 2.02285 3.14853
      vertex 10.8963 2.02285 3.18198
    endloop
  endfacet
  facet normal 0.173873 -0.984768 -0.000243314
    outer loop
      vertex 10.8963 2.02285 3.14853
      vertex 10.6186 1.97388 2.9
      vertex 10.6506 1.97953 2.9
    endloop
  endfacet
  facet normal -0.682921 -0.183035 -0.70719
    outer loop
      vertex 11.4729 0 3.18198
      vertex 11.5 0.414998 3.0484
      vertex 11.5 0 3.15581
    endloop
  endfacet
  facet normal -0.683469 -0.182845 -0.706709
    outer loop
      vertex 11.4729 0 3.18198
      vertex 11.4718 0.504562 3.0525
      vertex 11.5 0.414998 3.0484
    endloop
  endfacet
  facet normal -0.682897 -0.182977 -0.707228
    outer loop
      vertex 10.6785 2.96482 3.18198
      vertex 11.4718 0.504562 3.0525
      vertex 11.4729 0 3.18198
    endloop
  endfacet
  facet normal -0.682473 -0.182816 -0.707679
    outer loop
      vertex 11.4718 0.504562 3.0525
      vertex 10.6785 2.96482 3.18198
      vertex 10.7009 2.94956 3.16432
    endloop
  endfacet
  facet normal -0.682647 -0.183459 -0.707344
    outer loop
      vertex 10.6947 2.96916 3.16522
      vertex 10.7009 2.94956 3.16432
      vertex 10.6785 2.96482 3.18198
    endloop
  endfacet
  facet normal 0.258716 -0.965954 7.5058e-05
    outer loop
      vertex 10.4375 2.90025 2.9
      vertex 10.6785 2.96482 3.18198
      vertex 10.4061 2.89184 2.9
    endloop
  endfacet
  facet normal 0.258786 -0.965935 1.0549e-05
    outer loop
      vertex 10.6785 2.96482 3.18198
      vertex 10.4375 2.90025 2.9
      vertex 10.6947 2.96916 3.16522
    endloop
  endfacet
  facet normal 0.683179 0.183058 -0.706934
    outer loop
      vertex 10.9172 2.00569 3.16432
      vertex 11.4729 0 3.18198
      vertex 11.3619 0 3.07471
    endloop
  endfacet
  facet normal 0.669119 0.179037 -0.721267
    outer loop
      vertex 10.9128 2.02576 3.16522
      vertex 11.4729 0 3.18198
      vertex 10.9172 2.00569 3.16432
    endloop
  endfacet
  facet normal 0.683753 0.183206 -0.706341
    outer loop
      vertex 10.9128 2.02576 3.16522
      vertex 10.6785 2.96482 3.18198
      vertex 11.4729 0 3.18198
    endloop
  endfacet
  facet normal 0.682989 0.183029 -0.707126
    outer loop
      vertex 10.8963 2.02285 3.14853
      vertex 10.6785 2.96482 3.18198
      vertex 10.9128 2.02576 3.16522
    endloop
  endfacet
  facet normal 0.682994 0.183031 -0.70712
    outer loop
      vertex 10.6506 1.97953 2.9
      vertex 10.6785 2.96482 3.18198
      vertex 10.8963 2.02285 3.14853
    endloop
  endfacet
  facet normal 0.682971 0.183037 -0.70714
    outer loop
      vertex 10.6785 2.96482 3.18198
      vertex 10.6506 1.97953 2.9
      vertex 10.4061 2.89184 2.9
    endloop
  endfacet
  facet normal -0.664447 -0.241846 -0.707121
    outer loop
      vertex 11.5 0.805551 3.18198
      vertex 11.4418 1.36324 3.04593
      vertex 11.5 1.39038 2.98196
    endloop
  endfacet
  facet normal -0.664188 -0.241876 -0.707355
    outer loop
      vertex 11.5 0.805551 3.18198
      vertex 11.3841 1.50247 3.0525
      vertex 11.4418 1.36324 3.04593
    endloop
  endfacet
  facet normal -0.664568 -0.241873 -0.706999
    outer loop
      vertex 10.3795 3.88423 3.18198
      vertex 11.3841 1.50247 3.0525
      vertex 11.5 0.805551 3.18198
    endloop
  endfacet
  facet normal -0.664748 -0.241959 -0.7068
    outer loop
      vertex 11.3841 1.50247 3.0525
      vertex 10.3795 3.88423 3.18198
      vertex 10.4031 3.87098 3.16432
    endloop
  endfacet
  facet normal 0.664913 0.241724 -0.706725
    outer loop
      vertex 11.4718 0.504562 3.0525
      vertex 11.5 0.805551 3.18198
      vertex 11.5 0.488711 3.07361
    endloop
  endfacet
  facet normal 0.664573 0.241872 -0.706994
    outer loop
      vertex 10.7009 2.94956 3.16432
      vertex 11.5 0.805551 3.18198
      vertex 11.4718 0.504562 3.0525
    endloop
  endfacet
  facet normal 0.671657 0.244575 -0.699329
    outer loop
      vertex 10.6947 2.96916 3.16522
      vertex 11.5 0.805551 3.18198
      vertex 10.7009 2.94956 3.16432
    endloop
  endfacet
  facet normal 0.664306 0.241777 -0.707277
    outer loop
      vertex 10.6947 2.96916 3.16522
      vertex 10.3795 3.88423 3.18198
      vertex 11.5 0.805551 3.18198
    endloop
  endfacet
  facet normal 0.66442 0.241814 -0.707157
    outer loop
      vertex 10.4375 2.90025 2.9
      vertex 10.3795 3.88423 3.18198
      vertex 10.6947 2.96916 3.16522
    endloop
  endfacet
  facet normal 0.664445 0.24181 -0.707136
    outer loop
      vertex 10.3795 3.88423 3.18198
      vertex 10.4375 2.90025 2.9
      vertex 10.1145 3.78779 2.9
    endloop
  endfacet
  facet normal -0.664988 -0.243304 -0.706112
    outer loop
      vertex 10.3952 3.88996 3.16522
      vertex 10.4031 3.87098 3.16432
      vertex 10.3795 3.88423 3.18198
    endloop
  endfacet
  facet normal 0.342848 -0.939391 0
    outer loop
      vertex 10.3952 3.88996 3.16522
      vertex 10.3795 3.88423 3.18198
      vertex 10.3795 3.88423 3.14853
    endloop
  endfacet
  facet normal 0.341982 -0.939706 0
    outer loop
      vertex 10.1145 3.78779 2.9
      vertex 10.3795 3.88423 3.14853
      vertex 10.3795 3.88423 3.18198
    endloop
  endfacet
  facet normal 0.342262 -0.939604 -0.000338399
    outer loop
      vertex 10.3795 3.88423 3.14853
      vertex 10.1145 3.78779 2.9
      vertex 10.145 3.7989 2.9
    endloop
  endfacet
  facet normal 0.664909 0.241705 -0.706735
    outer loop
      vertex 11.5 0.488711 3.07361
      vertex 11.5 0.414998 3.0484
      vertex 11.4718 0.504562 3.0525
    endloop
  endfacet
  facet normal 0.640783 0.298904 -0.707145
    outer loop
      vertex 11.4418 1.36324 3.04593
      vertex 11.5 1.45014 3.1354
      vertex 11.5 1.39038 3.11014
    endloop
  endfacet
  facet normal 0.64077 0.298918 -0.707151
    outer loop
      vertex 11.5 1.45014 3.1354
      vertex 11.4418 1.36324 3.04593
      vertex 11.3841 1.50247 3.0525
    endloop
  endfacet
  facet normal -0.640778 -0.298862 -0.707167
    outer loop
      vertex 11.2794 2.35527 3.04593
      vertex 11.5 2.22759 2.9
      vertex 11.5 1.56037 3.18198
    endloop
  endfacet
  facet normal -0.641812 -0.299312 -0.706037
    outer loop
      vertex 11.5 2.22759 2.9
      vertex 11.3973 2.4233 2.91039
      vertex 11.4063 2.42851 2.9
    endloop
  endfacet
  facet normal -0.640745 -0.298687 -0.707271
    outer loop
      vertex 11.5 2.22759 2.9
      vertex 11.2794 2.35527 3.04593
      vertex 11.3973 2.4233 2.91039
    endloop
  endfacet
  facet normal -0.641834 -0.298983 -0.706158
    outer loop
      vertex 11.5 1.56037 3.18198
      vertex 11.2099 2.48895 3.0525
      vertex 11.2794 2.35527 3.04593
    endloop
  endfacet
  facet normal -0.640754 -0.298793 -0.707217
    outer loop
      vertex 10.0014 4.77408 3.18198
      vertex 11.2099 2.48895 3.0525
      vertex 11.5 1.56037 3.18198
    endloop
  endfacet
  facet normal -0.640704 -0.298763 -0.707276
    outer loop
      vertex 11.2099 2.48895 3.0525
      vertex 10.0014 4.77408 3.18198
      vertex 10.0166 4.78116 3.16522
    endloop
  endfacet
  facet normal -0.42263 0.906302 0
    outer loop
      vertex 11.5 1.39038 3.11014
      vertex 11.5 1.39038 2.98196
      vertex 11.4418 1.36324 3.04593
    endloop
  endfacet
  facet normal 0.422431 -0.906395 0.000238297
    outer loop
      vertex 9.77532 4.66864 2.9
      vertex 10.0014 4.77408 3.18198
      vertex 9.74586 4.65491 2.9
    endloop
  endfacet
  facet normal 0.42244 -0.906391 0.000229157
    outer loop
      vertex 10.0014 4.77408 3.18198
      vertex 9.77532 4.66864 2.9
      vertex 10.0166 4.78116 3.16522
    endloop
  endfacet
  facet normal 0.640762 0.298838 -0.707191
    outer loop
      vertex 11.3841 1.50247 3.0525
      vertex 11.5 1.56037 3.18198
      vertex 11.5 1.45014 3.1354
    endloop
  endfacet
  facet normal 0.640785 0.298791 -0.70719
    outer loop
      vertex 10.4031 3.87098 3.16432
      vertex 11.5 1.56037 3.18198
      vertex 11.3841 1.50247 3.0525
    endloop
  endfacet
  facet normal 0.652835 0.304615 -0.693553
    outer loop
      vertex 10.3952 3.88996 3.16522
      vertex 11.5 1.56037 3.18198
      vertex 10.4031 3.87098 3.16432
    endloop
  endfacet
  facet normal 0.640759 0.298844 -0.707192
    outer loop
      vertex 10.0014 4.77408 3.18198
      vertex 10.3795 3.88423 3.14853
      vertex 10.145 3.7989 2.9
    endloop
  endfacet
  facet normal 0.641107 0.298958 -0.706828
    outer loop
      vertex 10.3952 3.88996 3.16522
      vertex 10.0014 4.77408 3.18198
      vertex 11.5 1.56037 3.18198
    endloop
  endfacet
  facet normal 0.641618 0.299175 -0.706272
    outer loop
      vertex 10.3795 3.88423 3.14853
      vertex 10.0014 4.77408 3.18198
      vertex 10.3952 3.88996 3.16522
    endloop
  endfacet
  facet normal 0.640885 0.298831 -0.707083
    outer loop
      vertex 10.0014 4.77408 3.18198
      vertex 10.145 3.7989 2.9
      vertex 9.74586 4.65491 2.9
    endloop
  endfacet
  facet normal -0.612483 -0.353507 -0.707035
    outer loop
      vertex 11.3973 2.4233 3.18198
      vertex 11.5 2.80934 2.9
      vertex 11.5 2.48261 3.06336
    endloop
  endfacet
  facet normal -0.61242 -0.353548 -0.707068
    outer loop
      vertex 11.0313 3.32938 3.04593
      vertex 11.5 2.80934 2.9
      vertex 11.3973 2.4233 3.18198
    endloop
  endfacet
  facet normal -0.612526 -0.353689 -0.706906
    outer loop
      vertex 11.5 2.80934 2.9
      vertex 11.0313 3.32938 3.04593
      vertex 11.1512 3.4134 2.9
    endloop
  endfacet
  facet normal -0.612304 -0.353518 -0.707184
    outer loop
      vertex 9.54728 5.62759 3.18198
      vertex 11.0313 3.32938 3.04593
      vertex 11.3973 2.4233 3.18198
    endloop
  endfacet
  facet normal -0.612512 -0.353668 -0.706929
    outer loop
      vertex 11.0313 3.32938 3.04593
      vertex 9.54728 5.62759 3.18198
      vertex 9.57283 5.61864 3.16432
    endloop
  endfacet
  facet normal -0.500102 0.865967 0
    outer loop
      vertex 11.5 2.48261 3.06336
      vertex 11.3973 2.4233 2.91039
      vertex 11.3973 2.4233 3.18198
    endloop
  endfacet
  facet normal -0.500102 0.865967 0
    outer loop
      vertex 11.5 2.48261 2.9
      vertex 11.3973 2.4233 2.91039
      vertex 11.5 2.48261 3.06336
    endloop
  endfacet
  facet normal -0.500015 0.866016 0.00113596
    outer loop
      vertex 11.3973 2.4233 2.91039
      vertex 11.5 2.48261 2.9
      vertex 11.4063 2.42851 2.9
    endloop
  endfacet
  facet normal 0.6124 0.353579 -0.707069
    outer loop
      vertex 10.0166 4.78116 3.16522
      vertex 11.3973 2.4233 3.18198
      vertex 11.2099 2.48895 3.0525
    endloop
  endfacet
  facet normal 0.61206 0.353377 -0.707465
    outer loop
      vertex 10.0166 4.78116 3.16522
      vertex 9.54728 5.62759 3.18198
      vertex 11.3973 2.4233 3.18198
    endloop
  endfacet
  facet normal 0.612383 0.353549 -0.7071
    outer loop
      vertex 9.77532 4.66864 2.9
      vertex 9.54728 5.62759 3.18198
      vertex 10.0166 4.78116 3.16522
    endloop
  endfacet
  facet normal 0.612365 0.353549 -0.707116
    outer loop
      vertex 9.54728 5.62759 3.18198
      vertex 9.77532 4.66864 2.9
      vertex 9.30307 5.4866 2.9
    endloop
  endfacet
  facet normal -0.612512 -0.35348 -0.707023
    outer loop
      vertex 9.56179 5.63597 3.16522
      vertex 9.57283 5.61864 3.16432
      vertex 9.54728 5.62759 3.18198
    endloop
  endfacet
  facet normal 0.499944 -0.866058 4.97525e-05
    outer loop
      vertex 9.33122 5.50285 2.9
      vertex 9.54728 5.62759 3.18198
      vertex 9.30307 5.4866 2.9
    endloop
  endfacet
  facet normal 0.50006 -0.865991 -6.79751e-05
    outer loop
      vertex 9.54728 5.62759 3.18198
      vertex 9.33122 5.50285 2.9
      vertex 9.56179 5.63597 3.16522
    endloop
  endfacet
  facet normal 0.612399 0.353146 -0.707287
    outer loop
      vertex 11.3973 2.4233 3.18198
      vertex 11.2794 2.35527 3.04593
      vertex 11.2099 2.48895 3.0525
    endloop
  endfacet
  facet normal -0.499782 0.866151 0
    outer loop
      vertex 11.3973 2.4233 3.18198
      vertex 11.3973 2.4233 2.91039
      vertex 11.2794 2.35527 3.04593
    endloop
  endfacet
  facet normal -0.579187 -0.405619 -0.707118
    outer loop
      vertex 11.1856 3.83774 2.9
      vertex 11.3737 3.56915 2.9
      vertex 11.1427 3.40742 3.18198
    endloop
  endfacet
  facet normal 0.573442 -0.819246 0.000161752
    outer loop
      vertex 8.81611 6.29518 2.9
      vertex 9.02047 6.43828 3.18198
      vertex 8.78948 6.27654 2.9
    endloop
  endfacet
  facet normal 0.573502 -0.819204 9.69349e-05
    outer loop
      vertex 9.02047 6.43828 3.18198
      vertex 8.81611 6.29518 2.9
      vertex 9.0342 6.44789 3.16522
    endloop
  endfacet
  facet normal -0.579257 -0.405587 -0.707079
    outer loop
      vertex 10.6991 4.27815 3.04593
      vertex 11.1856 3.83774 2.9
      vertex 11.1427 3.40742 3.18198
    endloop
  endfacet
  facet normal -0.579057 -0.405457 -0.707317
    outer loop
      vertex 11.1856 3.83774 2.9
      vertex 10.8033 4.3656 2.91039
      vertex 10.8113 4.3723 2.9
    endloop
  endfacet
  facet normal -0.579278 -0.405622 -0.707042
    outer loop
      vertex 11.1856 3.83774 2.9
      vertex 10.6991 4.27815 3.04593
      vertex 10.8033 4.3656 2.91039
    endloop
  endfacet
  facet normal -0.579219 -0.405573 -0.707118
    outer loop
      vertex 9.02047 6.43828 3.18198
      vertex 10.6991 4.27815 3.04593
      vertex 11.1427 3.40742 3.18198
    endloop
  endfacet
  facet normal -0.579243 -0.405594 -0.707086
    outer loop
      vertex 10.6991 4.27815 3.04593
      vertex 9.02047 6.43828 3.18198
      vertex 9.0342 6.44789 3.16522
    endloop
  endfacet
  facet normal -0.573462 0.819232 8.71585e-05
    outer loop
      vertex 11.1512 3.4134 2.9
      vertex 11.1427 3.40742 3.18198
      vertex 11.3737 3.56915 2.9
    endloop
  endfacet
  facet normal -0.573817 0.818984 7.12138e-05
    outer loop
      vertex 11.1427 3.40742 3.18198
      vertex 11.1512 3.4134 2.9
      vertex 11.0313 3.32938 3.04593
    endloop
  endfacet
  facet normal 0.57922 0.405577 -0.707115
    outer loop
      vertex 9.02047 6.43828 3.18198
      vertex 8.97755 6.00795 2.9
      vertex 8.78948 6.27654 2.9
    endloop
  endfacet
  facet normal 0.579301 0.405632 -0.707017
    outer loop
      vertex 9.57283 5.61864 3.16432
      vertex 11.1427 3.40742 3.18198
      vertex 11.0313 3.32938 3.04593
    endloop
  endfacet
  facet normal 0.580165 0.406253 -0.705951
    outer loop
      vertex 9.56179 5.63597 3.16522
      vertex 11.1427 3.40742 3.18198
      vertex 9.57283 5.61864 3.16432
    endloop
  endfacet
  facet normal 0.579185 0.405549 -0.70716
    outer loop
      vertex 9.56179 5.63597 3.16522
      vertex 9.02047 6.43828 3.18198
      vertex 11.1427 3.40742 3.18198
    endloop
  endfacet
  facet normal 0.579223 0.405571 -0.707115
    outer loop
      vertex 8.97755 6.00795 2.9
      vertex 9.56179 5.63597 3.16522
      vertex 9.33122 5.50285 2.9
    endloop
  endfacet
  facet normal 0.579225 0.405575 -0.707112
    outer loop
      vertex 9.56179 5.63597 3.16522
      vertex 8.97755 6.00795 2.9
      vertex 9.02047 6.43828 3.18198
    endloop
  endfacet
  facet normal -0.541687 -0.454523 -0.707095
    outer loop
      vertex 10.2855 5.19435 3.04593
      vertex 11.0193 4.54685 2.9
      vertex 10.8033 4.3656 3.18198
    endloop
  endfacet
  facet normal -0.541664 -0.454488 -0.707135
    outer loop
      vertex 11.0193 4.54685 2.9
      vertex 10.2855 5.19435 3.04593
      vertex 10.3891 5.29793 2.9
    endloop
  endfacet
  facet normal -0.54168 -0.45452 -0.707102
    outer loop
      vertex 8.42501 7.19996 3.18198
      vertex 10.2855 5.19435 3.04593
      vertex 10.8033 4.3656 3.18198
    endloop
  endfacet
  facet normal -0.5416 -0.454437 -0.707218
    outer loop
      vertex 10.2855 5.19435 3.04593
      vertex 8.42501 7.19996 3.18198
      vertex 8.43785 7.21074 3.16522
    endloop
  endfacet
  facet normal -0.642797 0.766037 0
    outer loop
      vertex 11.0193 4.54685 2.9
      vertex 10.8033 4.3656 2.91039
      vertex 10.8033 4.3656 3.18198
    endloop
  endfacet
  facet normal -0.642825 0.766013 -0.000992465
    outer loop
      vertex 10.8033 4.3656 2.91039
      vertex 11.0193 4.54685 2.9
      vertex 10.8113 4.3723 2.9
    endloop
  endfacet
  facet normal 0.642723 -0.766099 7.37697e-05
    outer loop
      vertex 8.2339 7.0396 2.9
      vertex 8.42501 7.19996 3.18198
      vertex 8.209 7.01871 2.9
    endloop
  endfacet
  facet normal 0.642898 -0.765952 -0.000128347
    outer loop
      vertex 8.42501 7.19996 3.18198
      vertex 8.2339 7.0396 2.9
      vertex 8.43785 7.21074 3.16522
    endloop
  endfacet
  facet normal 0.541711 0.454543 -0.707064
    outer loop
      vertex 9.0342 6.44789 3.16522
      vertex 10.8033 4.3656 3.18198
      vertex 10.6991 4.27815 3.04593
    endloop
  endfacet
  facet normal 0.54183 0.454645 -0.706908
    outer loop
      vertex 9.0342 6.44789 3.16522
      vertex 8.42501 7.19996 3.18198
      vertex 10.8033 4.3656 3.18198
    endloop
  endfacet
  facet normal 0.541666 0.454517 -0.707116
    outer loop
      vertex 8.81611 6.29518 2.9
      vertex 8.42501 7.19996 3.18198
      vertex 9.0342 6.44789 3.16522
    endloop
  endfacet
  facet normal 0.541678 0.454519 -0.707105
    outer loop
      vertex 8.42501 7.19996 3.18198
      vertex 8.81611 6.29518 2.9
      vertex 8.209 7.01871 2.9
    endloop
  endfacet
  facet normal -0.642856 0.765987 0
    outer loop
      vertex 10.8033 4.3656 3.18198
      vertex 10.8033 4.3656 2.91039
      vertex 10.6991 4.27815 3.04593
    endloop
  endfacet
  facet normal -0.500005 -0.499982 -0.707116
    outer loop
      vertex 9.79367 6.07103 3.04593
      vertex 10.5811 5.48995 2.9
      vertex 10.3817 5.29056 3.18198
    endloop
  endfacet
  facet normal -0.500023 -0.500016 -0.707079
    outer loop
      vertex 10.5811 5.48995 2.9
      vertex 9.79367 6.07103 3.04593
      vertex 9.88782 6.18324 2.9
    endloop
  endfacet
  facet normal -0.499962 -0.499958 -0.707164
    outer loop
      vertex 7.76543 7.90685 3.18198
      vertex 9.79367 6.07103 3.04593
      vertex 10.3817 5.29056 3.18198
    endloop
  endfacet
  facet normal -0.500019 -0.500028 -0.707074
    outer loop
      vertex 9.79367 6.07103 3.04593
      vertex 7.76543 7.90685 3.18198
      vertex 7.77728 7.9187 3.16522
    endloop
  endfacet
  facet normal 0.499996 0.499988 -0.707118
    outer loop
      vertex 8.43785 7.21074 3.16522
      vertex 10.3817 5.29056 3.18198
      vertex 10.2855 5.19435 3.04593
    endloop
  endfacet
  facet normal 0.500186 0.500182 -0.706846
    outer loop
      vertex 8.43785 7.21074 3.16522
      vertex 7.76543 7.90685 3.18198
      vertex 10.3817 5.29056 3.18198
    endloop
  endfacet
  facet normal 0.499987 0.499997 -0.707118
    outer loop
      vertex 8.2339 7.0396 2.9
      vertex 7.76543 7.90685 3.18198
      vertex 8.43785 7.21074 3.16522
    endloop
  endfacet
  facet normal 0.5 0.5 -0.707107
    outer loop
      vertex 7.76543 7.90685 3.18198
      vertex 8.2339 7.0396 2.9
      vertex 7.56604 7.70746 2.9
    endloop
  endfacet
  facet normal 0.707107 -0.707107 0
    outer loop
      vertex 7.76543 7.90685 3.18198
      vertex 7.58903 7.73045 2.9
      vertex 7.77728 7.9187 3.16522
    endloop
  endfacet
  facet normal 0.707107 -0.707107 0
    outer loop
      vertex 7.58903 7.73045 2.9
      vertex 7.76543 7.90685 3.18198
      vertex 7.56604 7.70746 2.9
    endloop
  endfacet
  facet normal -0.707144 0.70707 -7.71584e-05
    outer loop
      vertex 10.3891 5.29793 2.9
      vertex 10.3817 5.29056 3.18198
      vertex 10.5811 5.48995 2.9
    endloop
  endfacet
  facet normal -0.707091 0.707123 -7.43989e-05
    outer loop
      vertex 10.3817 5.29056 3.18198
      vertex 10.3891 5.29793 2.9
      vertex 10.2855 5.19435 3.04593
    endloop
  endfacet
  facet normal -0.765989 0.642854 1.51507e-05
    outer loop
      vertex 9.88782 6.18324 2.9
      vertex 9.88112 6.17525 3.18198
      vertex 10.0624 6.39126 2.9
    endloop
  endfacet
  facet normal -0.766055 0.642775 1.13494e-05
    outer loop
      vertex 9.88112 6.17525 3.18198
      vertex 9.88782 6.18324 2.9
      vertex 9.79367 6.07103 3.04593
    endloop
  endfacet
  facet normal -0.454502 -0.541661 -0.707129
    outer loop
      vertex 9.22727 6.9015 3.04593
      vertex 10.0624 6.39126 2.9
      vertex 9.88112 6.17525 3.18198
    endloop
  endfacet
  facet normal -0.454598 -0.541791 -0.706967
    outer loop
      vertex 10.0624 6.39126 2.9
      vertex 9.30531 7.01295 2.91039
      vertex 9.31129 7.02149 2.9
    endloop
  endfacet
  facet normal -0.454512 -0.541685 -0.707104
    outer loop
      vertex 10.0624 6.39126 2.9
      vertex 9.22727 6.9015 3.04593
      vertex 9.30531 7.01295 2.91039
    endloop
  endfacet
  facet normal -0.454464 -0.541635 -0.707174
    outer loop
      vertex 9.88112 6.17525 3.18198
      vertex 9.10771 6.99324 3.0525
      vertex 9.22727 6.9015 3.04593
    endloop
  endfacet
  facet normal -0.454523 -0.541679 -0.707101
    outer loop
      vertex 7.04675 8.55357 3.18198
      vertex 9.10771 6.99324 3.0525
      vertex 9.88112 6.17525 3.18198
    endloop
  endfacet
  facet normal -0.454457 -0.541583 -0.707218
    outer loop
      vertex 9.10771 6.99324 3.0525
      vertex 7.04675 8.55357 3.18198
      vertex 7.05753 8.56641 3.16522
    endloop
  endfacet
  facet normal 0.454521 0.541678 -0.707104
    outer loop
      vertex 7.77728 7.9187 3.16522
      vertex 9.88112 6.17525 3.18198
      vertex 9.79367 6.07103 3.04593
    endloop
  endfacet
  facet normal 0.454527 0.541682 -0.707097
    outer loop
      vertex 7.11668 8.1268 2.9
      vertex 7.77728 7.9187 3.16522
      vertex 7.58903 7.73045 2.9
    endloop
  endfacet
  facet normal 0.454482 0.54163 -0.707165
    outer loop
      vertex 7.77728 7.9187 3.16522
      vertex 7.04675 8.55357 3.18198
      vertex 9.88112 6.17525 3.18198
    endloop
  endfacet
  facet normal 0.454527 0.54168 -0.707099
    outer loop
      vertex 7.04675 8.55357 3.18198
      vertex 7.77728 7.9187 3.16522
      vertex 7.11668 8.1268 2.9
    endloop
  endfacet
  facet normal 0.454514 0.541682 -0.707105
    outer loop
      vertex 7.04675 8.55357 3.18198
      vertex 7.11668 8.1268 2.9
      vertex 6.8655 8.33756 2.9
    endloop
  endfacet
  facet normal 0.765961 -0.642887 0.000142761
    outer loop
      vertex 7.04675 8.55357 3.18198
      vertex 6.8864 8.36246 2.9
      vertex 7.05753 8.56641 3.16522
    endloop
  endfacet
  facet normal 0.765947 -0.642903 0.000161888
    outer loop
      vertex 6.8864 8.36246 2.9
      vertex 7.04675 8.55357 3.18198
      vertex 6.8655 8.33756 2.9
    endloop
  endfacet
  facet normal -0.405575 -0.579222 -0.707115
    outer loop
      vertex 8.59065 7.67945 3.04593
      vertex 9.46705 7.24394 2.9
      vertex 9.30531 7.01295 3.18198
    endloop
  endfacet
  facet normal -0.405576 -0.579224 -0.707112
    outer loop
      vertex 9.46705 7.24394 2.9
      vertex 8.59065 7.67945 3.04593
      vertex 8.6639 7.80631 2.9
    endloop
  endfacet
  facet normal -0.405575 -0.579222 -0.707114
    outer loop
      vertex 6.27445 9.13518 3.18198
      vertex 8.59065 7.67945 3.04593
      vertex 9.30531 7.01295 3.18198
    endloop
  endfacet
  facet normal -0.405625 -0.57931 -0.707014
    outer loop
      vertex 8.59065 7.67945 3.04593
      vertex 6.27445 9.13518 3.18198
      vertex 6.30139 9.13787 3.16432
    endloop
  endfacet
  facet normal -0.819154 0.573574 -2.14778e-05
    outer loop
      vertex 9.30531 7.01295 2.91039
      vertex 9.46705 7.24394 2.9
      vertex 9.31129 7.02149 2.9
    endloop
  endfacet
  facet normal -0.819154 0.573574 0
    outer loop
      vertex 9.46705 7.24394 2.9
      vertex 9.30531 7.01295 2.91039
      vertex 9.30531 7.01295 3.18198
    endloop
  endfacet
  facet normal 0.405574 0.579217 -0.707119
    outer loop
      vertex 7.05753 8.56641 3.16522
      vertex 9.30531 7.01295 3.18198
      vertex 9.10771 6.99324 3.0525
    endloop
  endfacet
  facet normal 0.405663 0.579347 -0.706961
    outer loop
      vertex 7.05753 8.56641 3.16522
      vertex 6.27445 9.13518 3.18198
      vertex 9.30531 7.01295 3.18198
    endloop
  endfacet
  facet normal 0.405574 0.579229 -0.707109
    outer loop
      vertex 6.8864 8.36246 2.9
      vertex 6.27445 9.13518 3.18198
      vertex 7.05753 8.56641 3.16522
    endloop
  endfacet
  facet normal 0.405579 0.579231 -0.707104
    outer loop
      vertex 6.27445 9.13518 3.18198
      vertex 6.8864 8.36246 2.9
      vertex 6.11271 8.9042 2.9
    endloop
  endfacet
  facet normal -0.405685 -0.579179 -0.707086
    outer loop
      vertex 6.28406 9.14891 3.16522
      vertex 6.30139 9.13787 3.16432
      vertex 6.27445 9.13518 3.18198
    endloop
  endfacet
  facet normal 0.819198 -0.573511 -0.000107726
    outer loop
      vertex 6.27445 9.13518 3.18198
      vertex 6.13135 8.93083 2.9
      vertex 6.28406 9.14891 3.16522
    endloop
  endfacet
  facet normal 0.819246 -0.573442 -0.000182088
    outer loop
      vertex 6.13135 8.93083 2.9
      vertex 6.27445 9.13518 3.18198
      vertex 6.11271 8.9042 2.9
    endloop
  endfacet
  facet normal 0.405578 0.579209 -0.707123
    outer loop
      vertex 9.30531 7.01295 3.18198
      vertex 9.22727 6.9015 3.04593
      vertex 9.10771 6.99324 3.0525
    endloop
  endfacet
  facet normal -0.819146 0.573586 0
    outer loop
      vertex 9.30531 7.01295 3.18198
      vertex 9.30531 7.01295 2.91039
      vertex 9.22727 6.9015 3.04593
    endloop
  endfacet
  facet normal -0.353547 -0.612378 -0.707105
    outer loop
      vertex 8.79967 8.04148 2.9
      vertex 8.65868 7.79728 3.18198
      vertex 8.51571 8.20542 2.9
    endloop
  endfacet
  facet normal 0.865991 -0.50006 6.79751e-05
    outer loop
      vertex 5.45439 9.64728 3.18198
      vertex 5.32965 9.43122 2.9
      vertex 5.46277 9.66179 3.16522
    endloop
  endfacet
  facet normal 0.866058 -0.499944 -4.97525e-05
    outer loop
      vertex 5.32965 9.43122 2.9
      vertex 5.45439 9.64728 3.18198
      vertex 5.3134 9.40307 2.9
    endloop
  endfacet
  facet normal -0.353561 -0.612378 -0.707098
    outer loop
      vertex 7.88866 8.39895 3.04593
      vertex 8.51571 8.20542 2.9
      vertex 8.65868 7.79728 3.18198
    endloop
  endfacet
  facet normal -0.353562 -0.612386 -0.707091
    outer loop
      vertex 8.51571 8.20542 2.9
      vertex 7.88866 8.39895 3.04593
      vertex 7.95056 8.53171 2.9
    endloop
  endfacet
  facet normal -0.353521 -0.612339 -0.707152
    outer loop
      vertex 8.65868 7.79728 3.18198
      vertex 7.75498 8.46854 3.0525
      vertex 7.88866 8.39895 3.04593
    endloop
  endfacet
  facet normal -0.353557 -0.612378 -0.7071
    outer loop
      vertex 5.45439 9.64728 3.18198
      vertex 7.75498 8.46854 3.0525
      vertex 8.65868 7.79728 3.18198
    endloop
  endfacet
  facet normal -0.353589 -0.612449 -0.707023
    outer loop
      vertex 7.75498 8.46854 3.0525
      vertex 5.45439 9.64728 3.18198
      vertex 5.46277 9.66179 3.16522
    endloop
  endfacet
  facet normal -0.866034 0.499985 -2.06906e-05
    outer loop
      vertex 8.6639 7.80631 2.9
      vertex 8.65868 7.79728 3.18198
      vertex 8.79967 8.04148 2.9
    endloop
  endfacet
  facet normal -0.866013 0.500021 -1.91455e-05
    outer loop
      vertex 8.65868 7.79728 3.18198
      vertex 8.6639 7.80631 2.9
      vertex 8.59065 7.67945 3.04593
    endloop
  endfacet
  facet normal 0.353542 0.612369 -0.707116
    outer loop
      vertex 5.45439 9.64728 3.18198
      vertex 5.59736 9.23913 2.9
      vertex 5.3134 9.40307 2.9
    endloop
  endfacet
  facet normal 0.353542 0.612353 -0.70713
    outer loop
      vertex 6.30139 9.13787 3.16432
      vertex 8.65868 7.79728 3.18198
      vertex 8.59065 7.67945 3.04593
    endloop
  endfacet
  facet normal 0.354236 0.613591 -0.705707
    outer loop
      vertex 6.28406 9.14891 3.16522
      vertex 8.65868 7.79728 3.18198
      vertex 6.30139 9.13787 3.16432
    endloop
  endfacet
  facet normal 0.353555 0.612375 -0.707104
    outer loop
      vertex 5.59736 9.23913 2.9
      vertex 6.28406 9.14891 3.16522
      vertex 6.13135 8.93083 2.9
    endloop
  endfacet
  facet normal 0.353495 0.612271 -0.707224
    outer loop
      vertex 6.28406 9.14891 3.16522
      vertex 5.45439 9.64728 3.18198
      vertex 8.65868 7.79728 3.18198
    endloop
  endfacet
  facet normal 0.353556 0.612369 -0.707108
    outer loop
      vertex 5.45439 9.64728 3.18198
      vertex 6.28406 9.14891 3.16522
      vertex 5.59736 9.23913 2.9
    endloop
  endfacet
  facet normal -0.298838 -0.640856 -0.707106
    outer loop
      vertex 7.12662 9.05453 3.04593
      vertex 8.06532 8.77782 2.9
      vertex 7.94615 8.52226 3.18198
    endloop
  endfacet
  facet normal -0.298828 -0.640839 -0.707126
    outer loop
      vertex 8.06532 8.77782 2.9
      vertex 7.17315 9.18238 2.91039
      vertex 7.17672 9.19218 2.9
    endloop
  endfacet
  facet normal -0.29884 -0.640867 -0.707096
    outer loop
      vertex 8.06532 8.77782 2.9
      vertex 7.12662 9.05453 3.04593
      vertex 7.17315 9.18238 2.91039
    endloop
  endfacet
  facet normal -0.298816 -0.64083 -0.707139
    outer loop
      vertex 4.59282 10.0859 3.18198
      vertex 7.12662 9.05453 3.04593
      vertex 7.94615 8.52226 3.18198
    endloop
  endfacet
  facet normal -0.298405 -0.639657 -0.708374
    outer loop
      vertex 7.12662 9.05453 3.04593
      vertex 4.59282 10.0859 3.18198
      vertex 4.61888 10.0933 3.16432
    endloop
  endfacet
  facet normal 0.298838 0.640859 -0.707104
    outer loop
      vertex 5.46277 9.66179 3.16522
      vertex 7.94615 8.52226 3.18198
      vertex 7.75498 8.46854 3.0525
    endloop
  endfacet
  facet normal 0.299117 0.641477 -0.706425
    outer loop
      vertex 5.46277 9.66179 3.16522
      vertex 4.59282 10.0859 3.18198
      vertex 7.94615 8.52226 3.18198
    endloop
  endfacet
  facet normal 0.298805 0.640863 -0.707114
    outer loop
      vertex 5.32965 9.43122 2.9
      vertex 4.59282 10.0859 3.18198
      vertex 5.46277 9.66179 3.16522
    endloop
  endfacet
  facet normal 0.298867 0.640905 -0.707049
    outer loop
      vertex 4.59282 10.0859 3.18198
      vertex 5.32965 9.43122 2.9
      vertex 4.47365 9.83039 2.9
    endloop
  endfacet
  facet normal -0.297149 -0.641455 -0.707275
    outer loop
      vertex 4.5999 10.1011 3.16522
      vertex 4.61888 10.0933 3.16432
      vertex 4.59282 10.0859 3.18198
    endloop
  endfacet
  facet normal 0.906381 -0.422462 -0.00025301
    outer loop
      vertex 4.59282 10.0859 3.18198
      vertex 4.48738 9.85985 2.9
      vertex 4.5999 10.1011 3.16522
    endloop
  endfacet
  facet normal 0.906395 -0.422431 -0.00028324
    outer loop
      vertex 4.48738 9.85985 2.9
      vertex 4.59282 10.0859 3.18198
      vertex 4.47365 9.83039 2.9
    endloop
  endfacet
  facet normal -0.906312 0.422609 -1.12717e-05
    outer loop
      vertex 7.95056 8.53171 2.9
      vertex 7.94615 8.52226 3.18198
      vertex 8.06532 8.77782 2.9
    endloop
  endfacet
  facet normal -0.906332 0.422567 -1.29854e-05
    outer loop
      vertex 7.94615 8.52226 3.18198
      vertex 7.95056 8.53171 2.9
      vertex 7.88866 8.39895 3.04593
    endloop
  endfacet
  facet normal 0.298851 0.640841 -0.707115
    outer loop
      vertex 7.94615 8.52226 3.18198
      vertex 7.88866 8.39895 3.04593
      vertex 7.75498 8.46854 3.0525
    endloop
  endfacet
  facet normal -0.241829 -0.664459 -0.707116
    outer loop
      vertex 7.2696 9.44736 2.9
      vertex 7.17315 9.18238 3.18198
      vertex 6.96148 9.5595 2.9
    endloop
  endfacet
  facet normal -0.241848 -0.664462 -0.707107
    outer loop
      vertex 6.31035 9.6412 3.04593
      vertex 6.96148 9.5595 2.9
      vertex 7.17315 9.18238 3.18198
    endloop
  endfacet
  facet normal -0.241849 -0.664455 -0.707113
    outer loop
      vertex 6.96148 9.5595 2.9
      vertex 6.31035 9.6412 3.04593
      vertex 6.34826 9.7827 2.9
    endloop
  endfacet
  facet normal -0.241858 -0.664476 -0.70709
    outer loop
      vertex 3.69629 10.4479 3.18198
      vertex 6.31035 9.6412 3.04593
      vertex 7.17315 9.18238 3.18198
    endloop
  endfacet
  facet normal -0.242101 -0.665427 -0.706112
    outer loop
      vertex 6.31035 9.6412 3.04593
      vertex 3.69629 10.4479 3.18198
      vertex 3.70202 10.4636 3.16522
    endloop
  endfacet
  facet normal -0.93969 0.342027 -0.00027241
    outer loop
      vertex 7.17315 9.18238 2.91039
      vertex 7.2696 9.44736 2.9
      vertex 7.17672 9.19218 2.9
    endloop
  endfacet
  facet normal -0.939687 0.342036 0
    outer loop
      vertex 7.2696 9.44736 2.9
      vertex 7.17315 9.18238 2.91039
      vertex 7.17315 9.18238 3.18198
    endloop
  endfacet
  facet normal 0.24185 0.664451 -0.707117
    outer loop
      vertex 4.61888 10.0933 3.16432
      vertex 7.17315 9.18238 3.18198
      vertex 7.12662 9.05453 3.04593
    endloop
  endfacet
  facet normal 0.248967 0.68484 -0.684843
    outer loop
      vertex 4.5999 10.1011 3.16522
      vertex 7.17315 9.18238 3.18198
      vertex 4.61888 10.0933 3.16432
    endloop
  endfacet
  facet normal 0.241412 0.663249 -0.708393
    outer loop
      vertex 4.5999 10.1011 3.16522
      vertex 3.69629 10.4479 3.18198
      vertex 7.17315 9.18238 3.18198
    endloop
  endfacet
  facet normal 0.241911 0.664486 -0.707062
    outer loop
      vertex 4.48738 9.85985 2.9
      vertex 3.69629 10.4479 3.18198
      vertex 4.5999 10.1011 3.16522
    endloop
  endfacet
  facet normal 0.241845 0.664432 -0.707136
    outer loop
      vertex 3.69629 10.4479 3.18198
      vertex 4.48738 9.85985 2.9
      vertex 3.59985 10.1829 2.9
    endloop
  endfacet
  facet normal -0.939701 0.341997 0
    outer loop
      vertex 7.17315 9.18238 3.18198
      vertex 7.17315 9.18238 2.91039
      vertex 7.12662 9.05453 3.04593
    endloop
  endfacet
  facet normal 0.939552 -0.342407 0.000467791
    outer loop
      vertex 3.69629 10.4479 3.18198
      vertex 3.61097 10.2134 2.9
      vertex 3.70202 10.4636 3.16522
    endloop
  endfacet
  facet normal 0.939505 -0.342534 0.00058771
    outer loop
      vertex 3.61097 10.2134 2.9
      vertex 3.69629 10.4479 3.18198
      vertex 3.59985 10.1829 2.9
    endloop
  endfacet
  facet normal -0.183086 -0.682983 -0.707116
    outer loop
      vertex 6.41854 10.045 2.9
      vertex 6.34556 9.77262 3.18198
      vertex 6.10183 10.1299 2.9
    endloop
  endfacet
  facet normal -0.182985 -0.682956 -0.707169
    outer loop
      vertex 5.44605 10.1545 3.04593
      vertex 6.10183 10.1299 2.9
      vertex 6.34556 9.77262 3.18198
    endloop
  endfacet
  facet normal -0.182989 -0.682932 -0.707191
    outer loop
      vertex 6.10183 10.1299 2.9
      vertex 5.44605 10.1545 3.04593
      vertex 5.47148 10.2988 2.9
    endloop
  endfacet
  facet normal -0.183025 -0.683022 -0.707094
    outer loop
      vertex 2.77163 10.7303 3.18198
      vertex 5.44605 10.1545 3.04593
      vertex 6.34556 9.77262 3.18198
    endloop
  endfacet
  facet normal -0.183315 -0.684797 -0.7053
    outer loop
      vertex 5.44605 10.1545 3.04593
      vertex 2.77163 10.7303 3.18198
      vertex 2.77597 10.7464 3.16522
    endloop
  endfacet
  facet normal 0.183009 0.683 -0.70712
    outer loop
      vertex 3.70202 10.4636 3.16522
      vertex 6.34556 9.77262 3.18198
      vertex 6.31035 9.6412 3.04593
    endloop
  endfacet
  facet normal 0.182816 0.682246 -0.707898
    outer loop
      vertex 3.70202 10.4636 3.16522
      vertex 2.77163 10.7303 3.18198
      vertex 6.34556 9.77262 3.18198
    endloop
  endfacet
  facet normal 0.18304 0.682976 -0.707135
    outer loop
      vertex 3.61097 10.2134 2.9
      vertex 2.77163 10.7303 3.18198
      vertex 3.70202 10.4636 3.16522
    endloop
  endfacet
  facet normal 0.183035 0.682972 -0.70714
    outer loop
      vertex 2.77163 10.7303 3.18198
      vertex 3.61097 10.2134 2.9
      vertex 2.69865 10.4579 2.9
    endloop
  endfacet
  facet normal -0.965929 0.258808 2.77385e-06
    outer loop
      vertex 6.34826 9.7827 2.9
      vertex 6.34556 9.77262 3.18198
      vertex 6.41854 10.045 2.9
    endloop
  endfacet
  facet normal -0.965933 0.25879 2.08121e-06
    outer loop
      vertex 6.34556 9.77262 3.18198
      vertex 6.34826 9.7827 2.9
      vertex 6.31035 9.6412 3.04593
    endloop
  endfacet
  facet normal 0.965934 -0.258788 0
    outer loop
      vertex 2.69865 10.4579 2.9
      vertex 2.77163 10.7303 3.14852
      vertex 2.77163 10.7303 3.18198
    endloop
  endfacet
  facet normal 0.965877 -0.259003 0.000252005
    outer loop
      vertex 2.77163 10.7303 3.14852
      vertex 2.69865 10.4579 2.9
      vertex 2.70707 10.4893 2.9
    endloop
  endfacet
  facet normal 0.965535 -0.260275 0
    outer loop
      vertex 2.77597 10.7464 3.16522
      vertex 2.77163 10.7303 3.18198
      vertex 2.77163 10.7303 3.14852
    endloop
  endfacet
  facet normal -0.12277 -0.696361 -0.707113
    outer loop
      vertex 4.5403 10.5905 3.04593
      vertex 5.51864 10.5662 2.9
      vertex 5.46967 10.2885 3.18198
    endloop
  endfacet
  facet normal -0.122761 -0.696439 -0.707038
    outer loop
      vertex 5.51864 10.5662 2.9
      vertex 4.5403 10.5905 3.04593
      vertex 4.55307 10.7364 2.9
    endloop
  endfacet
  facet normal -0.122798 -0.69642 -0.70705
    outer loop
      vertex 1.82588 10.931 3.18198
      vertex 4.5403 10.5905 3.04593
      vertex 5.46967 10.2885 3.18198
    endloop
  endfacet
  facet normal -0.122834 -0.6969 -0.70657
    outer loop
      vertex 4.5403 10.5905 3.04593
      vertex 1.82588 10.931 3.18198
      vertex 1.84917 10.9448 3.16432
    endloop
  endfacet
  facet normal 0.122768 0.696326 -0.707148
    outer loop
      vertex 2.77597 10.7464 3.16522
      vertex 5.46967 10.2885 3.18198
      vertex 5.44605 10.1545 3.04593
    endloop
  endfacet
  facet normal 0.122751 0.69633 -0.707147
    outer loop
      vertex 1.82588 10.931 3.18198
      vertex 2.77163 10.7303 3.14852
      vertex 2.70707 10.4893 2.9
    endloop
  endfacet
  facet normal 0.122591 0.695249 -0.708237
    outer loop
      vertex 2.77597 10.7464 3.16522
      vertex 1.82588 10.931 3.18198
      vertex 5.46967 10.2885 3.18198
    endloop
  endfacet
  facet normal 0.123227 0.69824 -0.705178
    outer loop
      vertex 2.77163 10.7303 3.14852
      vertex 1.82588 10.931 3.18198
      vertex 2.77597 10.7464 3.16522
    endloop
  endfacet
  facet normal 0.12278 0.696362 -0.70711
    outer loop
      vertex 1.82588 10.931 3.18198
      vertex 2.70707 10.4893 2.9
      vertex 1.77692 10.6533 2.9
    endloop
  endfacet
  facet normal -0.123533 -0.69631 -0.70703
    outer loop
      vertex 1.8288 10.9475 3.16522
      vertex 1.84917 10.9448 3.16432
      vertex 1.82588 10.931 3.18198
    endloop
  endfacet
  facet normal 0.984751 -0.173967 0.00029911
    outer loop
      vertex 1.82588 10.931 3.18198
      vertex 1.78256 10.6853 2.9
      vertex 1.8288 10.9475 3.16522
    endloop
  endfacet
  facet normal 0.984821 -0.173575 -5.36975e-05
    outer loop
      vertex 1.78256 10.6853 2.9
      vertex 1.82588 10.931 3.18198
      vertex 1.77692 10.6533 2.9
    endloop
  endfacet
  facet normal -0.984801 0.173684 2.29086e-05
    outer loop
      vertex 5.47148 10.2988 2.9
      vertex 5.46967 10.2885 3.18198
      vertex 5.51864 10.5662 2.9
    endloop
  endfacet
  facet normal -0.984821 0.173574 1.87481e-05
    outer loop
      vertex 5.46967 10.2885 3.18198
      vertex 5.47148 10.2988 2.9
      vertex 5.44605 10.1545 3.04593
    endloop
  endfacet
  facet normal -0.0614548 -0.704315 -0.707222
    outer loop
      vertex 4.57673 11.007 2.9
      vertex 4.55216 10.726 3.18198
      vertex 4.2501 11.0355 2.9
    endloop
  endfacet
  facet normal 0.996197 -0.0871281 -3.53398e-05
    outer loop
      vertex 0.866239 11.0485 3.18198
      vertex 0.844495 10.8 2.9
      vertex 0.867699 11.0652 3.16522
    endloop
  endfacet
  facet normal 0.996199 -0.0871059 -5.50757e-05
    outer loop
      vertex 0.844495 10.8 2.9
      vertex 0.866239 11.0485 3.18198
      vertex 0.841662 10.7676 2.9
    endloop
  endfacet
  facet normal -0.0616443 -0.704404 -0.707117
    outer loop
      vertex 4.55216 10.726 3.18198
      vertex 3.6 10.9459 3.04593
      vertex 4.2501 11.0355 2.9
    endloop
  endfacet
  facet normal -0.0616282 -0.704362 -0.707161
    outer loop
      vertex 0.866239 11.0485 3.18198
      vertex 3.6 10.9459 3.04593
      vertex 4.55216 10.726 3.18198
    endloop
  endfacet
  facet normal -0.0616285 -0.704338 -0.707185
    outer loop
      vertex 3.6 10.9459 3.04593
      vertex 0.866239 11.0485 3.18198
      vertex 0.867699 11.0652 3.16522
    endloop
  endfacet
  facet normal -0.0616513 -0.704385 -0.707136
    outer loop
      vertex 4.2501 11.0355 2.9
      vertex 3.6 10.9459 3.04593
      vertex 3.6 11.0924 2.9
    endloop
  endfacet
  facet normal -0.996199 0.087103 -2.37614e-06
    outer loop
      vertex 4.55307 10.7364 2.9
      vertex 4.55216 10.726 3.18198
      vertex 4.57673 11.007 2.9
    endloop
  endfacet
  facet normal -0.996191 0.0871933 9.80523e-07
    outer loop
      vertex 4.55216 10.726 3.18198
      vertex 4.55307 10.7364 2.9
      vertex 4.5403 10.5905 3.04593
    endloop
  endfacet
  facet normal 0.0616781 0.70442 -0.707098
    outer loop
      vertex 0.866239 11.0485 3.18198
      vertex 1.1683 10.739 2.9
      vertex 0.841662 10.7676 2.9
    endloop
  endfacet
  facet normal 0.0616466 0.704498 -0.707024
    outer loop
      vertex 1.84917 10.9448 3.16432
      vertex 4.55216 10.726 3.18198
      vertex 4.5403 10.5905 3.04593
    endloop
  endfacet
  facet normal 0.0612858 0.699651 -0.711851
    outer loop
      vertex 1.8288 10.9475 3.16522
      vertex 4.55216 10.726 3.18198
      vertex 1.84917 10.9448 3.16432
    endloop
  endfacet
  facet normal 0.0615807 0.704406 -0.707121
    outer loop
      vertex 1.1683 10.739 2.9
      vertex 1.8288 10.9475 3.16522
      vertex 1.78256 10.6853 2.9
    endloop
  endfacet
  facet normal 0.0617124 0.705325 -0.706193
    outer loop
      vertex 1.8288 10.9475 3.16522
      vertex 0.866239 11.0485 3.18198
      vertex 4.55216 10.726 3.18198
    endloop
  endfacet
  facet normal 0.061597 0.704382 -0.707143
    outer loop
      vertex 0.866239 11.0485 3.18198
      vertex 1.8288 10.9475 3.16522
      vertex 1.1683 10.739 2.9
    endloop
  endfacet
  facet normal 0 -0.707082 -0.707132
    outer loop
      vertex 0 11.364 2.9
      vertex 3.6 11.082 3.18198
      vertex 0 11.082 3.18198
    endloop
  endfacet
  facet normal 0 -0.707082 -0.707132
    outer loop
      vertex 3.6 11.082 3.18198
      vertex 0 11.364 2.9
      vertex 3.6 11.364 2.9
    endloop
  endfacet
  facet normal 0 0.706263 -0.707949
    outer loop
      vertex 3.6 11.082 3.18198
      vertex 0.867699 11.0652 3.16522
      vertex 0 11.082 3.18198
    endloop
  endfacet
  facet normal -8.75615e-06 0.706977 -0.707237
    outer loop
      vertex 0.867699 11.0652 3.16522
      vertex 3.6 11.082 3.18198
      vertex 3.6 10.9459 3.04593
    endloop
  endfacet
  facet normal 3.35713e-05 0.707132 -0.707082
    outer loop
      vertex 0.844495 10.8 2.9
      vertex 0 11.082 3.18198
      vertex 0.867699 11.0652 3.16522
    endloop
  endfacet
  facet normal 0 0.707082 -0.707132
    outer loop
      vertex 0 11.082 3.18198
      vertex 0.844495 10.8 2.9
      vertex 0 10.8 2.9
    endloop
  endfacet
  facet normal -1 0 0
    outer loop
      vertex 3.6 11.0924 2.9
      vertex 3.6 11.082 3.18198
      vertex 3.6 11.364 2.9
    endloop
  endfacet
  facet normal -1 0 -0
    outer loop
      vertex 3.6 11.082 3.18198
      vertex 3.6 11.0924 2.9
      vertex 3.6 10.9459 3.04593
    endloop
  endfacet
  facet normal -0 0 -1
    outer loop
      vertex 2.70707 10.4893 2.9
      vertex 2.69865 10.4579 2.9
      vertex 1.77692 10.6533 2.9
    endloop
  endfacet
  facet normal -0 0 -1
    outer loop
      vertex 5.32965 9.43122 2.9
      vertex 5.3134 9.40307 2.9
      vertex 4.47365 9.83039 2.9
    endloop
  endfacet
  facet normal 0 0 -1
    outer loop
      vertex 8 0 2.9
      vertex 10.8 0.0999994 2.9
      vertex 10.8 0 2.9
    endloop
  endfacet
  facet normal -0 0 -1
    outer loop
      vertex 10.8 0.0999994 2.9
      vertex 8 0 2.9
      vertex 10.7502 1.0409 2.9
    endloop
  endfacet
  facet normal 0 0 -1
    outer loop
      vertex 7.84628 1.56072 2.9
      vertex 10.7502 1.0409 2.9
      vertex 8 0 2.9
    endloop
  endfacet
  facet normal -0 0 -1
    outer loop
      vertex 10.6186 1.97388 2.9
      vertex 7.84628 1.56072 2.9
      vertex 10.4061 2.89184 2.9
    endloop
  endfacet
  facet normal 0 0 -1
    outer loop
      vertex 7.39104 3.06147 2.9
      vertex 10.4061 2.89184 2.9
      vertex 7.84628 1.56072 2.9
    endloop
  endfacet
  facet normal 0 0 -1
    outer loop
      vertex 10.4061 2.89184 2.9
      vertex 7.39104 3.06147 2.9
      vertex 10.1145 3.78779 2.9
    endloop
  endfacet
  facet normal -0 0 -1
    outer loop
      vertex 10.1145 3.78779 2.9
      vertex 7.39104 3.06147 2.9
      vertex 9.74586 4.65491 2.9
    endloop
  endfacet
  facet normal 0 0 -1
    outer loop
      vertex 6.65176 4.44456 2.9
      vertex 9.30307 5.4866 2.9
      vertex 7.39104 3.06147 2.9
    endloop
  endfacet
  facet normal -0 0 -1
    outer loop
      vertex 9.30307 5.4866 2.9
      vertex 6.65176 4.44456 2.9
      vertex 8.97755 6.00795 2.9
    endloop
  endfacet
  facet normal 0 0 -1
    outer loop
      vertex 10.7502 1.0409 2.9
      vertex 7.84628 1.56072 2.9
      vertex 10.6186 1.97388 2.9
    endloop
  endfacet
  facet normal 0 0 -1
    outer loop
      vertex 10.8325 0.0999994 2.9
      vertex 10.8 0.0999994 2.9
      vertex 10.7502 1.0409 2.9
    endloop
  endfacet
  facet normal -0 0 -1
    outer loop
      vertex 10.7826 1.04373 2.9
      vertex 10.7502 1.0409 2.9
      vertex 10.6186 1.97388 2.9
    endloop
  endfacet
  facet normal -0 0 -1
    outer loop
      vertex 10.6506 1.97953 2.9
      vertex 10.6186 1.97388 2.9
      vertex 10.4061 2.89184 2.9
    endloop
  endfacet
  facet normal -0 0 -1
    outer loop
      vertex 10.4375 2.90025 2.9
      vertex 10.4061 2.89184 2.9
      vertex 10.1145 3.78779 2.9
    endloop
  endfacet
  facet normal -0 0 -1
    outer loop
      vertex 10.145 3.7989 2.9
      vertex 10.1145 3.78779 2.9
      vertex 9.74586 4.65491 2.9
    endloop
  endfacet
  facet normal -0 0 -1
    outer loop
      vertex 9.77532 4.66864 2.9
      vertex 9.74586 4.65491 2.9
      vertex 9.30307 5.4866 2.9
    endloop
  endfacet
  facet normal -0 0 -1
    outer loop
      vertex 9.33122 5.50285 2.9
      vertex 9.30307 5.4866 2.9
      vertex 8.97755 6.00795 2.9
    endloop
  endfacet
  facet normal -0 0 -1
    outer loop
      vertex 8.81611 6.29518 2.9
      vertex 8.78948 6.27654 2.9
      vertex 8.209 7.01871 2.9
    endloop
  endfacet
  facet normal -0 0 -1
    outer loop
      vertex 9.74586 4.65491 2.9
      vertex 7.39104 3.06147 2.9
      vertex 9.30307 5.4866 2.9
    endloop
  endfacet
  facet normal 0 0 -1
    outer loop
      vertex 8.209 7.01871 2.9
      vertex 7.56604 7.70746 2.9
      vertex 8.2339 7.0396 2.9
    endloop
  endfacet
  facet normal -0 0 -1
    outer loop
      vertex 8.97755 6.00795 2.9
      vertex 6.65176 4.44456 2.9
      vertex 8.78948 6.27654 2.9
    endloop
  endfacet
  facet normal -0 0 -1
    outer loop
      vertex 8.78948 6.27654 2.9
      vertex 6.65176 4.44456 2.9
      vertex 8.209 7.01871 2.9
    endloop
  endfacet
  facet normal 0 0 -1
    outer loop
      vertex 7.56604 7.70746 2.9
      vertex 7.11668 8.1268 2.9
      vertex 7.58903 7.73045 2.9
    endloop
  endfacet
  facet normal 0 0 -1
    outer loop
      vertex 5.65685 5.65685 2.9
      vertex 8.209 7.01871 2.9
      vertex 6.65176 4.44456 2.9
    endloop
  endfacet
  facet normal -0 0 -1
    outer loop
      vertex 8.209 7.01871 2.9
      vertex 5.65685 5.65685 2.9
      vertex 7.56604 7.70746 2.9
    endloop
  endfacet
  facet normal -0 0 -1
    outer loop
      vertex 7.56604 7.70746 2.9
      vertex 5.65685 5.65685 2.9
      vertex 7.11668 8.1268 2.9
    endloop
  endfacet
  facet normal 0 0 -1
    outer loop
      vertex 6.8655 8.33756 2.9
      vertex 6.11271 8.9042 2.9
      vertex 6.8864 8.36246 2.9
    endloop
  endfacet
  facet normal -0 0 -1
    outer loop
      vertex 7.11668 8.1268 2.9
      vertex 5.65685 5.65685 2.9
      vertex 6.8655 8.33756 2.9
    endloop
  endfacet
  facet normal 0 0 -1
    outer loop
      vertex 4.44456 6.65176 2.9
      vertex 6.8655 8.33756 2.9
      vertex 5.65685 5.65685 2.9
    endloop
  endfacet
  facet normal 0 0 -1
    outer loop
      vertex 6.11271 8.9042 2.9
      vertex 5.59736 9.23913 2.9
      vertex 6.13135 8.93083 2.9
    endloop
  endfacet
  facet normal -0 0 -1
    outer loop
      vertex 6.8655 8.33756 2.9
      vertex 4.44456 6.65176 2.9
      vertex 6.11271 8.9042 2.9
    endloop
  endfacet
  facet normal -0 0 -1
    outer loop
      vertex 6.11271 8.9042 2.9
      vertex 4.44456 6.65176 2.9
      vertex 5.59736 9.23913 2.9
    endloop
  endfacet
  facet normal -0 0 -1
    outer loop
      vertex 5.59736 9.23913 2.9
      vertex 4.44456 6.65176 2.9
      vertex 5.3134 9.40307 2.9
    endloop
  endfacet
  facet normal 0 0 -1
    outer loop
      vertex 3.06147 7.39104 2.9
      vertex 5.3134 9.40307 2.9
      vertex 4.44456 6.65176 2.9
    endloop
  endfacet
  facet normal 0 0 -1
    outer loop
      vertex 4.47365 9.83039 2.9
      vertex 3.59985 10.1829 2.9
      vertex 4.48738 9.85985 2.9
    endloop
  endfacet
  facet normal -0 0 -1
    outer loop
      vertex 5.3134 9.40307 2.9
      vertex 3.06147 7.39104 2.9
      vertex 4.47365 9.83039 2.9
    endloop
  endfacet
  facet normal -0 0 -1
    outer loop
      vertex 4.47365 9.83039 2.9
      vertex 3.06147 7.39104 2.9
      vertex 3.59985 10.1829 2.9
    endloop
  endfacet
  facet normal 0 0 -1
    outer loop
      vertex 3.59985 10.1829 2.9
      vertex 2.69865 10.4579 2.9
      vertex 3.61097 10.2134 2.9
    endloop
  endfacet
  facet normal 0 0 -1
    outer loop
      vertex 3.06147 7.39104 2.9
      vertex 2.69865 10.4579 2.9
      vertex 3.59985 10.1829 2.9
    endloop
  endfacet
  facet normal 0 0 -1
    outer loop
      vertex 1.56072 7.84628 2.9
      vertex 2.69865 10.4579 2.9
      vertex 3.06147 7.39104 2.9
    endloop
  endfacet
  facet normal -0 0 -1
    outer loop
      vertex 2.69865 10.4579 2.9
      vertex 1.56072 7.84628 2.9
      vertex 1.77692 10.6533 2.9
    endloop
  endfacet
  facet normal 0 0 -1
    outer loop
      vertex 1.77692 10.6533 2.9
      vertex 1.1683 10.739 2.9
      vertex 1.78256 10.6853 2.9
    endloop
  endfacet
  facet normal 0 0 -1
    outer loop
      vertex 1.56072 7.84628 2.9
      vertex 1.1683 10.739 2.9
      vertex 1.77692 10.6533 2.9
    endloop
  endfacet
  facet normal 0 0 -1
    outer loop
      vertex 0 8 2.9
      vertex 1.1683 10.739 2.9
      vertex 1.56072 7.84628 2.9
    endloop
  endfacet
  facet normal -0 0 -1
    outer loop
      vertex 1.1683 10.739 2.9
      vertex 0 8 2.9
      vertex 0.841662 10.7676 2.9
    endloop
  endfacet
  facet normal 0 0 -1
    outer loop
      vertex 0 10.8 2.9
      vertex 0.841662 10.7676 2.9
      vertex 0 8 2.9
    endloop
  endfacet
  facet normal 0 0 -1
    outer loop
      vertex 0.841662 10.7676 2.9
      vertex 0 10.8 2.9
      vertex 0.844495 10.8 2.9
    endloop
  endfacet
  facet normal 0 0 -1
    outer loop
      vertex 5.51864 10.5662 2.9
      vertex 4.55307 10.7364 2.9
      vertex 4.57673 11.007 2.9
    endloop
  endfacet
  facet normal 0 0 -1
    outer loop
      vertex 6.10183 10.1299 2.9
      vertex 5.47148 10.2988 2.9
      vertex 5.51864 10.5662 2.9
    endloop
  endfacet
  facet normal 0 0 -1
    outer loop
      vertex 6.96148 9.5595 2.9
      vertex 6.34826 9.7827 2.9
      vertex 6.41854 10.045 2.9
    endloop
  endfacet
  facet normal 0 0 -1
    outer loop
      vertex 8.06532 8.77782 2.9
      vertex 7.2696 9.44736 2.9
      vertex 8 11.5 2.9
    endloop
  endfacet
  facet normal 0 -0 -1
    outer loop
      vertex 7.2696 9.44736 2.9
      vertex 8.06532 8.77782 2.9
      vertex 7.17672 9.19218 2.9
    endloop
  endfacet
  facet normal 0 0 -1
    outer loop
      vertex 8.51571 8.20542 2.9
      vertex 7.95056 8.53171 2.9
      vertex 8.06532 8.77782 2.9
    endloop
  endfacet
  facet normal 0 0 -1
    outer loop
      vertex 9.46705 7.24394 2.9
      vertex 8.6639 7.80631 2.9
      vertex 8.79967 8.04148 2.9
    endloop
  endfacet
  facet normal 0 0 -1
    outer loop
      vertex 10.0624 6.39126 2.9
      vertex 9.31129 7.02149 2.9
      vertex 9.46705 7.24394 2.9
    endloop
  endfacet
  facet normal 0 0 -1
    outer loop
      vertex 10.5811 5.48995 2.9
      vertex 9.88782 6.18324 2.9
      vertex 10.0624 6.39126 2.9
    endloop
  endfacet
  facet normal 0 0 -1
    outer loop
      vertex 11.0193 4.54685 2.9
      vertex 10.3891 5.29793 2.9
      vertex 10.5811 5.48995 2.9
    endloop
  endfacet
  facet normal 0 0 -1
    outer loop
      vertex 11.1856 3.83774 2.9
      vertex 10.8113 4.3723 2.9
      vertex 11.0193 4.54685 2.9
    endloop
  endfacet
  facet normal 0 0 -1
    outer loop
      vertex 11.3737 3.56915 2.9
      vertex 11.5 8 2.9
      vertex 11.5 2.80934 2.9
    endloop
  endfacet
  facet normal 0 0 -1
    outer loop
      vertex 11.0193 4.54685 2.9
      vertex 11.5 8 2.9
      vertex 11.3737 3.56915 2.9
    endloop
  endfacet
  facet normal 0 0 -1
    outer loop
      vertex 10.5811 5.48995 2.9
      vertex 11.5 8 2.9
      vertex 11.0193 4.54685 2.9
    endloop
  endfacet
  facet normal 0 -0 -1
    outer loop
      vertex 11.3737 3.56915 2.9
      vertex 11.5 2.80934 2.9
      vertex 11.1512 3.4134 2.9
    endloop
  endfacet
  facet normal 0 0 -1
    outer loop
      vertex 11.5 8 2.9
      vertex 30 11.5 2.9
      vertex 30 8 2.9
    endloop
  endfacet
  facet normal -0 0 -1
    outer loop
      vertex 30 11.5 2.9
      vertex 11.5 8 2.9
      vertex 11.5 11.5 2.9
    endloop
  endfacet
  facet normal 0 0 -1
    outer loop
      vertex 11.0193 4.54685 2.9
      vertex 11.3737 3.56915 2.9
      vertex 11.1856 3.83774 2.9
    endloop
  endfacet
  facet normal 0 0 -1
    outer loop
      vertex 10.0624 6.39126 2.9
      vertex 11.5 8 2.9
      vertex 10.5811 5.48995 2.9
    endloop
  endfacet
  facet normal 0 0 -1
    outer loop
      vertex 9.46705 7.24394 2.9
      vertex 11.5 8 2.9
      vertex 10.0624 6.39126 2.9
    endloop
  endfacet
  facet normal 0 0 -1
    outer loop
      vertex 8.79967 8.04148 2.9
      vertex 11.5 8 2.9
      vertex 9.46705 7.24394 2.9
    endloop
  endfacet
  facet normal 0 0 -1
    outer loop
      vertex 11.5 8 2.9
      vertex 8.79967 8.04148 2.9
      vertex 11.5 11.5 2.9
    endloop
  endfacet
  facet normal 0 0 -1
    outer loop
      vertex 8.06532 8.77782 2.9
      vertex 11.5 11.5 2.9
      vertex 8.79967 8.04148 2.9
    endloop
  endfacet
  facet normal 0 0 -1
    outer loop
      vertex 8.06532 8.77782 2.9
      vertex 8.79967 8.04148 2.9
      vertex 8.51571 8.20542 2.9
    endloop
  endfacet
  facet normal -0 0 -1
    outer loop
      vertex 11.5 11.5 2.9
      vertex 8.06532 8.77782 2.9
      vertex 8 11.5 2.9
    endloop
  endfacet
  facet normal 0 0 -1
    outer loop
      vertex 11.5 11.5 2.9
      vertex 8 11.5 2.9
      vertex 11.5 30 2.9
    endloop
  endfacet
  facet normal -0 0 -1
    outer loop
      vertex 11.5 30 2.9
      vertex 8 11.5 2.9
      vertex 8 30 2.9
    endloop
  endfacet
  facet normal 0 0 -1
    outer loop
      vertex 6.96148 9.5595 2.9
      vertex 8 11.5 2.9
      vertex 7.2696 9.44736 2.9
    endloop
  endfacet
  facet normal 0 0 -1
    outer loop
      vertex 6.41854 10.045 2.9
      vertex 8 11.5 2.9
      vertex 6.96148 9.5595 2.9
    endloop
  endfacet
  facet normal 0 0 -1
    outer loop
      vertex 6.10183 10.1299 2.9
      vertex 8 11.5 2.9
      vertex 6.41854 10.045 2.9
    endloop
  endfacet
  facet normal 0 0 -1
    outer loop
      vertex 5.51864 10.5662 2.9
      vertex 8 11.5 2.9
      vertex 6.10183 10.1299 2.9
    endloop
  endfacet
  facet normal 0 0 -1
    outer loop
      vertex 4.57673 11.007 2.9
      vertex 8 11.5 2.9
      vertex 5.51864 10.5662 2.9
    endloop
  endfacet
  facet normal 0 0 -1
    outer loop
      vertex 3.6 11.364 2.9
      vertex 4.57673 11.007 2.9
      vertex 4.2501 11.0355 2.9
    endloop
  endfacet
  facet normal 0 0 -1
    outer loop
      vertex 3.6 11.364 2.9
      vertex 4.2501 11.0355 2.9
      vertex 3.6 11.0924 2.9
    endloop
  endfacet
  facet normal 0 0 -1
    outer loop
      vertex 4.57673 11.007 2.9
      vertex 3.6 11.364 2.9
      vertex 8 11.5 2.9
    endloop
  endfacet
  facet normal 0 0 -1
    outer loop
      vertex 0 11.5 2.9
      vertex 3.6 11.364 2.9
      vertex 0 11.364 2.9
    endloop
  endfacet
  facet normal 0 0 -1
    outer loop
      vertex 3.6 11.364 2.9
      vertex 0 11.5 2.9
      vertex 8 11.5 2.9
    endloop
  endfacet
  facet normal 0 -0 -1
    outer loop
      vertex 11.5 2.48261 2.9
      vertex 11.5 2.22759 2.9
      vertex 11.4063 2.42851 2.9
    endloop
  endfacet
  facet normal 1 -0 0
    outer loop
      vertex 24.5 8 14
      vertex 24.5 11.5 12
      vertex 24.5 11.5 14
    endloop
  endfacet
  facet normal 1 0 0
    outer loop
      vertex 24.5 11.5 12
      vertex 24.5 8 14
      vertex 24.5 8 12
    endloop
  endfacet
  facet normal -0 0 1
    outer loop
      vertex 16.5 11.5 14
      vertex 24.5 8 14
      vertex 24.5 11.5 14
    endloop
  endfacet
  facet normal 0 0 1
    outer loop
      vertex 24.5 8 14
      vertex 16.5 11.5 14
      vertex 16.5 8 14
    endloop
  endfacet
  facet normal -1 0 0
    outer loop
      vertex 16.5 8 12
      vertex 16.5 11.5 14
      vertex 16.5 11.5 12
    endloop
  endfacet
  facet normal -1 -0 0
    outer loop
      vertex 16.5 11.5 14
      vertex 16.5 8 12
      vertex 16.5 8 14
    endloop
  endfacet
  facet normal 0.956954 0 -0.290239
    outer loop
      vertex 19.4837 8 12.421
      vertex 19.4211 11.5 12.2146
      vertex 19.4837 11.5 12.421
    endloop
  endfacet
  facet normal 0.956954 0 -0.290239
    outer loop
      vertex 19.4211 11.5 12.2146
      vertex 19.4837 8 12.421
      vertex 19.4211 8 12.2146
    endloop
  endfacet
  facet normal -0.995201 0 -0.0978506
    outer loop
      vertex 21.6 8 12
      vertex 21.5789 11.5 12.2146
      vertex 21.6 11.5 12
    endloop
  endfacet
  facet normal -0.995201 -0 -0.0978506
    outer loop
      vertex 21.5789 11.5 12.2146
      vertex 21.6 8 12
      vertex 21.5789 8 12.2146
    endloop
  endfacet
  facet normal -0.773027 0 -0.634373
    outer loop
      vertex 21.4146 8 12.6111
      vertex 21.2778 11.5 12.7778
      vertex 21.4146 11.5 12.6111
    endloop
  endfacet
  facet normal -0.773027 -0 -0.634373
    outer loop
      vertex 21.2778 11.5 12.7778
      vertex 21.4146 8 12.6111
      vertex 21.2778 8 12.7778
    endloop
  endfacet
  facet normal 0.290239 0 -0.956954
    outer loop
      vertex 20.079 8 13.0163
      vertex 20.2854 11.5 13.0789
      vertex 20.2854 8 13.0789
    endloop
  endfacet
  facet normal 0.290239 0 -0.956954
    outer loop
      vertex 20.2854 11.5 13.0789
      vertex 20.079 8 13.0163
      vertex 20.079 11.5 13.0163
    endloop
  endfacet
  facet normal 0.0978506 0 -0.995201
    outer loop
      vertex 20.2854 8 13.0789
      vertex 20.5 11.5 13.1
      vertex 20.5 8 13.1
    endloop
  endfacet
  facet normal 0.0978506 0 -0.995201
    outer loop
      vertex 20.5 11.5 13.1
      vertex 20.2854 8 13.0789
      vertex 20.2854 11.5 13.0789
    endloop
  endfacet
  facet normal -0.956954 0 -0.290239
    outer loop
      vertex 21.5789 8 12.2146
      vertex 21.5163 11.5 12.421
      vertex 21.5789 11.5 12.2146
    endloop
  endfacet
  facet normal -0.956954 -0 -0.290239
    outer loop
      vertex 21.5163 11.5 12.421
      vertex 21.5789 8 12.2146
      vertex 21.5163 8 12.421
    endloop
  endfacet
  facet normal -0.881749 0 -0.471719
    outer loop
      vertex 21.5163 8 12.421
      vertex 21.4146 11.5 12.6111
      vertex 21.5163 11.5 12.421
    endloop
  endfacet
  facet normal -0.881749 -0 -0.471719
    outer loop
      vertex 21.4146 11.5 12.6111
      vertex 21.5163 8 12.421
      vertex 21.4146 8 12.6111
    endloop
  endfacet
  facet normal 0.881749 0 -0.471719
    outer loop
      vertex 19.5854 8 12.6111
      vertex 19.4837 11.5 12.421
      vertex 19.5854 11.5 12.6111
    endloop
  endfacet
  facet normal 0.881749 0 -0.471719
    outer loop
      vertex 19.4837 11.5 12.421
      vertex 19.5854 8 12.6111
      vertex 19.4837 8 12.421
    endloop
  endfacet
  facet normal -0.471719 0 -0.881749
    outer loop
      vertex 20.921 8 13.0163
      vertex 21.1111 11.5 12.9146
      vertex 21.1111 8 12.9146
    endloop
  endfacet
  facet normal -0.471719 0 -0.881749
    outer loop
      vertex 21.1111 11.5 12.9146
      vertex 20.921 8 13.0163
      vertex 20.921 11.5 13.0163
    endloop
  endfacet
  facet normal -0.634373 0 -0.773027
    outer loop
      vertex 21.1111 8 12.9146
      vertex 21.2778 11.5 12.7778
      vertex 21.2778 8 12.7778
    endloop
  endfacet
  facet normal -0.634373 0 -0.773027
    outer loop
      vertex 21.2778 11.5 12.7778
      vertex 21.1111 8 12.9146
      vertex 21.1111 11.5 12.9146
    endloop
  endfacet
  facet normal -0.0978506 0 -0.995201
    outer loop
      vertex 20.5 8 13.1
      vertex 20.7146 11.5 13.0789
      vertex 20.7146 8 13.0789
    endloop
  endfacet
  facet normal -0.0978506 0 -0.995201
    outer loop
      vertex 20.7146 11.5 13.0789
      vertex 20.5 8 13.1
      vertex 20.5 11.5 13.1
    endloop
  endfacet
  facet normal 0.634373 0 -0.773027
    outer loop
      vertex 19.7222 8 12.7778
      vertex 19.8889 11.5 12.9146
      vertex 19.8889 8 12.9146
    endloop
  endfacet
  facet normal 0.634373 0 -0.773027
    outer loop
      vertex 19.8889 11.5 12.9146
      vertex 19.7222 8 12.7778
      vertex 19.7222 11.5 12.7778
    endloop
  endfacet
  facet normal 0.773027 0 -0.634373
    outer loop
      vertex 19.7222 8 12.7778
      vertex 19.5854 11.5 12.6111
      vertex 19.7222 11.5 12.7778
    endloop
  endfacet
  facet normal 0.773027 0 -0.634373
    outer loop
      vertex 19.5854 11.5 12.6111
      vertex 19.7222 8 12.7778
      vertex 19.5854 8 12.6111
    endloop
  endfacet
  facet normal 0.995201 0 -0.0978506
    outer loop
      vertex 19.4211 8 12.2146
      vertex 19.4 11.5 12
      vertex 19.4211 11.5 12.2146
    endloop
  endfacet
  facet normal 0.995201 0 -0.0978506
    outer loop
      vertex 19.4 11.5 12
      vertex 19.4211 8 12.2146
      vertex 19.4 8 12
    endloop
  endfacet
  facet normal 0.471719 0 -0.881749
    outer loop
      vertex 19.8889 8 12.9146
      vertex 20.079 11.5 13.0163
      vertex 20.079 8 13.0163
    endloop
  endfacet
  facet normal 0.471719 0 -0.881749
    outer loop
      vertex 20.079 11.5 13.0163
      vertex 19.8889 8 12.9146
      vertex 19.8889 11.5 12.9146
    endloop
  endfacet
  facet normal -0.290239 0 -0.956954
    outer loop
      vertex 20.7146 8 13.0789
      vertex 20.921 11.5 13.0163
      vertex 20.921 8 13.0163
    endloop
  endfacet
  facet normal -0.290239 0 -0.956954
    outer loop
      vertex 20.921 11.5 13.0163
      vertex 20.7146 8 13.0789
      vertex 20.7146 11.5 13.0789
    endloop
  endfacet
  facet normal -0 0 1
    outer loop
      vertex 8 24.5 14
      vertex 11.5 16.5 14
      vertex 11.5 24.5 14
    endloop
  endfacet
  facet normal 0 0 1
    outer loop
      vertex 11.5 16.5 14
      vertex 8 24.5 14
      vertex 8 16.5 14
    endloop
  endfacet
  facet normal 0 1 -0
    outer loop
      vertex 11.5 24.5 12
      vertex 8 24.5 14
      vertex 11.5 24.5 14
    endloop
  endfacet
  facet normal 0 1 0
    outer loop
      vertex 8 24.5 14
      vertex 11.5 24.5 12
      vertex 8 24.5 12
    endloop
  endfacet
  facet normal 0 -1 0
    outer loop
      vertex 8 16.5 12
      vertex 11.5 16.5 14
      vertex 8 16.5 14
    endloop
  endfacet
  facet normal 0 -1 -0
    outer loop
      vertex 11.5 16.5 14
      vertex 8 16.5 12
      vertex 11.5 16.5 12
    endloop
  endfacet
  facet normal 0 0.290239 -0.956954
    outer loop
      vertex 8 20.079 13.0163
      vertex 11.5 20.2854 13.0789
      vertex 11.5 20.079 13.0163
    endloop
  endfacet
  facet normal 0 0.290239 -0.956954
    outer loop
      vertex 11.5 20.2854 13.0789
      vertex 8 20.079 13.0163
      vertex 8 20.2854 13.0789
    endloop
  endfacet
  facet normal 0 -0.956954 -0.290239
    outer loop
      vertex 8 21.5789 12.2146
      vertex 11.5 21.5163 12.421
      vertex 8 21.5163 12.421
    endloop
  endfacet
  facet normal 0 -0.956954 -0.290239
    outer loop
      vertex 11.5 21.5163 12.421
      vertex 8 21.5789 12.2146
      vertex 11.5 21.5789 12.2146
    endloop
  endfacet
  facet normal 0 -0.995201 -0.0978506
    outer loop
      vertex 8 21.6 12
      vertex 11.5 21.5789 12.2146
      vertex 8 21.5789 12.2146
    endloop
  endfacet
  facet normal 0 -0.995201 -0.0978506
    outer loop
      vertex 11.5 21.5789 12.2146
      vertex 8 21.6 12
      vertex 11.5 21.6 12
    endloop
  endfacet
  facet normal 0 -0.881749 -0.471719
    outer loop
      vertex 8 21.5163 12.421
      vertex 11.5 21.4146 12.6111
      vertex 8 21.4146 12.6111
    endloop
  endfacet
  facet normal 0 -0.881749 -0.471719
    outer loop
      vertex 11.5 21.4146 12.6111
      vertex 8 21.5163 12.421
      vertex 11.5 21.5163 12.421
    endloop
  endfacet
  facet normal 0 -0.773027 -0.634373
    outer loop
      vertex 8 21.4146 12.6111
      vertex 11.5 21.2778 12.7778
      vertex 8 21.2778 12.7778
    endloop
  endfacet
  facet normal 0 -0.773027 -0.634373
    outer loop
      vertex 11.5 21.2778 12.7778
      vertex 8 21.4146 12.6111
      vertex 11.5 21.4146 12.6111
    endloop
  endfacet
  facet normal 0 0.773027 -0.634373
    outer loop
      vertex 11.5 19.5854 12.6111
      vertex 8 19.7222 12.7778
      vertex 11.5 19.7222 12.7778
    endloop
  endfacet
  facet normal 0 0.773027 -0.634373
    outer loop
      vertex 8 19.7222 12.7778
      vertex 11.5 19.5854 12.6111
      vertex 8 19.5854 12.6111
    endloop
  endfacet
  facet normal 0 0.0978506 -0.995201
    outer loop
      vertex 8 20.2854 13.0789
      vertex 11.5 20.5 13.1
      vertex 11.5 20.2854 13.0789
    endloop
  endfacet
  facet normal 0 0.0978506 -0.995201
    outer loop
      vertex 11.5 20.5 13.1
      vertex 8 20.2854 13.0789
      vertex 8 20.5 13.1
    endloop
  endfacet
  facet normal 0 -0.0978506 -0.995201
    outer loop
      vertex 8 20.5 13.1
      vertex 11.5 20.7146 13.0789
      vertex 11.5 20.5 13.1
    endloop
  endfacet
  facet normal -0 -0.0978506 -0.995201
    outer loop
      vertex 11.5 20.7146 13.0789
      vertex 8 20.5 13.1
      vertex 8 20.7146 13.0789
    endloop
  endfacet
  facet normal 0 0.995201 -0.0978506
    outer loop
      vertex 11.5 19.4 12
      vertex 8 19.4211 12.2146
      vertex 11.5 19.4211 12.2146
    endloop
  endfacet
  facet normal 0 0.995201 -0.0978506
    outer loop
      vertex 8 19.4211 12.2146
      vertex 11.5 19.4 12
      vertex 8 19.4 12
    endloop
  endfacet
  facet normal 0 0.471719 -0.881749
    outer loop
      vertex 8 19.8889 12.9146
      vertex 11.5 20.079 13.0163
      vertex 11.5 19.8889 12.9146
    endloop
  endfacet
  facet normal 0 0.471719 -0.881749
    outer loop
      vertex 11.5 20.079 13.0163
      vertex 8 19.8889 12.9146
      vertex 8 20.079 13.0163
    endloop
  endfacet
  facet normal 0 -0.290239 -0.956954
    outer loop
      vertex 8 20.7146 13.0789
      vertex 11.5 20.921 13.0163
      vertex 11.5 20.7146 13.0789
    endloop
  endfacet
  facet normal -0 -0.290239 -0.956954
    outer loop
      vertex 11.5 20.921 13.0163
      vertex 8 20.7146 13.0789
      vertex 8 20.921 13.0163
    endloop
  endfacet
  facet normal 0 0.956954 -0.290239
    outer loop
      vertex 11.5 19.4211 12.2146
      vertex 8 19.4837 12.421
      vertex 11.5 19.4837 12.421
    endloop
  endfacet
  facet normal 0 0.956954 -0.290239
    outer loop
      vertex 8 19.4837 12.421
      vertex 11.5 19.4211 12.2146
      vertex 8 19.4211 12.2146
    endloop
  endfacet
  facet normal 0 0.634373 -0.773027
    outer loop
      vertex 8 19.7222 12.7778
      vertex 11.5 19.8889 12.9146
      vertex 11.5 19.7222 12.7778
    endloop
  endfacet
  facet normal 0 0.634373 -0.773027
    outer loop
      vertex 11.5 19.8889 12.9146
      vertex 8 19.7222 12.7778
      vertex 8 19.8889 12.9146
    endloop
  endfacet
  facet normal 0 -0.634373 -0.773027
    outer loop
      vertex 8 21.1111 12.9146
      vertex 11.5 21.2778 12.7778
      vertex 11.5 21.1111 12.9146
    endloop
  endfacet
  facet normal -0 -0.634373 -0.773027
    outer loop
      vertex 11.5 21.2778 12.7778
      vertex 8 21.1111 12.9146
      vertex 8 21.2778 12.7778
    endloop
  endfacet
  facet normal 0 -0.471719 -0.881749
    outer loop
      vertex 8 20.921 13.0163
      vertex 11.5 21.1111 12.9146
      vertex 11.5 20.921 13.0163
    endloop
  endfacet
  facet normal -0 -0.471719 -0.881749
    outer loop
      vertex 11.5 21.1111 12.9146
      vertex 8 20.921 13.0163
      vertex 8 21.1111 12.9146
    endloop
  endfacet
  facet normal 0 0.881749 -0.471719
    outer loop
      vertex 11.5 19.4837 12.421
      vertex 8 19.5854 12.6111
      vertex 11.5 19.5854 12.6111
    endloop
  endfacet
  facet normal 0 0.881749 -0.471719
    outer loop
      vertex 8 19.5854 12.6111
      vertex 11.5 19.4837 12.421
      vertex 8 19.4837 12.421
    endloop
  endfacet
endsolid OpenSCAD_Model
